<svg width="154" height="154" viewBox="0 0 154 154" fill="none" xmlns="http://www.w3.org/2000/svg">
<rect width="154" height="154" rx="24" fill="#1393F9"/>
<path d="M81.4225 92.6058L68.5109 79.8466L68.6634 79.6941C77.2753 70.1227 83.7095 58.7978 87.5225 46.5H102.417V36.3333H66.8334V26.1666H56.6667V36.3333H21.0834V46.5H77.8642C74.4584 56.26 69.07 65.5625 61.75 73.6958C57.0225 68.46 53.1084 62.7158 50.0075 56.6666H39.8409C43.5517 64.9525 48.635 72.7808 54.9892 79.8466L29.115 105.365L36.3334 112.583L61.75 87.1666L77.5592 102.976L81.4225 92.6058ZM110.042 66.8333H99.875L77 127.833H87.1667L92.86 112.583H117.006L122.75 127.833H132.917L110.042 66.8333ZM96.7234 102.417L104.958 80.4058L113.193 102.417H96.7234Z" fill="white"/>
</svg>
