<svg width="241" height="220" viewBox="0 0 241 220" fill="none" xmlns="http://www.w3.org/2000/svg">
<mask id="mask0_2_1669" style="mask-type:alpha" maskUnits="userSpaceOnUse" x="0" y="0" width="241" height="220">
<rect width="241" height="220" rx="17" fill="#128FF8"/>
</mask>
<g mask="url(#mask0_2_1669)">
<rect width="241" height="220" rx="17" fill="url(#paint0_linear_2_1669)"/>
<path d="M31.427 65.234C30.683 65.234 30.011 65.066 29.411 64.73C28.817 64.388 28.304 63.917 27.872 63.317C27.44 62.717 27.11 62.024 26.882 61.238C26.654 60.446 26.54 59.6 26.54 58.7C26.54 57.8 26.654 56.954 26.882 56.162C27.11 55.37 27.44 54.677 27.872 54.083C28.304 53.483 28.817 53.015 29.411 52.679C30.011 52.337 30.683 52.166 31.427 52.166C32.159 52.166 32.825 52.337 33.425 52.679C34.025 53.015 34.535 53.483 34.955 54.083C35.381 54.677 35.708 55.37 35.936 56.162C36.164 56.954 36.278 57.8 36.278 58.7C36.278 59.6 36.164 60.446 35.936 61.238C35.708 62.024 35.381 62.717 34.955 63.317C34.535 63.917 34.025 64.388 33.425 64.73C32.825 65.066 32.159 65.234 31.427 65.234ZM31.427 63.362C32.117 63.362 32.69 63.146 33.146 62.714C33.608 62.276 33.953 61.703 34.181 60.995C34.409 60.287 34.523 59.522 34.523 58.7C34.523 57.836 34.403 57.053 34.163 56.351C33.929 55.643 33.581 55.082 33.119 54.668C32.663 54.248 32.099 54.038 31.427 54.038C30.893 54.038 30.428 54.164 30.032 54.416C29.642 54.668 29.318 55.013 29.06 55.451C28.808 55.889 28.616 56.387 28.484 56.945C28.358 57.503 28.295 58.088 28.295 58.7C28.295 59.522 28.412 60.287 28.646 60.995C28.88 61.703 29.228 62.276 29.69 62.714C30.158 63.146 30.737 63.362 31.427 63.362ZM42.9215 65V61.778H37.5305V59.897L42.4715 52.4H44.7935V59.906H45.9455V61.778H44.7935V65H42.9215ZM39.7085 59.897L42.9215 59.906L42.9035 54.983L39.7085 59.897ZM48.7244 65.234C48.4484 65.234 48.2144 65.138 48.0224 64.946C47.8364 64.754 47.7434 64.52 47.7434 64.244C47.7434 63.974 47.8364 63.743 48.0224 63.551C48.2144 63.359 48.4484 63.263 48.7244 63.263C49.0004 63.263 49.2344 63.359 49.4264 63.551C49.6184 63.743 49.7144 63.974 49.7144 64.244C49.7144 64.52 49.6184 64.754 49.4264 64.946C49.2344 65.138 49.0004 65.234 48.7244 65.234Z" fill="white"/>
<path d="M31.992 110L26.98 90.4H29.976L33.644 104.778L37.298 90.4H39.944L43.612 104.778L47.28 90.4H50.276L45.292 110H41.946L38.628 97.022L35.31 110H31.992ZM57.0548 110.364C55.7668 110.364 54.5908 110.033 53.5268 109.37C52.4722 108.707 51.6275 107.821 50.9928 106.71C50.3675 105.59 50.0548 104.353 50.0548 103C50.0548 101.973 50.2368 101.017 50.6008 100.13C50.9648 99.234 51.4642 98.45 52.0988 97.778C52.7428 97.0967 53.4895 96.5647 54.3388 96.182C55.1882 95.7993 56.0935 95.608 57.0548 95.608C58.1282 95.608 59.1128 95.832 60.0088 96.28C60.9048 96.7187 61.6702 97.33 62.3048 98.114C62.9395 98.8887 63.4062 99.7847 63.7048 100.802C64.0035 101.81 64.0922 102.883 63.9708 104.022H53.1768C53.2982 104.666 53.5315 105.249 53.8768 105.772C54.2315 106.285 54.6795 106.691 55.2208 106.99C55.7715 107.289 56.3828 107.443 57.0548 107.452C57.7642 107.452 58.4082 107.275 58.9868 106.92C59.5748 106.565 60.0555 106.075 60.4288 105.45L63.3828 106.136C62.8228 107.377 61.9782 108.395 60.8488 109.188C59.7195 109.972 58.4548 110.364 57.0548 110.364ZM53.0788 101.796H61.0308C60.9375 101.124 60.6995 100.517 60.3168 99.976C59.9435 99.4253 59.4722 98.9913 58.9028 98.674C58.3428 98.3473 57.7268 98.184 57.0548 98.184C56.3922 98.184 55.7762 98.3427 55.2068 98.66C54.6468 98.9773 54.1802 99.4113 53.8068 99.962C53.4428 100.503 53.2002 101.115 53.0788 101.796ZM73.378 95.608C74.7406 95.608 75.9773 95.9393 77.088 96.602C78.208 97.2647 79.0993 98.156 79.762 99.276C80.4246 100.387 80.756 101.623 80.756 102.986C80.756 104.003 80.5646 104.96 80.182 105.856C79.7993 106.743 79.2673 107.527 78.586 108.208C77.914 108.88 77.13 109.407 76.234 109.79C75.3473 110.173 74.3953 110.364 73.378 110.364C72.398 110.364 71.5393 110.14 70.802 109.692C70.074 109.235 69.4766 108.651 69.01 107.942V110H66.098V89H69.01V98.03C69.4766 97.3113 70.074 96.728 70.802 96.28C71.5393 95.832 72.398 95.608 73.378 95.608ZM73.35 107.536C74.162 107.536 74.904 107.331 75.576 106.92C76.248 106.509 76.78 105.959 77.172 105.268C77.5733 104.577 77.774 103.817 77.774 102.986C77.774 102.137 77.5733 101.367 77.172 100.676C76.7706 99.9853 76.234 99.4393 75.562 99.038C74.89 98.6273 74.1526 98.422 73.35 98.422C72.538 98.422 71.824 98.6273 71.208 99.038C70.592 99.4487 70.1113 99.9993 69.766 100.69C69.4206 101.381 69.248 102.146 69.248 102.986C69.248 103.826 69.4206 104.591 69.766 105.282C70.1113 105.973 70.592 106.523 71.208 106.934C71.824 107.335 72.538 107.536 73.35 107.536ZM88.6458 110.364C87.4605 110.364 86.3965 110.089 85.4538 109.538C84.5205 108.987 83.7832 108.25 83.2418 107.326C82.7005 106.402 82.4298 105.375 82.4298 104.246H85.3418C85.3418 104.834 85.4818 105.371 85.7618 105.856C86.0418 106.341 86.4292 106.729 86.9238 107.018C87.4185 107.307 87.9925 107.452 88.6458 107.452C89.2338 107.452 89.7798 107.307 90.2838 107.018C90.7878 106.729 91.1938 106.341 91.5018 105.856C91.8098 105.371 91.9638 104.834 91.9638 104.246C91.9638 103.499 91.7678 102.874 91.3758 102.37C90.9838 101.866 90.4378 101.493 89.7378 101.25C89.0472 100.998 88.2492 100.872 87.3438 100.872V98.576C88.5758 98.576 89.5605 98.3333 90.2978 97.848C91.0352 97.3627 91.4038 96.6393 91.4038 95.678C91.4038 95.174 91.2685 94.7167 90.9978 94.306C90.7365 93.886 90.3865 93.5547 89.9478 93.312C89.5185 93.06 89.0565 92.934 88.5618 92.934C88.0485 92.934 87.5538 93.06 87.0778 93.312C86.6112 93.5547 86.2285 93.886 85.9298 94.306C85.6312 94.7167 85.4818 95.174 85.4818 95.678H82.5698C82.5698 94.9033 82.7285 94.1753 83.0458 93.494C83.3725 92.8033 83.8112 92.2013 84.3618 91.688C84.9218 91.1653 85.5565 90.7593 86.2658 90.47C86.9845 90.1713 87.7358 90.022 88.5198 90.022C89.5465 90.022 90.4985 90.2787 91.3758 90.792C92.2625 91.296 92.9718 91.9773 93.5038 92.836C94.0452 93.6853 94.3158 94.6327 94.3158 95.678C94.3158 96.5087 94.1105 97.2973 93.6998 98.044C93.2985 98.7813 92.7385 99.304 92.0198 99.612C92.6452 99.836 93.1678 100.191 93.5878 100.676C94.0172 101.152 94.3392 101.703 94.5538 102.328C94.7685 102.944 94.8758 103.583 94.8758 104.246C94.8758 105.366 94.5912 106.393 94.0218 107.326C93.4525 108.25 92.6918 108.987 91.7398 109.538C90.7972 110.089 89.7658 110.364 88.6458 110.364ZM27.68 144V124.4H34.638C35.646 124.4 36.556 124.605 37.368 125.016C38.1893 125.427 38.838 126.019 39.314 126.794C39.7993 127.559 40.042 128.479 40.042 129.552C40.042 130.075 39.958 130.588 39.79 131.092C39.622 131.596 39.384 132.039 39.076 132.422C38.768 132.805 38.3947 133.075 37.956 133.234C38.5533 133.383 39.048 133.654 39.44 134.046C39.8413 134.429 40.1587 134.877 40.392 135.39C40.6253 135.903 40.7887 136.435 40.882 136.986C40.9847 137.537 41.036 138.059 41.036 138.554C41.036 139.599 40.784 140.533 40.28 141.354C39.776 142.175 39.0993 142.824 38.25 143.3C37.41 143.767 36.4813 144 35.464 144H27.68ZM30.592 141.48H35.184C35.7813 141.48 36.3227 141.331 36.808 141.032C37.3027 140.733 37.6947 140.323 37.984 139.8C38.2733 139.268 38.418 138.671 38.418 138.008C38.418 137.429 38.2733 136.883 37.984 136.37C37.6947 135.847 37.3027 135.427 36.808 135.11C36.3227 134.793 35.7813 134.634 35.184 134.634H30.592V141.48ZM30.592 132.156H34.33C35.0953 132.156 35.7533 131.923 36.304 131.456C36.8547 130.989 37.13 130.35 37.13 129.538C37.13 128.67 36.8547 128.021 36.304 127.592C35.7533 127.153 35.0953 126.934 34.33 126.934H30.592V132.156ZM43.8402 144V130H46.7522V131.484C47.2375 130.905 47.8348 130.448 48.5442 130.112C49.2535 129.776 50.0188 129.608 50.8402 129.608C51.3628 129.608 51.8808 129.678 52.3942 129.818L51.2322 132.758C50.8682 132.618 50.5042 132.548 50.1402 132.548C49.5242 132.548 48.9595 132.702 48.4462 133.01C47.9328 133.309 47.5222 133.715 47.2142 134.228C46.9062 134.741 46.7522 135.311 46.7522 135.936V144H43.8402ZM59.5158 144.364C58.2278 144.364 57.0518 144.033 55.9878 143.37C54.9331 142.707 54.0884 141.821 53.4538 140.71C52.8284 139.59 52.5158 138.353 52.5158 137C52.5158 135.973 52.6978 135.017 53.0618 134.13C53.4258 133.234 53.9251 132.45 54.5598 131.778C55.2038 131.097 55.9504 130.565 56.7998 130.182C57.6491 129.799 58.5544 129.608 59.5158 129.608C60.8038 129.608 61.9751 129.939 63.0298 130.602C64.0938 131.265 64.9384 132.156 65.5638 133.276C66.1984 134.396 66.5158 135.637 66.5158 137C66.5158 138.017 66.3338 138.969 65.9698 139.856C65.6058 140.743 65.1018 141.527 64.4578 142.208C63.8231 142.88 63.0811 143.407 62.2318 143.79C61.3918 144.173 60.4864 144.364 59.5158 144.364ZM59.5158 141.452C60.2904 141.452 60.9858 141.247 61.6018 140.836C62.2178 140.425 62.7031 139.884 63.0578 139.212C63.4218 138.531 63.6038 137.793 63.6038 137C63.6038 136.188 63.4171 135.441 63.0438 134.76C62.6798 134.079 62.1898 133.537 61.5738 133.136C60.9578 132.725 60.2718 132.52 59.5158 132.52C58.7504 132.52 58.0551 132.725 57.4298 133.136C56.8138 133.547 56.3238 134.093 55.9598 134.774C55.6051 135.455 55.4278 136.197 55.4278 137C55.4278 137.831 55.6144 138.582 55.9878 139.254C56.3611 139.926 56.8558 140.463 57.4718 140.864C58.0971 141.256 58.7784 141.452 59.5158 141.452ZM74.8694 144H71.9714L67.2814 130H70.1374L73.4414 139.828L76.7174 130H79.6574L82.9334 139.828L86.2234 130H89.0794L84.4034 144H81.4774L78.1734 134.102L74.8694 144ZM95.3722 144.266C94.6349 144.219 93.9162 144.07 93.2162 143.818C92.5162 143.566 91.9002 143.225 91.3682 142.796C90.8455 142.357 90.4535 141.844 90.1922 141.256L92.6702 140.192C92.7915 140.444 93.0015 140.691 93.3002 140.934C93.6082 141.177 93.9675 141.377 94.3782 141.536C94.7889 141.685 95.2182 141.76 95.6662 141.76C96.1049 141.76 96.5109 141.699 96.8842 141.578C97.2669 141.447 97.5795 141.251 97.8222 140.99C98.0649 140.729 98.1862 140.416 98.1862 140.052C98.1862 139.641 98.0462 139.324 97.7662 139.1C97.4955 138.867 97.1549 138.689 96.7442 138.568C96.3335 138.447 95.9229 138.33 95.5122 138.218C94.5975 138.013 93.7575 137.733 92.9922 137.378C92.2362 137.014 91.6342 136.552 91.1862 135.992C90.7382 135.423 90.5142 134.727 90.5142 133.906C90.5142 133.01 90.7569 132.235 91.2422 131.582C91.7275 130.919 92.3622 130.411 93.1462 130.056C93.9395 129.701 94.7842 129.524 95.6802 129.524C96.8002 129.524 97.8269 129.762 98.7602 130.238C99.6935 130.714 100.408 131.367 100.902 132.198L98.5922 133.57C98.4522 133.29 98.2422 133.038 97.9622 132.814C97.6822 132.59 97.3649 132.413 97.0102 132.282C96.6555 132.142 96.2869 132.063 95.9042 132.044C95.4282 132.025 94.9849 132.081 94.5742 132.212C94.1729 132.333 93.8509 132.529 93.6082 132.8C93.3655 133.071 93.2442 133.416 93.2442 133.836C93.2442 134.247 93.3889 134.555 93.6782 134.76C93.9675 134.956 94.3315 135.115 94.7702 135.236C95.2182 135.357 95.6755 135.493 96.1422 135.642C96.9729 135.903 97.7522 136.225 98.4802 136.608C99.2082 136.981 99.7962 137.443 100.244 137.994C100.692 138.545 100.907 139.217 100.888 140.01C100.888 140.887 100.622 141.657 100.09 142.32C99.5675 142.983 98.8862 143.487 98.0462 143.832C97.2062 144.177 96.3149 144.322 95.3722 144.266ZM109.254 144.364C107.966 144.364 106.79 144.033 105.726 143.37C104.671 142.707 103.827 141.821 103.192 140.71C102.567 139.59 102.254 138.353 102.254 137C102.254 135.973 102.436 135.017 102.8 134.13C103.164 133.234 103.663 132.45 104.298 131.778C104.942 131.097 105.689 130.565 106.538 130.182C107.387 129.799 108.293 129.608 109.254 129.608C110.327 129.608 111.312 129.832 112.208 130.28C113.104 130.719 113.869 131.33 114.504 132.114C115.139 132.889 115.605 133.785 115.904 134.802C116.203 135.81 116.291 136.883 116.17 138.022H105.376C105.497 138.666 105.731 139.249 106.076 139.772C106.431 140.285 106.879 140.691 107.42 140.99C107.971 141.289 108.582 141.443 109.254 141.452C109.963 141.452 110.607 141.275 111.186 140.92C111.774 140.565 112.255 140.075 112.628 139.45L115.582 140.136C115.022 141.377 114.177 142.395 113.048 143.188C111.919 143.972 110.654 144.364 109.254 144.364ZM105.278 135.796H113.23C113.137 135.124 112.899 134.517 112.516 133.976C112.143 133.425 111.671 132.991 111.102 132.674C110.542 132.347 109.926 132.184 109.254 132.184C108.591 132.184 107.975 132.343 107.406 132.66C106.846 132.977 106.379 133.411 106.006 133.962C105.642 134.503 105.399 135.115 105.278 135.796ZM118.489 144V130H121.401V131.484C121.886 130.905 122.483 130.448 123.193 130.112C123.902 129.776 124.667 129.608 125.489 129.608C126.011 129.608 126.529 129.678 127.043 129.818L125.881 132.758C125.517 132.618 125.153 132.548 124.789 132.548C124.173 132.548 123.608 132.702 123.095 133.01C122.581 133.309 122.171 133.715 121.863 134.228C121.555 134.741 121.401 135.311 121.401 135.936V144H118.489Z" fill="white"/>
</g>
<defs>
<linearGradient id="paint0_linear_2_1669" x1="120.5" y1="0" x2="120.5" y2="220" gradientUnits="userSpaceOnUse">
<stop offset="0.270833" stop-color="#13B6FB"/>
<stop offset="0.833333" stop-color="#1E80F5"/>
</linearGradient>
</defs>
</svg>
