<svg width="241" height="220" viewBox="0 0 241 220" fill="none" xmlns="http://www.w3.org/2000/svg">
<mask id="mask0_2_1665" style="mask-type:alpha" maskUnits="userSpaceOnUse" x="0" y="0" width="241" height="220">
<rect width="241" height="220" rx="17" fill="#128FF8"/>
</mask>
<g mask="url(#mask0_2_1665)">
<rect width="241" height="220" rx="17" fill="url(#paint0_linear_2_1665)"/>
<path d="M31.427 65.234C30.683 65.234 30.011 65.066 29.411 64.73C28.817 64.388 28.304 63.917 27.872 63.317C27.44 62.717 27.11 62.024 26.882 61.238C26.654 60.446 26.54 59.6 26.54 58.7C26.54 57.8 26.654 56.954 26.882 56.162C27.11 55.37 27.44 54.677 27.872 54.083C28.304 53.483 28.817 53.015 29.411 52.679C30.011 52.337 30.683 52.166 31.427 52.166C32.159 52.166 32.825 52.337 33.425 52.679C34.025 53.015 34.535 53.483 34.955 54.083C35.381 54.677 35.708 55.37 35.936 56.162C36.164 56.954 36.278 57.8 36.278 58.7C36.278 59.6 36.164 60.446 35.936 61.238C35.708 62.024 35.381 62.717 34.955 63.317C34.535 63.917 34.025 64.388 33.425 64.73C32.825 65.066 32.159 65.234 31.427 65.234ZM31.427 63.362C32.117 63.362 32.69 63.146 33.146 62.714C33.608 62.276 33.953 61.703 34.181 60.995C34.409 60.287 34.523 59.522 34.523 58.7C34.523 57.836 34.403 57.053 34.163 56.351C33.929 55.643 33.581 55.082 33.119 54.668C32.663 54.248 32.099 54.038 31.427 54.038C30.893 54.038 30.428 54.164 30.032 54.416C29.642 54.668 29.318 55.013 29.06 55.451C28.808 55.889 28.616 56.387 28.484 56.945C28.358 57.503 28.295 58.088 28.295 58.7C28.295 59.522 28.412 60.287 28.646 60.995C28.88 61.703 29.228 62.276 29.69 62.714C30.158 63.146 30.737 63.362 31.427 63.362ZM39.0335 65V54.272H37.5305L38.0435 52.4H40.9055V65H39.0335ZM44.0487 65.234C43.7727 65.234 43.5387 65.138 43.3467 64.946C43.1607 64.754 43.0677 64.52 43.0677 64.244C43.0677 63.974 43.1607 63.743 43.3467 63.551C43.5387 63.359 43.7727 63.263 44.0487 63.263C44.3247 63.263 44.5587 63.359 44.7507 63.551C44.9427 63.743 45.0387 63.974 45.0387 64.244C45.0387 64.52 44.9427 64.754 44.7507 64.946C44.5587 65.138 44.3247 65.234 44.0487 65.234Z" fill="white"/>
<path d="M34.666 110.364C33.5927 110.364 32.5613 110.196 31.572 109.86C30.5827 109.524 29.7193 109.043 28.982 108.418C28.2447 107.783 27.7173 107.032 27.4 106.164L30.13 105.142C30.2887 105.59 30.592 105.991 31.04 106.346C31.4973 106.691 32.0387 106.962 32.664 107.158C33.2987 107.354 33.966 107.452 34.666 107.452C35.4127 107.452 36.1127 107.331 36.766 107.088C37.4287 106.845 37.9607 106.509 38.362 106.08C38.7727 105.651 38.978 105.147 38.978 104.568C38.978 103.971 38.7633 103.481 38.334 103.098C37.914 102.715 37.3727 102.412 36.71 102.188C36.0567 101.964 35.3753 101.796 34.666 101.684C33.294 101.46 32.062 101.133 30.97 100.704C29.8873 100.275 29.0287 99.6727 28.394 98.898C27.7687 98.1233 27.456 97.1153 27.456 95.874C27.456 94.7073 27.7873 93.69 28.45 92.822C29.122 91.954 30.004 91.282 31.096 90.806C32.1973 90.3207 33.3873 90.078 34.666 90.078C35.7207 90.078 36.738 90.246 37.718 90.582C38.7073 90.9087 39.5753 91.3893 40.322 92.024C41.078 92.6493 41.6193 93.41 41.946 94.306L39.188 95.3C39.0293 94.8427 38.726 94.446 38.278 94.11C37.83 93.7647 37.2887 93.494 36.654 93.298C36.0287 93.102 35.366 93.004 34.666 93.004C33.9193 92.9947 33.2193 93.116 32.566 93.368C31.922 93.6107 31.3947 93.9467 30.984 94.376C30.5733 94.8053 30.368 95.3047 30.368 95.874C30.368 96.574 30.5593 97.106 30.942 97.47C31.3247 97.834 31.838 98.1047 32.482 98.282C33.1353 98.45 33.8633 98.604 34.666 98.744C35.954 98.9493 37.144 99.29 38.236 99.766C39.3373 100.242 40.2193 100.877 40.882 101.67C41.554 102.454 41.89 103.42 41.89 104.568C41.89 105.725 41.554 106.743 40.882 107.62C40.2193 108.488 39.3373 109.165 38.236 109.65C37.144 110.126 35.954 110.364 34.666 110.364ZM50.8205 110.364C49.5325 110.364 48.3565 110.033 47.2925 109.37C46.2378 108.707 45.3931 107.821 44.7585 106.71C44.1331 105.59 43.8205 104.353 43.8205 103C43.8205 101.973 44.0025 101.017 44.3665 100.13C44.7305 99.234 45.2298 98.45 45.8645 97.778C46.5085 97.0967 47.2551 96.5647 48.1045 96.182C48.9538 95.7993 49.8591 95.608 50.8205 95.608C51.8938 95.608 52.8785 95.832 53.7745 96.28C54.6705 96.7187 55.4358 97.33 56.0705 98.114C56.7051 98.8887 57.1718 99.7847 57.4705 100.802C57.7691 101.81 57.8578 102.883 57.7365 104.022H46.9425C47.0638 104.666 47.2971 105.249 47.6425 105.772C47.9971 106.285 48.4451 106.691 48.9865 106.99C49.5371 107.289 50.1485 107.443 50.8205 107.452C51.5298 107.452 52.1738 107.275 52.7525 106.92C53.3405 106.565 53.8211 106.075 54.1945 105.45L57.1485 106.136C56.5885 107.377 55.7438 108.395 54.6145 109.188C53.4851 109.972 52.2205 110.364 50.8205 110.364ZM46.8445 101.796H54.7965C54.7031 101.124 54.4651 100.517 54.0825 99.976C53.7091 99.4253 53.2378 98.9913 52.6685 98.674C52.1085 98.3473 51.4925 98.184 50.8205 98.184C50.1578 98.184 49.5418 98.3427 48.9725 98.66C48.4125 98.9773 47.9458 99.4113 47.5725 99.962C47.2085 100.503 46.9658 101.115 46.8445 101.796ZM69.1697 106.024L71.7737 107.438C71.139 108.325 70.3317 109.034 69.3517 109.566C68.381 110.098 67.3263 110.364 66.1877 110.364C64.8997 110.364 63.7237 110.033 62.6597 109.37C61.605 108.707 60.7603 107.821 60.1257 106.71C59.5003 105.59 59.1877 104.353 59.1877 103C59.1877 101.973 59.3697 101.017 59.7337 100.13C60.0977 99.234 60.597 98.45 61.2317 97.778C61.8757 97.0967 62.6223 96.5647 63.4717 96.182C64.321 95.7993 65.2263 95.608 66.1877 95.608C67.3263 95.608 68.381 95.874 69.3517 96.406C70.3317 96.938 71.139 97.652 71.7737 98.548L69.1697 99.962C68.7777 99.4953 68.3203 99.1407 67.7977 98.898C67.275 98.646 66.7383 98.52 66.1877 98.52C65.4223 98.52 64.727 98.73 64.1017 99.15C63.4857 99.5607 62.9957 100.107 62.6317 100.788C62.277 101.46 62.0997 102.197 62.0997 103C62.0997 103.793 62.2817 104.531 62.6457 105.212C63.0097 105.884 63.4997 106.425 64.1157 106.836C64.741 107.247 65.4317 107.452 66.1877 107.452C66.7663 107.452 67.317 107.321 67.8397 107.06C68.3623 106.799 68.8057 106.453 69.1697 106.024ZM73.495 104.75V96H76.407V104.036C76.407 104.661 76.561 105.231 76.869 105.744C77.177 106.257 77.5877 106.668 78.101 106.976C78.6143 107.275 79.179 107.424 79.795 107.424C80.4203 107.424 80.985 107.275 81.489 106.976C82.0023 106.668 82.4083 106.257 82.707 105.744C83.015 105.231 83.169 104.661 83.169 104.036V96H86.081L86.095 110H83.183L83.169 108.488C82.693 109.067 82.1003 109.524 81.391 109.86C80.6817 110.196 79.921 110.364 79.109 110.364C78.073 110.364 77.1303 110.112 76.281 109.608C75.4317 109.104 74.755 108.427 74.251 107.578C73.747 106.729 73.495 105.786 73.495 104.75ZM88.9027 110V96H91.8147V97.484C92.3 96.9053 92.8973 96.448 93.6067 96.112C94.316 95.776 95.0813 95.608 95.9027 95.608C96.4253 95.608 96.9433 95.678 97.4567 95.818L96.2947 98.758C95.9307 98.618 95.5667 98.548 95.2027 98.548C94.5867 98.548 94.022 98.702 93.5087 99.01C92.9953 99.3087 92.5847 99.7147 92.2767 100.228C91.9687 100.741 91.8147 101.311 91.8147 101.936V110H88.9027ZM104.578 110.364C103.29 110.364 102.114 110.033 101.05 109.37C99.9956 108.707 99.1509 107.821 98.5163 106.71C97.8909 105.59 97.5783 104.353 97.5783 103C97.5783 101.973 97.7603 101.017 98.1243 100.13C98.4883 99.234 98.9876 98.45 99.6223 97.778C100.266 97.0967 101.013 96.5647 101.862 96.182C102.712 95.7993 103.617 95.608 104.578 95.608C105.652 95.608 106.636 95.832 107.532 96.28C108.428 96.7187 109.194 97.33 109.828 98.114C110.463 98.8887 110.93 99.7847 111.228 100.802C111.527 101.81 111.616 102.883 111.494 104.022H100.7C100.822 104.666 101.055 105.249 101.4 105.772C101.755 106.285 102.203 106.691 102.744 106.99C103.295 107.289 103.906 107.443 104.578 107.452C105.288 107.452 105.932 107.275 106.51 106.92C107.098 106.565 107.579 106.075 107.952 105.45L110.906 106.136C110.346 107.377 109.502 108.395 108.372 109.188C107.243 109.972 105.978 110.364 104.578 110.364ZM100.602 101.796H108.554C108.461 101.124 108.223 100.517 107.84 99.976C107.467 99.4253 106.996 98.9913 106.426 98.674C105.866 98.3473 105.25 98.184 104.578 98.184C103.916 98.184 103.3 98.3427 102.73 98.66C102.17 98.9773 101.704 99.4113 101.33 99.962C100.966 100.503 100.724 101.115 100.602 101.796ZM124.691 89H127.603V110H124.691V107.942C124.234 108.67 123.637 109.258 122.899 109.706C122.162 110.145 121.299 110.364 120.309 110.364C119.292 110.364 118.34 110.173 117.453 109.79C116.567 109.407 115.783 108.88 115.101 108.208C114.429 107.527 113.902 106.743 113.519 105.856C113.137 104.969 112.945 104.017 112.945 103C112.945 101.983 113.137 101.031 113.519 100.144C113.902 99.248 114.429 98.464 115.101 97.792C115.783 97.1107 116.567 96.5787 117.453 96.196C118.34 95.8133 119.292 95.622 120.309 95.622C121.299 95.622 122.162 95.846 122.899 96.294C123.637 96.7327 124.234 97.3113 124.691 98.03V89ZM120.337 107.55C121.159 107.55 121.877 107.349 122.493 106.948C123.109 106.537 123.585 105.987 123.921 105.296C124.267 104.605 124.439 103.84 124.439 103C124.439 102.151 124.267 101.381 123.921 100.69C123.576 99.9993 123.095 99.4533 122.479 99.052C121.873 98.6413 121.159 98.436 120.337 98.436C119.525 98.436 118.783 98.6413 118.111 99.052C117.449 99.4627 116.917 100.013 116.515 100.704C116.123 101.395 115.927 102.16 115.927 103C115.927 103.849 116.128 104.619 116.529 105.31C116.94 105.991 117.477 106.537 118.139 106.948C118.811 107.349 119.544 107.55 120.337 107.55ZM27.68 144L31.474 124.4H33.826L38.852 137.602L43.85 124.4H46.202L50.01 144H47.042L44.508 130.882L39.818 143.258H37.858L33.182 130.882L30.648 144H27.68ZM58.1759 144.364C56.8879 144.364 55.7119 144.033 54.6479 143.37C53.5933 142.707 52.7486 141.821 52.1139 140.71C51.4886 139.59 51.1759 138.353 51.1759 137C51.1759 135.973 51.3579 135.017 51.7219 134.13C52.0859 133.234 52.5853 132.45 53.2199 131.778C53.8639 131.097 54.6106 130.565 55.4599 130.182C56.3093 129.799 57.2146 129.608 58.1759 129.608C59.2493 129.608 60.2339 129.832 61.1299 130.28C62.0259 130.719 62.7913 131.33 63.4259 132.114C64.0606 132.889 64.5273 133.785 64.8259 134.802C65.1246 135.81 65.2133 136.883 65.0919 138.022H54.2979C54.4193 138.666 54.6526 139.249 54.9979 139.772C55.3526 140.285 55.8006 140.691 56.3419 140.99C56.8926 141.289 57.5039 141.443 58.1759 141.452C58.8853 141.452 59.5293 141.275 60.1079 140.92C60.6959 140.565 61.1766 140.075 61.5499 139.45L64.5039 140.136C63.9439 141.377 63.0993 142.395 61.9699 143.188C60.8406 143.972 59.5759 144.364 58.1759 144.364ZM54.1999 135.796H62.1519C62.0586 135.124 61.8206 134.517 61.4379 133.976C61.0646 133.425 60.5933 132.991 60.0239 132.674C59.4639 132.347 58.8479 132.184 58.1759 132.184C57.5133 132.184 56.8973 132.343 56.3279 132.66C55.7679 132.977 55.3013 133.411 54.9279 133.962C54.5639 134.503 54.3213 135.115 54.1999 135.796ZM71.6652 144.266C70.9278 144.219 70.2092 144.07 69.5092 143.818C68.8092 143.566 68.1932 143.225 67.6612 142.796C67.1385 142.357 66.7465 141.844 66.4852 141.256L68.9632 140.192C69.0845 140.444 69.2945 140.691 69.5932 140.934C69.9012 141.177 70.2605 141.377 70.6712 141.536C71.0818 141.685 71.5112 141.76 71.9592 141.76C72.3978 141.76 72.8038 141.699 73.1772 141.578C73.5598 141.447 73.8725 141.251 74.1152 140.99C74.3578 140.729 74.4792 140.416 74.4792 140.052C74.4792 139.641 74.3392 139.324 74.0592 139.1C73.7885 138.867 73.4478 138.689 73.0372 138.568C72.6265 138.447 72.2158 138.33 71.8052 138.218C70.8905 138.013 70.0505 137.733 69.2852 137.378C68.5292 137.014 67.9272 136.552 67.4792 135.992C67.0312 135.423 66.8072 134.727 66.8072 133.906C66.8072 133.01 67.0498 132.235 67.5352 131.582C68.0205 130.919 68.6552 130.411 69.4392 130.056C70.2325 129.701 71.0772 129.524 71.9732 129.524C73.0932 129.524 74.1198 129.762 75.0532 130.238C75.9865 130.714 76.7005 131.367 77.1952 132.198L74.8852 133.57C74.7452 133.29 74.5352 133.038 74.2552 132.814C73.9752 132.59 73.6578 132.413 73.3032 132.282C72.9485 132.142 72.5798 132.063 72.1972 132.044C71.7212 132.025 71.2778 132.081 70.8672 132.212C70.4658 132.333 70.1438 132.529 69.9012 132.8C69.6585 133.071 69.5372 133.416 69.5372 133.836C69.5372 134.247 69.6818 134.555 69.9712 134.76C70.2605 134.956 70.6245 135.115 71.0632 135.236C71.5112 135.357 71.9685 135.493 72.4352 135.642C73.2658 135.903 74.0452 136.225 74.7732 136.608C75.5012 136.981 76.0892 137.443 76.5372 137.994C76.9852 138.545 77.1998 139.217 77.1812 140.01C77.1812 140.887 76.9152 141.657 76.3832 142.32C75.8605 142.983 75.1792 143.487 74.3392 143.832C73.4992 144.177 72.6078 144.322 71.6652 144.266ZM83.7784 144.266C83.0411 144.219 82.3224 144.07 81.6224 143.818C80.9224 143.566 80.3064 143.225 79.7744 142.796C79.2518 142.357 78.8598 141.844 78.5984 141.256L81.0764 140.192C81.1978 140.444 81.4078 140.691 81.7064 140.934C82.0144 141.177 82.3738 141.377 82.7844 141.536C83.1951 141.685 83.6244 141.76 84.0724 141.76C84.5111 141.76 84.9171 141.699 85.2904 141.578C85.6731 141.447 85.9858 141.251 86.2284 140.99C86.4711 140.729 86.5924 140.416 86.5924 140.052C86.5924 139.641 86.4524 139.324 86.1724 139.1C85.9018 138.867 85.5611 138.689 85.1504 138.568C84.7398 138.447 84.3291 138.33 83.9184 138.218C83.0038 138.013 82.1638 137.733 81.3984 137.378C80.6424 137.014 80.0404 136.552 79.5924 135.992C79.1444 135.423 78.9204 134.727 78.9204 133.906C78.9204 133.01 79.1631 132.235 79.6484 131.582C80.1338 130.919 80.7684 130.411 81.5524 130.056C82.3458 129.701 83.1904 129.524 84.0864 129.524C85.2064 129.524 86.2331 129.762 87.1664 130.238C88.0998 130.714 88.8138 131.367 89.3084 132.198L86.9984 133.57C86.8584 133.29 86.6484 133.038 86.3684 132.814C86.0884 132.59 85.7711 132.413 85.4164 132.282C85.0618 132.142 84.6931 132.063 84.3104 132.044C83.8344 132.025 83.3911 132.081 82.9804 132.212C82.5791 132.333 82.2571 132.529 82.0144 132.8C81.7718 133.071 81.6504 133.416 81.6504 133.836C81.6504 134.247 81.7951 134.555 82.0844 134.76C82.3738 134.956 82.7378 135.115 83.1764 135.236C83.6244 135.357 84.0818 135.493 84.5484 135.642C85.3791 135.903 86.1584 136.225 86.8864 136.608C87.6144 136.981 88.2024 137.443 88.6504 137.994C89.0984 138.545 89.3131 139.217 89.2944 140.01C89.2944 140.887 89.0284 141.657 88.4964 142.32C87.9738 142.983 87.2924 143.487 86.4524 143.832C85.6124 144.177 84.7211 144.322 83.7784 144.266ZM102.392 130H105.304V144H102.378L102.266 141.97C101.856 142.689 101.3 143.267 100.6 143.706C99.9003 144.145 99.0743 144.364 98.1223 144.364C97.0956 144.364 96.1296 144.173 95.2243 143.79C94.319 143.398 93.521 142.857 92.8303 142.166C92.149 141.475 91.617 140.682 91.2343 139.786C90.8516 138.881 90.6603 137.91 90.6603 136.874C90.6603 135.875 90.847 134.937 91.2203 134.06C91.5936 133.173 92.1116 132.399 92.7743 131.736C93.437 131.073 94.2023 130.555 95.0703 130.182C95.9476 129.799 96.8856 129.608 97.8843 129.608C98.9016 129.608 99.7976 129.841 100.572 130.308C101.356 130.765 102.005 131.353 102.518 132.072L102.392 130ZM98.0523 141.55C98.8736 141.55 99.5923 141.349 100.208 140.948C100.824 140.537 101.3 139.987 101.636 139.296C101.982 138.605 102.154 137.84 102.154 137C102.154 136.151 101.982 135.381 101.636 134.69C101.291 133.999 100.81 133.453 100.194 133.052C99.5876 132.641 98.8736 132.436 98.0523 132.436C97.2403 132.436 96.4983 132.641 95.8263 133.052C95.1543 133.463 94.6223 134.013 94.2303 134.704C93.8383 135.395 93.6423 136.16 93.6423 137C93.6423 137.849 93.843 138.619 94.2443 139.31C94.655 139.991 95.1916 140.537 95.8543 140.948C96.5263 141.349 97.259 141.55 98.0523 141.55ZM118.479 130H121.391V144.364C121.391 145.325 121.185 146.212 120.775 147.024C120.373 147.836 119.827 148.536 119.137 149.124C118.446 149.721 117.653 150.183 116.757 150.51C115.87 150.837 114.941 151 113.971 151C112.991 151 112.048 150.79 111.143 150.37C110.237 149.959 109.439 149.399 108.749 148.69C108.067 147.981 107.559 147.178 107.223 146.282L109.897 145.078C110.083 145.657 110.382 146.17 110.793 146.618C111.213 147.066 111.698 147.421 112.249 147.682C112.809 147.943 113.383 148.074 113.971 148.074C114.549 148.074 115.105 147.981 115.637 147.794C116.178 147.617 116.659 147.365 117.079 147.038C117.508 146.711 117.849 146.319 118.101 145.862C118.353 145.405 118.479 144.905 118.479 144.364V141.998C118.021 142.707 117.433 143.281 116.715 143.72C115.996 144.149 115.161 144.364 114.209 144.364C113.219 144.364 112.286 144.173 111.409 143.79C110.531 143.407 109.761 142.88 109.099 142.208C108.436 141.527 107.918 140.743 107.545 139.856C107.171 138.969 106.985 138.017 106.985 137C106.985 135.983 107.171 135.031 107.545 134.144C107.918 133.248 108.436 132.464 109.099 131.792C109.761 131.111 110.531 130.579 111.409 130.196C112.286 129.813 113.219 129.622 114.209 129.622C115.161 129.622 115.996 129.841 116.715 130.28C117.433 130.709 118.021 131.283 118.479 132.002V130ZM114.237 141.55C115.049 141.55 115.758 141.345 116.365 140.934C116.971 140.514 117.443 139.959 117.779 139.268C118.115 138.577 118.283 137.821 118.283 137C118.283 136.16 118.11 135.399 117.765 134.718C117.429 134.027 116.957 133.477 116.351 133.066C115.744 132.646 115.039 132.436 114.237 132.436C113.453 132.436 112.734 132.641 112.081 133.052C111.437 133.463 110.923 134.013 110.541 134.704C110.158 135.395 109.967 136.16 109.967 137C109.967 137.84 110.158 138.605 110.541 139.296C110.933 139.987 111.451 140.537 112.095 140.948C112.748 141.349 113.462 141.55 114.237 141.55ZM124.504 130H127.416V144H124.504V130ZM125.988 127.97C125.54 127.97 125.167 127.825 124.868 127.536C124.57 127.247 124.42 126.883 124.42 126.444C124.42 126.015 124.57 125.655 124.868 125.366C125.167 125.067 125.536 124.918 125.974 124.918C126.404 124.918 126.768 125.067 127.066 125.366C127.365 125.655 127.514 126.015 127.514 126.444C127.514 126.883 127.365 127.247 127.066 127.536C126.777 127.825 126.418 127.97 125.988 127.97ZM143.257 135.222V144H140.345V135.936C140.345 135.311 140.191 134.741 139.883 134.228C139.584 133.715 139.178 133.309 138.665 133.01C138.161 132.702 137.591 132.548 136.957 132.548C136.341 132.548 135.776 132.702 135.263 133.01C134.749 133.309 134.339 133.715 134.031 134.228C133.723 134.741 133.569 135.311 133.569 135.936V144H130.657V130H133.569V131.484C134.054 130.905 134.651 130.448 135.361 130.112C136.07 129.776 136.835 129.608 137.657 129.608C138.693 129.608 139.635 129.86 140.485 130.364C141.334 130.868 142.006 131.545 142.501 132.394C143.005 133.243 143.257 134.186 143.257 135.222ZM156.432 130H159.344V144.364C159.344 145.325 159.138 146.212 158.728 147.024C158.326 147.836 157.78 148.536 157.09 149.124C156.399 149.721 155.606 150.183 154.71 150.51C153.823 150.837 152.894 151 151.924 151C150.944 151 150.001 150.79 149.096 150.37C148.19 149.959 147.392 149.399 146.702 148.69C146.02 147.981 145.512 147.178 145.176 146.282L147.85 145.078C148.036 145.657 148.335 146.17 148.746 146.618C149.166 147.066 149.651 147.421 150.202 147.682C150.762 147.943 151.336 148.074 151.924 148.074C152.502 148.074 153.058 147.981 153.59 147.794C154.131 147.617 154.612 147.365 155.032 147.038C155.461 146.711 155.802 146.319 156.054 145.862C156.306 145.405 156.432 144.905 156.432 144.364V141.998C155.974 142.707 155.386 143.281 154.668 143.72C153.949 144.149 153.114 144.364 152.162 144.364C151.172 144.364 150.239 144.173 149.362 143.79C148.484 143.407 147.714 142.88 147.052 142.208C146.389 141.527 145.871 140.743 145.498 139.856C145.124 138.969 144.938 138.017 144.938 137C144.938 135.983 145.124 135.031 145.498 134.144C145.871 133.248 146.389 132.464 147.052 131.792C147.714 131.111 148.484 130.579 149.362 130.196C150.239 129.813 151.172 129.622 152.162 129.622C153.114 129.622 153.949 129.841 154.668 130.28C155.386 130.709 155.974 131.283 156.432 132.002V130ZM152.19 141.55C153.002 141.55 153.711 141.345 154.318 140.934C154.924 140.514 155.396 139.959 155.732 139.268C156.068 138.577 156.236 137.821 156.236 137C156.236 136.16 156.063 135.399 155.718 134.718C155.382 134.027 154.91 133.477 154.304 133.066C153.697 132.646 152.992 132.436 152.19 132.436C151.406 132.436 150.687 132.641 150.034 133.052C149.39 133.463 148.876 134.013 148.494 134.704C148.111 135.395 147.92 136.16 147.92 137C147.92 137.84 148.111 138.605 148.494 139.296C148.886 139.987 149.404 140.537 150.048 140.948C150.701 141.349 151.415 141.55 152.19 141.55Z" fill="white"/>
</g>
<defs>
<linearGradient id="paint0_linear_2_1665" x1="120.5" y1="0" x2="120.5" y2="220" gradientUnits="userSpaceOnUse">
<stop offset="0.270833" stop-color="#13B6FB"/>
<stop offset="0.833333" stop-color="#1E80F5"/>
</linearGradient>
</defs>
</svg>

