<svg width="241" height="220" viewBox="0 0 241 220" fill="none" xmlns="http://www.w3.org/2000/svg">
<mask id="mask0_2_1668" style="mask-type:alpha" maskUnits="userSpaceOnUse" x="0" y="0" width="241" height="220">
<rect width="241" height="220" rx="17" fill="#128FF8"/>
</mask>
<g mask="url(#mask0_2_1668)">
<rect width="241" height="220" rx="17" fill="url(#paint0_linear_2_1668)"/>
<path d="M31.427 65.234C30.683 65.234 30.011 65.066 29.411 64.73C28.817 64.388 28.304 63.917 27.872 63.317C27.44 62.717 27.11 62.024 26.882 61.238C26.654 60.446 26.54 59.6 26.54 58.7C26.54 57.8 26.654 56.954 26.882 56.162C27.11 55.37 27.44 54.677 27.872 54.083C28.304 53.483 28.817 53.015 29.411 52.679C30.011 52.337 30.683 52.166 31.427 52.166C32.159 52.166 32.825 52.337 33.425 52.679C34.025 53.015 34.535 53.483 34.955 54.083C35.381 54.677 35.708 55.37 35.936 56.162C36.164 56.954 36.278 57.8 36.278 58.7C36.278 59.6 36.164 60.446 35.936 61.238C35.708 62.024 35.381 62.717 34.955 63.317C34.535 63.917 34.025 64.388 33.425 64.73C32.825 65.066 32.159 65.234 31.427 65.234ZM31.427 63.362C32.117 63.362 32.69 63.146 33.146 62.714C33.608 62.276 33.953 61.703 34.181 60.995C34.409 60.287 34.523 59.522 34.523 58.7C34.523 57.836 34.403 57.053 34.163 56.351C33.929 55.643 33.581 55.082 33.119 54.668C32.663 54.248 32.099 54.038 31.427 54.038C30.893 54.038 30.428 54.164 30.032 54.416C29.642 54.668 29.318 55.013 29.06 55.451C28.808 55.889 28.616 56.387 28.484 56.945C28.358 57.503 28.295 58.088 28.295 58.7C28.295 59.522 28.412 60.287 28.646 60.995C28.88 61.703 29.228 62.276 29.69 62.714C30.158 63.146 30.737 63.362 31.427 63.362ZM41.3465 65.234C40.5845 65.234 39.9005 65.057 39.2945 64.703C38.6945 64.349 38.2205 63.875 37.8725 63.281C37.5245 62.687 37.3505 62.027 37.3505 61.301H39.2225C39.2225 61.679 39.3125 62.024 39.4925 62.336C39.6725 62.648 39.9215 62.897 40.2395 63.083C40.5575 63.269 40.9265 63.362 41.3465 63.362C41.7245 63.362 42.0755 63.269 42.3995 63.083C42.7235 62.897 42.9845 62.648 43.1825 62.336C43.3805 62.024 43.4795 61.679 43.4795 61.301C43.4795 60.821 43.3535 60.419 43.1015 60.095C42.8495 59.771 42.4985 59.531 42.0485 59.375C41.6045 59.213 41.0915 59.132 40.5095 59.132V57.656C41.3015 57.656 41.9345 57.5 42.4085 57.188C42.8825 56.876 43.1195 56.411 43.1195 55.793C43.1195 55.469 43.0325 55.175 42.8585 54.911C42.6905 54.641 42.4655 54.428 42.1835 54.272C41.9075 54.11 41.6105 54.029 41.2925 54.029C40.9625 54.029 40.6445 54.11 40.3385 54.272C40.0385 54.428 39.7925 54.641 39.6005 54.911C39.4085 55.175 39.3125 55.469 39.3125 55.793H37.4405C37.4405 55.295 37.5425 54.827 37.7465 54.389C37.9565 53.945 38.2385 53.558 38.5925 53.228C38.9525 52.892 39.3605 52.631 39.8165 52.445C40.2785 52.253 40.7615 52.157 41.2655 52.157C41.9255 52.157 42.5375 52.322 43.1015 52.652C43.6715 52.976 44.1275 53.414 44.4695 53.966C44.8175 54.512 44.9915 55.121 44.9915 55.793C44.9915 56.327 44.8595 56.834 44.5955 57.314C44.3375 57.788 43.9775 58.124 43.5155 58.322C43.9175 58.466 44.2535 58.694 44.5235 59.006C44.7995 59.312 45.0065 59.666 45.1445 60.068C45.2825 60.464 45.3515 60.875 45.3515 61.301C45.3515 62.021 45.1685 62.681 44.8025 63.281C44.4365 63.875 43.9475 64.349 43.3355 64.703C42.7295 65.057 42.0665 65.234 41.3465 65.234ZM47.5994 65.234C47.3234 65.234 47.0894 65.138 46.8974 64.946C46.7114 64.754 46.6184 64.52 46.6184 64.244C46.6184 63.974 46.7114 63.743 46.8974 63.551C47.0894 63.359 47.3234 63.263 47.5994 63.263C47.8754 63.263 48.1094 63.359 48.3014 63.551C48.4934 63.743 48.5894 63.974 48.5894 64.244C48.5894 64.52 48.4934 64.754 48.3014 64.946C48.1094 65.138 47.8754 65.234 47.5994 65.234Z" fill="white"/>
<path d="M36.766 110.364C35.4033 110.364 34.134 110.103 32.958 109.58C31.7913 109.048 30.7693 108.315 29.892 107.382C29.024 106.439 28.3427 105.352 27.848 104.12C27.3627 102.888 27.12 101.577 27.12 100.186C27.12 98.7207 27.3813 97.372 27.904 96.14C28.4267 94.908 29.1407 93.8393 30.046 92.934C30.9513 92.0193 31.9827 91.31 33.14 90.806C34.3067 90.302 35.5293 90.05 36.808 90.05C38.2547 90.05 39.6453 90.386 40.98 91.058C42.3147 91.73 43.4767 92.738 44.466 94.082L41.862 95.496C41.19 94.656 40.406 94.0213 39.51 93.592C38.6233 93.1627 37.7133 92.948 36.78 92.948C35.8747 92.948 35.016 93.1347 34.204 93.508C33.392 93.872 32.6733 94.3853 32.048 95.048C31.4227 95.7013 30.928 96.4713 30.564 97.358C30.2093 98.2353 30.032 99.192 30.032 100.228C30.032 101.227 30.2047 102.165 30.55 103.042C30.9047 103.919 31.39 104.689 32.006 105.352C32.6313 106.005 33.35 106.519 34.162 106.892C34.9833 107.265 35.8607 107.452 36.794 107.452C37.4847 107.452 38.1473 107.34 38.782 107.116C39.4167 106.892 40.0047 106.575 40.546 106.164C41.0967 105.744 41.5773 105.245 41.988 104.666C42.3987 104.087 42.7253 103.443 42.968 102.734H38.81V100.158H46.384C46.4027 101.558 46.16 102.874 45.656 104.106C45.1613 105.338 44.4707 106.425 43.584 107.368C42.7067 108.301 41.6847 109.034 40.518 109.566C39.3513 110.098 38.1007 110.364 36.766 110.364ZM49.0355 110V89H51.9475V110H49.0355ZM61.2658 110.364C59.9778 110.364 58.8018 110.033 57.7378 109.37C56.6831 108.707 55.8384 107.821 55.2038 106.71C54.5784 105.59 54.2658 104.353 54.2658 103C54.2658 101.973 54.4478 101.017 54.8118 100.13C55.1758 99.234 55.6751 98.45 56.3098 97.778C56.9538 97.0967 57.7004 96.5647 58.5498 96.182C59.3991 95.7993 60.3044 95.608 61.2658 95.608C62.5538 95.608 63.7251 95.9393 64.7798 96.602C65.8438 97.2647 66.6884 98.156 67.3138 99.276C67.9484 100.396 68.2658 101.637 68.2658 103C68.2658 104.017 68.0838 104.969 67.7198 105.856C67.3558 106.743 66.8518 107.527 66.2078 108.208C65.5731 108.88 64.8311 109.407 63.9818 109.79C63.1418 110.173 62.2364 110.364 61.2658 110.364ZM61.2658 107.452C62.0404 107.452 62.7358 107.247 63.3518 106.836C63.9678 106.425 64.4531 105.884 64.8078 105.212C65.1718 104.531 65.3538 103.793 65.3538 103C65.3538 102.188 65.1671 101.441 64.7938 100.76C64.4298 100.079 63.9398 99.5373 63.3238 99.136C62.7078 98.7253 62.0218 98.52 61.2658 98.52C60.5004 98.52 59.8051 98.7253 59.1798 99.136C58.5638 99.5467 58.0738 100.093 57.7098 100.774C57.3551 101.455 57.1778 102.197 57.1778 103C57.1778 103.831 57.3644 104.582 57.7378 105.254C58.1111 105.926 58.6058 106.463 59.2218 106.864C59.8471 107.256 60.5284 107.452 61.2658 107.452ZM77.6163 95.608C78.9789 95.608 80.2156 95.9393 81.3263 96.602C82.4463 97.2647 83.3376 98.156 84.0003 99.276C84.6629 100.387 84.9943 101.623 84.9943 102.986C84.9943 104.003 84.8029 104.96 84.4203 105.856C84.0376 106.743 83.5056 107.527 82.8243 108.208C82.1523 108.88 81.3683 109.407 80.4723 109.79C79.5856 110.173 78.6336 110.364 77.6163 110.364C76.6363 110.364 75.7776 110.14 75.0403 109.692C74.3123 109.235 73.7149 108.651 73.2483 107.942V110H70.3363V89H73.2483V98.03C73.7149 97.3113 74.3123 96.728 75.0403 96.28C75.7776 95.832 76.6363 95.608 77.6163 95.608ZM77.5883 107.536C78.4003 107.536 79.1423 107.331 79.8143 106.92C80.4863 106.509 81.0183 105.959 81.4103 105.268C81.8116 104.577 82.0123 103.817 82.0123 102.986C82.0123 102.137 81.8116 101.367 81.4103 100.676C81.0089 99.9853 80.4723 99.4393 79.8003 99.038C79.1283 98.6273 78.3909 98.422 77.5883 98.422C76.7763 98.422 76.0623 98.6273 75.4463 99.038C74.8303 99.4487 74.3496 99.9993 74.0043 100.69C73.6589 101.381 73.4863 102.146 73.4863 102.986C73.4863 103.826 73.6589 104.591 74.0043 105.282C74.3496 105.973 74.8303 106.523 75.4463 106.934C76.0623 107.335 76.7763 107.536 77.5883 107.536ZM98.1267 96H101.039V110H98.1127L98.0007 107.97C97.59 108.689 97.0347 109.267 96.3347 109.706C95.6347 110.145 94.8087 110.364 93.8567 110.364C92.83 110.364 91.864 110.173 90.9587 109.79C90.0534 109.398 89.2554 108.857 88.5647 108.166C87.8834 107.475 87.3514 106.682 86.9687 105.786C86.586 104.881 86.3947 103.91 86.3947 102.874C86.3947 101.875 86.5814 100.937 86.9547 100.06C87.328 99.1733 87.846 98.3987 88.5087 97.736C89.1714 97.0733 89.9367 96.5553 90.8047 96.182C91.682 95.7993 92.62 95.608 93.6187 95.608C94.636 95.608 95.532 95.8413 96.3067 96.308C97.0907 96.7653 97.7394 97.3533 98.2527 98.072L98.1267 96ZM93.7867 107.55C94.608 107.55 95.3267 107.349 95.9427 106.948C96.5587 106.537 97.0347 105.987 97.3707 105.296C97.716 104.605 97.8887 103.84 97.8887 103C97.8887 102.151 97.716 101.381 97.3707 100.69C97.0254 99.9993 96.5447 99.4533 95.9287 99.052C95.322 98.6413 94.608 98.436 93.7867 98.436C92.9747 98.436 92.2327 98.6413 91.5607 99.052C90.8887 99.4627 90.3567 100.013 89.9647 100.704C89.5727 101.395 89.3767 102.16 89.3767 103C89.3767 103.849 89.5774 104.619 89.9787 105.31C90.3894 105.991 90.926 106.537 91.5887 106.948C92.2607 107.349 92.9934 107.55 93.7867 107.55ZM103.942 110V89H106.854V110H103.942ZM27.68 144L31.474 124.4H33.826L38.852 137.602L43.85 124.4H46.202L50.01 144H47.042L44.508 130.882L39.818 143.258H37.858L33.182 130.882L30.648 144H27.68ZM58.1759 144.364C56.8879 144.364 55.7119 144.033 54.6479 143.37C53.5933 142.707 52.7486 141.821 52.1139 140.71C51.4886 139.59 51.1759 138.353 51.1759 137C51.1759 135.973 51.3579 135.017 51.7219 134.13C52.0859 133.234 52.5853 132.45 53.2199 131.778C53.8639 131.097 54.6106 130.565 55.4599 130.182C56.3093 129.799 57.2146 129.608 58.1759 129.608C59.4639 129.608 60.6353 129.939 61.6899 130.602C62.7539 131.265 63.5986 132.156 64.2239 133.276C64.8586 134.396 65.1759 135.637 65.1759 137C65.1759 138.017 64.9939 138.969 64.6299 139.856C64.2659 140.743 63.7619 141.527 63.1179 142.208C62.4833 142.88 61.7413 143.407 60.8919 143.79C60.0519 144.173 59.1466 144.364 58.1759 144.364ZM58.1759 141.452C58.9506 141.452 59.6459 141.247 60.2619 140.836C60.8779 140.425 61.3633 139.884 61.7179 139.212C62.0819 138.531 62.2639 137.793 62.2639 137C62.2639 136.188 62.0773 135.441 61.7039 134.76C61.3399 134.079 60.8499 133.537 60.2339 133.136C59.6179 132.725 58.9319 132.52 58.1759 132.52C57.4106 132.52 56.7153 132.725 56.0899 133.136C55.4739 133.547 54.9839 134.093 54.6199 134.774C54.2653 135.455 54.0879 136.197 54.0879 137C54.0879 137.831 54.2746 138.582 54.6479 139.254C55.0213 139.926 55.5159 140.463 56.1319 140.864C56.7573 141.256 57.4386 141.452 58.1759 141.452ZM80.0378 135.222V144H77.1258V135.936C77.1258 135.311 76.9718 134.741 76.6638 134.228C76.3651 133.715 75.9591 133.309 75.4458 133.01C74.9418 132.702 74.3725 132.548 73.7378 132.548C73.1218 132.548 72.5571 132.702 72.0438 133.01C71.5305 133.309 71.1198 133.715 70.8118 134.228C70.5038 134.741 70.3498 135.311 70.3498 135.936V144H67.4378V130H70.3498V131.484C70.8351 130.905 71.4325 130.448 72.1418 130.112C72.8511 129.776 73.6165 129.608 74.4378 129.608C75.4738 129.608 76.4165 129.86 77.2658 130.364C78.1151 130.868 78.7871 131.545 79.2818 132.394C79.7858 133.243 80.0378 134.186 80.0378 135.222ZM88.7189 144.364C87.4309 144.364 86.2549 144.033 85.1909 143.37C84.1362 142.707 83.2916 141.821 82.6569 140.71C82.0316 139.59 81.7189 138.353 81.7189 137C81.7189 135.973 81.9009 135.017 82.2649 134.13C82.6289 133.234 83.1282 132.45 83.7629 131.778C84.4069 131.097 85.1536 130.565 86.0029 130.182C86.8522 129.799 87.7576 129.608 88.7189 129.608C89.7922 129.608 90.7769 129.832 91.6729 130.28C92.5689 130.719 93.3342 131.33 93.9689 132.114C94.6036 132.889 95.0702 133.785 95.3689 134.802C95.6676 135.81 95.7562 136.883 95.6349 138.022H84.8409C84.9622 138.666 85.1956 139.249 85.5409 139.772C85.8956 140.285 86.3436 140.691 86.8849 140.99C87.4356 141.289 88.0469 141.443 88.7189 141.452C89.4282 141.452 90.0722 141.275 90.6509 140.92C91.2389 140.565 91.7196 140.075 92.0929 139.45L95.0469 140.136C94.4869 141.377 93.6422 142.395 92.5129 143.188C91.3836 143.972 90.1189 144.364 88.7189 144.364ZM84.7429 135.796H92.6949C92.6016 135.124 92.3636 134.517 91.9809 133.976C91.6076 133.425 91.1362 132.991 90.5669 132.674C90.0069 132.347 89.3909 132.184 88.7189 132.184C88.0562 132.184 87.4402 132.343 86.8709 132.66C86.3109 132.977 85.8442 133.411 85.4709 133.962C85.1069 134.503 84.8642 135.115 84.7429 135.796ZM106.696 130H109.804L102.132 151H99.0378L101.572 144L96.5458 130H99.7238L103.028 140.01L106.696 130ZM42.506 158.4V161.312H36.262V178H33.35V161.312H27.12V158.4H42.506ZM43.2933 178V164H46.2053V165.484C46.6906 164.905 47.2879 164.448 47.9973 164.112C48.7066 163.776 49.4719 163.608 50.2933 163.608C50.8159 163.608 51.3339 163.678 51.8473 163.818L50.6853 166.758C50.3213 166.618 49.9573 166.548 49.5933 166.548C48.9773 166.548 48.4126 166.702 47.8993 167.01C47.3859 167.309 46.9753 167.715 46.6673 168.228C46.3593 168.741 46.2053 169.311 46.2053 169.936V178H43.2933ZM63.7009 164H66.6129V178H63.6869L63.5749 175.97C63.1642 176.689 62.6089 177.267 61.9089 177.706C61.2089 178.145 60.3829 178.364 59.4309 178.364C58.4042 178.364 57.4382 178.173 56.5329 177.79C55.6276 177.398 54.8296 176.857 54.1389 176.166C53.4576 175.475 52.9256 174.682 52.5429 173.786C52.1602 172.881 51.9689 171.91 51.9689 170.874C51.9689 169.875 52.1556 168.937 52.5289 168.06C52.9022 167.173 53.4202 166.399 54.0829 165.736C54.7456 165.073 55.5109 164.555 56.3789 164.182C57.2562 163.799 58.1942 163.608 59.1929 163.608C60.2102 163.608 61.1062 163.841 61.8809 164.308C62.6649 164.765 63.3136 165.353 63.8269 166.072L63.7009 164ZM59.3609 175.55C60.1822 175.55 60.9009 175.349 61.5169 174.948C62.1329 174.537 62.6089 173.987 62.9449 173.296C63.2902 172.605 63.4629 171.84 63.4629 171C63.4629 170.151 63.2902 169.381 62.9449 168.69C62.5996 167.999 62.1189 167.453 61.5029 167.052C60.8962 166.641 60.1822 166.436 59.3609 166.436C58.5489 166.436 57.8069 166.641 57.1349 167.052C56.4629 167.463 55.9309 168.013 55.5389 168.704C55.1469 169.395 54.9509 170.16 54.9509 171C54.9509 171.849 55.1516 172.619 55.5529 173.31C55.9636 173.991 56.5002 174.537 57.1629 174.948C57.8349 175.349 58.5676 175.55 59.3609 175.55ZM82.0066 169.222V178H79.0946V169.936C79.0946 169.311 78.9406 168.741 78.6326 168.228C78.3339 167.715 77.9279 167.309 77.4146 167.01C76.9106 166.702 76.3412 166.548 75.7066 166.548C75.0906 166.548 74.5259 166.702 74.0126 167.01C73.4992 167.309 73.0886 167.715 72.7806 168.228C72.4726 168.741 72.3186 169.311 72.3186 169.936V178H69.4066V164H72.3186V165.484C72.8039 164.905 73.4012 164.448 74.1106 164.112C74.8199 163.776 75.5852 163.608 76.4066 163.608C77.4426 163.608 78.3852 163.86 79.2346 164.364C80.0839 164.868 80.7559 165.545 81.2506 166.394C81.7546 167.243 82.0066 168.186 82.0066 169.222ZM89.0011 178.266C88.2638 178.219 87.5451 178.07 86.8451 177.818C86.1451 177.566 85.5291 177.225 84.9971 176.796C84.4744 176.357 84.0824 175.844 83.8211 175.256L86.2991 174.192C86.4204 174.444 86.6304 174.691 86.9291 174.934C87.2371 175.177 87.5964 175.377 88.0071 175.536C88.4178 175.685 88.8471 175.76 89.2951 175.76C89.7338 175.76 90.1398 175.699 90.5131 175.578C90.8958 175.447 91.2084 175.251 91.4511 174.99C91.6938 174.729 91.8151 174.416 91.8151 174.052C91.8151 173.641 91.6751 173.324 91.3951 173.1C91.1244 172.867 90.7838 172.689 90.3731 172.568C89.9624 172.447 89.5518 172.33 89.1411 172.218C88.2264 172.013 87.3864 171.733 86.6211 171.378C85.8651 171.014 85.2631 170.552 84.8151 169.992C84.3671 169.423 84.1431 168.727 84.1431 167.906C84.1431 167.01 84.3858 166.235 84.8711 165.582C85.3564 164.919 85.9911 164.411 86.7751 164.056C87.5684 163.701 88.4131 163.524 89.3091 163.524C90.4291 163.524 91.4558 163.762 92.3891 164.238C93.3224 164.714 94.0364 165.367 94.5311 166.198L92.2211 167.57C92.0811 167.29 91.8711 167.038 91.5911 166.814C91.3111 166.59 90.9938 166.413 90.6391 166.282C90.2844 166.142 89.9158 166.063 89.5331 166.044C89.0571 166.025 88.6138 166.081 88.2031 166.212C87.8018 166.333 87.4798 166.529 87.2371 166.8C86.9944 167.071 86.8731 167.416 86.8731 167.836C86.8731 168.247 87.0178 168.555 87.3071 168.76C87.5964 168.956 87.9604 169.115 88.3991 169.236C88.8471 169.357 89.3044 169.493 89.7711 169.642C90.6018 169.903 91.3811 170.225 92.1091 170.608C92.8371 170.981 93.4251 171.443 93.8731 171.994C94.3211 172.545 94.5358 173.217 94.5171 174.01C94.5171 174.887 94.2511 175.657 93.7191 176.32C93.1964 176.983 92.5151 177.487 91.6751 177.832C90.8351 178.177 89.9438 178.322 89.0011 178.266ZM100.512 160.822V164H104.46V166.912H100.512V178H97.6004V166.912H95.9344V164H97.6004V160.822C97.6004 160.057 97.787 159.361 98.1604 158.736C98.5337 158.101 99.033 157.597 99.6584 157.224C100.293 156.851 100.998 156.664 101.772 156.664C102.332 156.664 102.878 156.776 103.41 157C103.942 157.224 104.418 157.569 104.838 158.036L102.752 160.094C102.65 159.926 102.505 159.8 102.318 159.716C102.141 159.623 101.959 159.576 101.772 159.576C101.427 159.576 101.128 159.697 100.876 159.94C100.634 160.183 100.512 160.477 100.512 160.822ZM112.59 178.364C111.302 178.364 110.126 178.033 109.062 177.37C108.007 176.707 107.163 175.821 106.528 174.71C105.903 173.59 105.59 172.353 105.59 171C105.59 169.973 105.772 169.017 106.136 168.13C106.5 167.234 106.999 166.45 107.634 165.778C108.278 165.097 109.025 164.565 109.874 164.182C110.723 163.799 111.629 163.608 112.59 163.608C113.663 163.608 114.648 163.832 115.544 164.28C116.44 164.719 117.205 165.33 117.84 166.114C118.475 166.889 118.941 167.785 119.24 168.802C119.539 169.81 119.627 170.883 119.506 172.022H108.712C108.833 172.666 109.067 173.249 109.412 173.772C109.767 174.285 110.215 174.691 110.756 174.99C111.307 175.289 111.918 175.443 112.59 175.452C113.299 175.452 113.943 175.275 114.522 174.92C115.11 174.565 115.591 174.075 115.964 173.45L118.918 174.136C118.358 175.377 117.513 176.395 116.384 177.188C115.255 177.972 113.99 178.364 112.59 178.364ZM108.614 169.796H116.566C116.473 169.124 116.235 168.517 115.852 167.976C115.479 167.425 115.007 166.991 114.438 166.674C113.878 166.347 113.262 166.184 112.59 166.184C111.927 166.184 111.311 166.343 110.742 166.66C110.182 166.977 109.715 167.411 109.342 167.962C108.978 168.503 108.735 169.115 108.614 169.796ZM121.825 178V164H124.737V165.484C125.222 164.905 125.819 164.448 126.529 164.112C127.238 163.776 128.003 163.608 128.825 163.608C129.347 163.608 129.865 163.678 130.379 163.818L129.217 166.758C128.853 166.618 128.489 166.548 128.125 166.548C127.509 166.548 126.944 166.702 126.431 167.01C125.917 167.309 125.507 167.715 125.199 168.228C124.891 168.741 124.737 169.311 124.737 169.936V178H121.825Z" fill="white"/>
</g>
<defs>
<linearGradient id="paint0_linear_2_1668" x1="120.5" y1="0" x2="120.5" y2="220" gradientUnits="userSpaceOnUse">
<stop offset="0.270833" stop-color="#13B6FB"/>
<stop offset="0.833333" stop-color="#1E80F5"/>
</linearGradient>
</defs>
</svg>
