<svg width="241" height="220" viewBox="0 0 241 220" fill="none" xmlns="http://www.w3.org/2000/svg">
<mask id="mask0_2_1674" style="mask-type:alpha" maskUnits="userSpaceOnUse" x="0" y="0" width="241" height="220">
<rect width="241" height="220" rx="17" fill="#128FF8"/>
</mask>
<g mask="url(#mask0_2_1674)">
<rect width="241" height="220" rx="17" fill="#1E80F5"/>
<path d="M31.427 65.234C30.683 65.234 30.011 65.066 29.411 64.73C28.817 64.388 28.304 63.917 27.872 63.317C27.44 62.717 27.11 62.024 26.882 61.238C26.654 60.446 26.54 59.6 26.54 58.7C26.54 57.8 26.654 56.954 26.882 56.162C27.11 55.37 27.44 54.677 27.872 54.083C28.304 53.483 28.817 53.015 29.411 52.679C30.011 52.337 30.683 52.166 31.427 52.166C32.159 52.166 32.825 52.337 33.425 52.679C34.025 53.015 34.535 53.483 34.955 54.083C35.381 54.677 35.708 55.37 35.936 56.162C36.164 56.954 36.278 57.8 36.278 58.7C36.278 59.6 36.164 60.446 35.936 61.238C35.708 62.024 35.381 62.717 34.955 63.317C34.535 63.917 34.025 64.388 33.425 64.73C32.825 65.066 32.159 65.234 31.427 65.234ZM31.427 63.362C32.117 63.362 32.69 63.146 33.146 62.714C33.608 62.276 33.953 61.703 34.181 60.995C34.409 60.287 34.523 59.522 34.523 58.7C34.523 57.836 34.403 57.053 34.163 56.351C33.929 55.643 33.581 55.082 33.119 54.668C32.663 54.248 32.099 54.038 31.427 54.038C30.893 54.038 30.428 54.164 30.032 54.416C29.642 54.668 29.318 55.013 29.06 55.451C28.808 55.889 28.616 56.387 28.484 56.945C28.358 57.503 28.295 58.088 28.295 58.7C28.295 59.522 28.412 60.287 28.646 60.995C28.88 61.703 29.228 62.276 29.69 62.714C30.158 63.146 30.737 63.362 31.427 63.362ZM39.6095 65L42.1565 60.59C41.5505 60.704 40.9595 60.68 40.3835 60.518C39.8135 60.35 39.3005 60.077 38.8445 59.699C38.3885 59.315 38.0255 58.85 37.7555 58.304C37.4855 57.758 37.3505 57.158 37.3505 56.504C37.3505 55.91 37.4615 55.352 37.6835 54.83C37.9115 54.302 38.2235 53.84 38.6195 53.444C39.0155 53.042 39.4745 52.73 39.9965 52.508C40.5245 52.28 41.0885 52.166 41.6885 52.166C42.4745 52.166 43.1945 52.361 43.8485 52.751C44.5025 53.141 45.0245 53.666 45.4145 54.326C45.8045 54.98 45.9995 55.706 45.9995 56.504C45.9995 56.918 45.9485 57.296 45.8465 57.638C45.7505 57.98 45.5975 58.34 45.3875 58.718L41.7785 65H39.6095ZM41.6705 58.961C42.1505 58.961 42.5765 58.847 42.9485 58.619C43.3205 58.385 43.6115 58.082 43.8215 57.71C44.0375 57.332 44.1455 56.927 44.1455 56.495C44.1455 56.027 44.0315 55.607 43.8035 55.235C43.5755 54.863 43.2725 54.569 42.8945 54.353C42.5225 54.137 42.1205 54.029 41.6885 54.029C41.2085 54.029 40.7825 54.146 40.4105 54.38C40.0385 54.614 39.7445 54.92 39.5285 55.298C39.3125 55.67 39.2045 56.069 39.2045 56.495C39.2045 56.945 39.3125 57.359 39.5285 57.737C39.7505 58.109 40.0475 58.406 40.4195 58.628C40.7915 58.85 41.2085 58.961 41.6705 58.961ZM48.2323 65.234C47.9563 65.234 47.7223 65.138 47.5303 64.946C47.3443 64.754 47.2513 64.52 47.2513 64.244C47.2513 63.974 47.3443 63.743 47.5303 63.551C47.7223 63.359 47.9563 63.263 48.2323 63.263C48.5083 63.263 48.7423 63.359 48.9343 63.551C49.1263 63.743 49.2223 63.974 49.2223 64.244C49.2223 64.52 49.1263 64.754 48.9343 64.946C48.7423 65.138 48.5083 65.234 48.2323 65.234Z" fill="white"/>
<path d="M42.506 90.4V93.312H36.262V110H33.35V93.312H27.12V90.4H42.506ZM43.2933 110V96H46.2053V97.484C46.6906 96.9053 47.2879 96.448 47.9973 96.112C48.7066 95.776 49.4719 95.608 50.2933 95.608C50.8159 95.608 51.3339 95.678 51.8473 95.818L50.6853 98.758C50.3213 98.618 49.9573 98.548 49.5933 98.548C48.9773 98.548 48.4126 98.702 47.8993 99.01C47.3859 99.3087 46.9753 99.7147 46.6673 100.228C46.3593 100.741 46.2053 101.311 46.2053 101.936V110H43.2933ZM52.9872 104.75V96H55.8992V104.036C55.8992 104.661 56.0532 105.231 56.3612 105.744C56.6692 106.257 57.0799 106.668 57.5932 106.976C58.1065 107.275 58.6712 107.424 59.2872 107.424C59.9125 107.424 60.4772 107.275 60.9812 106.976C61.4945 106.668 61.9005 106.257 62.1992 105.744C62.5072 105.231 62.6612 104.661 62.6612 104.036V96H65.5732L65.5872 110H62.6752L62.6612 108.488C62.1852 109.067 61.5925 109.524 60.8832 109.86C60.1739 110.196 59.4132 110.364 58.6012 110.364C57.5652 110.364 56.6225 110.112 55.7732 109.608C54.9239 109.104 54.2472 108.427 53.7432 107.578C53.2392 106.729 52.9872 105.786 52.9872 104.75ZM74.3634 110.364C73.0754 110.364 71.8994 110.033 70.8354 109.37C69.7808 108.707 68.9361 107.821 68.3014 106.71C67.6761 105.59 67.3634 104.353 67.3634 103C67.3634 101.973 67.5454 101.017 67.9094 100.13C68.2734 99.234 68.7728 98.45 69.4074 97.778C70.0514 97.0967 70.7981 96.5647 71.6474 96.182C72.4968 95.7993 73.4021 95.608 74.3634 95.608C75.4368 95.608 76.4214 95.832 77.3174 96.28C78.2134 96.7187 78.9788 97.33 79.6134 98.114C80.2481 98.8887 80.7148 99.7847 81.0134 100.802C81.3121 101.81 81.4008 102.883 81.2794 104.022H70.4854C70.6068 104.666 70.8401 105.249 71.1854 105.772C71.5401 106.285 71.9881 106.691 72.5294 106.99C73.0801 107.289 73.6914 107.443 74.3634 107.452C75.0728 107.452 75.7168 107.275 76.2954 106.92C76.8834 106.565 77.3641 106.075 77.7374 105.45L80.6914 106.136C80.1314 107.377 79.2868 108.395 78.1574 109.188C77.0281 109.972 75.7634 110.364 74.3634 110.364ZM70.3874 101.796H78.3394C78.2461 101.124 78.0081 100.517 77.6254 99.976C77.2521 99.4253 76.7808 98.9913 76.2114 98.674C75.6514 98.3473 75.0354 98.184 74.3634 98.184C73.7008 98.184 73.0848 98.3427 72.5154 98.66C71.9554 98.9773 71.4888 99.4113 71.1154 99.962C70.7514 100.503 70.5088 101.115 70.3874 101.796ZM27.68 144L31.474 124.4H33.826L38.852 137.602L43.85 124.4H46.202L50.01 144H47.042L44.508 130.882L39.818 143.258H37.858L33.182 130.882L30.648 144H27.68ZM52.5223 138.75V130H55.4343V138.036C55.4343 138.661 55.5883 139.231 55.8963 139.744C56.2043 140.257 56.615 140.668 57.1283 140.976C57.6417 141.275 58.2063 141.424 58.8223 141.424C59.4477 141.424 60.0123 141.275 60.5163 140.976C61.0297 140.668 61.4357 140.257 61.7343 139.744C62.0423 139.231 62.1963 138.661 62.1963 138.036V130H65.1083L65.1223 144H62.2103L62.1963 142.488C61.7203 143.067 61.1277 143.524 60.4183 143.86C59.709 144.196 58.9483 144.364 58.1363 144.364C57.1003 144.364 56.1577 144.112 55.3083 143.608C54.459 143.104 53.7823 142.427 53.2783 141.578C52.7743 140.729 52.5223 139.786 52.5223 138.75ZM68.0394 144V123H70.9514V144H68.0394ZM81.6931 132.912H78.7531L78.7391 144H75.8271L75.8411 132.912H73.6151V130H75.8411L75.8271 125.604H78.7391L78.7531 130H81.6931V132.912ZM84.0081 130H86.9201V144H84.0081V130ZM85.4921 127.97C85.0441 127.97 84.6708 127.825 84.3721 127.536C84.0735 127.247 83.9241 126.883 83.9241 126.444C83.9241 126.015 84.0735 125.655 84.3721 125.366C84.6708 125.067 85.0395 124.918 85.4781 124.918C85.9075 124.918 86.2715 125.067 86.5701 125.366C86.8688 125.655 87.0181 126.015 87.0181 126.444C87.0181 126.883 86.8688 127.247 86.5701 127.536C86.2808 127.825 85.9215 127.97 85.4921 127.97ZM90.2698 134.144H99.2298V137.056H90.2698V134.144ZM111.744 140.024L114.348 141.438C113.713 142.325 112.906 143.034 111.926 143.566C110.955 144.098 109.901 144.364 108.762 144.364C107.474 144.364 106.298 144.033 105.234 143.37C104.179 142.707 103.335 141.821 102.7 140.71C102.075 139.59 101.762 138.353 101.762 137C101.762 135.973 101.944 135.017 102.308 134.13C102.672 133.234 103.171 132.45 103.806 131.778C104.45 131.097 105.197 130.565 106.046 130.182C106.895 129.799 107.801 129.608 108.762 129.608C109.901 129.608 110.955 129.874 111.926 130.406C112.906 130.938 113.713 131.652 114.348 132.548L111.744 133.962C111.352 133.495 110.895 133.141 110.372 132.898C109.849 132.646 109.313 132.52 108.762 132.52C107.997 132.52 107.301 132.73 106.676 133.15C106.06 133.561 105.57 134.107 105.206 134.788C104.851 135.46 104.674 136.197 104.674 137C104.674 137.793 104.856 138.531 105.22 139.212C105.584 139.884 106.074 140.425 106.69 140.836C107.315 141.247 108.006 141.452 108.762 141.452C109.341 141.452 109.891 141.321 110.414 141.06C110.937 140.799 111.38 140.453 111.744 140.024ZM129.12 135.222V144H126.208V135.936C126.208 135.311 126.054 134.741 125.746 134.228C125.447 133.715 125.041 133.309 124.528 133.01C124.024 132.702 123.455 132.548 122.82 132.548C122.204 132.548 121.639 132.702 121.126 133.01C120.613 133.309 120.202 133.715 119.894 134.228C119.586 134.741 119.432 135.311 119.432 135.936V144H116.52V123H119.432V131.484C119.917 130.905 120.515 130.448 121.224 130.112C121.933 129.776 122.699 129.608 123.52 129.608C124.556 129.608 125.499 129.86 126.348 130.364C127.197 130.868 127.869 131.545 128.364 132.394C128.868 133.243 129.12 134.186 129.12 135.222ZM142.533 130H145.445V144H142.519L142.407 141.97C141.996 142.689 141.441 143.267 140.741 143.706C140.041 144.145 139.215 144.364 138.263 144.364C137.236 144.364 136.27 144.173 135.365 143.79C134.46 143.398 133.662 142.857 132.971 142.166C132.29 141.475 131.758 140.682 131.375 139.786C130.992 138.881 130.801 137.91 130.801 136.874C130.801 135.875 130.988 134.937 131.361 134.06C131.734 133.173 132.252 132.399 132.915 131.736C133.578 131.073 134.343 130.555 135.211 130.182C136.088 129.799 137.026 129.608 138.025 129.608C139.042 129.608 139.938 129.841 140.713 130.308C141.497 130.765 142.146 131.353 142.659 132.072L142.533 130ZM138.193 141.55C139.014 141.55 139.733 141.349 140.349 140.948C140.965 140.537 141.441 139.987 141.777 139.296C142.122 138.605 142.295 137.84 142.295 137C142.295 136.151 142.122 135.381 141.777 134.69C141.432 133.999 140.951 133.453 140.335 133.052C139.728 132.641 139.014 132.436 138.193 132.436C137.381 132.436 136.639 132.641 135.967 133.052C135.295 133.463 134.763 134.013 134.371 134.704C133.979 135.395 133.783 136.16 133.783 137C133.783 137.849 133.984 138.619 134.385 139.31C134.796 139.991 135.332 140.537 135.995 140.948C136.667 141.349 137.4 141.55 138.193 141.55ZM148.239 130H151.151V144H148.239V130ZM149.723 127.97C149.275 127.97 148.901 127.825 148.603 127.536C148.304 127.247 148.155 126.883 148.155 126.444C148.155 126.015 148.304 125.655 148.603 125.366C148.901 125.067 149.27 124.918 149.709 124.918C150.138 124.918 150.502 125.067 150.801 125.366C151.099 125.655 151.249 126.015 151.249 126.444C151.249 126.883 151.099 127.247 150.801 127.536C150.511 127.825 150.152 127.97 149.723 127.97ZM166.991 135.222V144H164.079V135.936C164.079 135.311 163.925 134.741 163.617 134.228C163.318 133.715 162.912 133.309 162.399 133.01C161.895 132.702 161.326 132.548 160.691 132.548C160.075 132.548 159.51 132.702 158.997 133.01C158.484 133.309 158.073 133.715 157.765 134.228C157.457 134.741 157.303 135.311 157.303 135.936V144H154.391V130H157.303V131.484C157.788 130.905 158.386 130.448 159.095 130.112C159.804 129.776 160.57 129.608 161.391 129.608C162.427 129.608 163.37 129.86 164.219 130.364C165.068 130.868 165.74 131.545 166.235 132.394C166.739 133.243 166.991 134.186 166.991 135.222Z" fill="white"/>
</g>
</svg>
