<svg width="241" height="220" viewBox="0 0 241 220" fill="none" xmlns="http://www.w3.org/2000/svg">
<mask id="mask0_2_1675" style="mask-type:alpha" maskUnits="userSpaceOnUse" x="0" y="0" width="241" height="220">
<rect width="241" height="220" rx="17" fill="#128FF8"/>
</mask>
<g mask="url(#mask0_2_1675)">
<rect width="241" height="220" rx="17" fill="#1E80F5"/>
<path d="M28.223 65V54.272H26.72L27.233 52.4H30.095V65H28.223ZM36.9641 65.234C36.2201 65.234 35.5481 65.066 34.9481 64.73C34.3541 64.388 33.8411 63.917 33.4091 63.317C32.9771 62.717 32.6471 62.024 32.4191 61.238C32.1911 60.446 32.0771 59.6 32.0771 58.7C32.0771 57.8 32.1911 56.954 32.4191 56.162C32.6471 55.37 32.9771 54.677 33.4091 54.083C33.8411 53.483 34.3541 53.015 34.9481 52.679C35.5481 52.337 36.2201 52.166 36.9641 52.166C37.6961 52.166 38.3621 52.337 38.9621 52.679C39.5621 53.015 40.0721 53.483 40.4921 54.083C40.9181 54.677 41.2451 55.37 41.4731 56.162C41.7011 56.954 41.8151 57.8 41.8151 58.7C41.8151 59.6 41.7011 60.446 41.4731 61.238C41.2451 62.024 40.9181 62.717 40.4921 63.317C40.0721 63.917 39.5621 64.388 38.9621 64.73C38.3621 65.066 37.6961 65.234 36.9641 65.234ZM36.9641 63.362C37.6541 63.362 38.2271 63.146 38.6831 62.714C39.1451 62.276 39.4901 61.703 39.7181 60.995C39.9461 60.287 40.0601 59.522 40.0601 58.7C40.0601 57.836 39.9401 57.053 39.7001 56.351C39.4661 55.643 39.1181 55.082 38.6561 54.668C38.2001 54.248 37.6361 54.038 36.9641 54.038C36.4301 54.038 35.9651 54.164 35.5691 54.416C35.1791 54.668 34.8551 55.013 34.5971 55.451C34.3451 55.889 34.1531 56.387 34.0211 56.945C33.8951 57.503 33.8321 58.088 33.8321 58.7C33.8321 59.522 33.9491 60.287 34.1831 60.995C34.4171 61.703 34.7651 62.276 35.2271 62.714C35.6951 63.146 36.2741 63.362 36.9641 63.362ZM44.0487 65.234C43.7727 65.234 43.5387 65.138 43.3467 64.946C43.1607 64.754 43.0677 64.52 43.0677 64.244C43.0677 63.974 43.1607 63.743 43.3467 63.551C43.5387 63.359 43.7727 63.263 44.0487 63.263C44.3247 63.263 44.5587 63.359 44.7507 63.551C44.9427 63.743 45.0387 63.974 45.0387 64.244C45.0387 64.52 44.9427 64.754 44.7507 64.946C44.5587 65.138 44.3247 65.234 44.0487 65.234Z" fill="white"/>
<path d="M27.68 110V90.4H30.83L39.832 104.736V90.4H42.744V110H39.594L30.592 95.664V110H27.68ZM46.1097 110V90.4H57.6597V93.312H49.0217V98.044H56.3157V100.956H49.0217V110H46.1097ZM74.4435 90.4V93.312H68.1995V110H65.2875V93.312H59.0575V90.4H74.4435ZM83.9808 110V90.4H96.1468V93.312H86.8928V98.044H94.3408V100.956H86.8928V107.088H96.1468V110H83.9808ZM99.2386 110V96H102.151V97.484C102.636 96.9053 103.229 96.448 103.929 96.112C104.638 95.776 105.403 95.608 106.225 95.608C107.223 95.608 108.143 95.8507 108.983 96.336C109.823 96.812 110.49 97.4467 110.985 98.24C111.479 97.4467 112.137 96.812 112.959 96.336C113.789 95.8507 114.704 95.608 115.703 95.608C116.739 95.608 117.681 95.86 118.531 96.364C119.38 96.868 120.057 97.5447 120.561 98.394C121.065 99.2433 121.317 100.186 121.317 101.222V110H118.405V101.964C118.405 101.348 118.255 100.783 117.957 100.27C117.658 99.7567 117.257 99.3413 116.753 99.024C116.249 98.7067 115.689 98.548 115.073 98.548C114.457 98.548 113.897 98.6973 113.393 98.996C112.889 99.2947 112.487 99.7007 112.189 100.214C111.89 100.727 111.741 101.311 111.741 101.964V110H108.829V101.964C108.829 101.311 108.679 100.727 108.381 100.214C108.082 99.7007 107.676 99.2947 107.163 98.996C106.659 98.6973 106.099 98.548 105.483 98.548C104.876 98.548 104.316 98.7067 103.803 99.024C103.299 99.3413 102.897 99.7567 102.599 100.27C102.3 100.783 102.151 101.348 102.151 101.964V110H99.2386ZM130.008 110.364C128.72 110.364 127.544 110.033 126.48 109.37C125.425 108.707 124.581 107.821 123.946 106.71C123.321 105.59 123.008 104.353 123.008 103C123.008 101.973 123.19 101.017 123.554 100.13C123.918 99.234 124.417 98.45 125.052 97.778C125.696 97.0967 126.443 96.5647 127.292 96.182C128.141 95.7993 129.047 95.608 130.008 95.608C131.296 95.608 132.467 95.9393 133.522 96.602C134.586 97.2647 135.431 98.156 136.056 99.276C136.691 100.396 137.008 101.637 137.008 103C137.008 104.017 136.826 104.969 136.462 105.856C136.098 106.743 135.594 107.527 134.95 108.208C134.315 108.88 133.573 109.407 132.724 109.79C131.884 110.173 130.979 110.364 130.008 110.364ZM130.008 107.452C130.783 107.452 131.478 107.247 132.094 106.836C132.71 106.425 133.195 105.884 133.55 105.212C133.914 104.531 134.096 103.793 134.096 103C134.096 102.188 133.909 101.441 133.536 100.76C133.172 100.079 132.682 99.5373 132.066 99.136C131.45 98.7253 130.764 98.52 130.008 98.52C129.243 98.52 128.547 98.7253 127.922 99.136C127.306 99.5467 126.816 100.093 126.452 100.774C126.097 101.455 125.92 102.197 125.92 103C125.92 103.831 126.107 104.582 126.48 105.254C126.853 105.926 127.348 106.463 127.964 106.864C128.589 107.256 129.271 107.452 130.008 107.452ZM136.552 117V114.088C137.14 114.088 137.667 113.953 138.134 113.682C138.61 113.421 138.983 113.057 139.254 112.59C139.534 112.123 139.674 111.605 139.674 111.036V96H142.586V111.036C142.586 112.128 142.32 113.127 141.788 114.032C141.256 114.937 140.533 115.656 139.618 116.188C138.713 116.729 137.691 117 136.552 117ZM141.158 93.97C140.71 93.97 140.337 93.8253 140.038 93.536C139.739 93.2467 139.59 92.8827 139.59 92.444C139.59 92.0147 139.739 91.6553 140.038 91.366C140.337 91.0673 140.705 90.918 141.144 90.918C141.573 90.918 141.937 91.0673 142.236 91.366C142.535 91.6553 142.684 92.0147 142.684 92.444C142.684 92.8827 142.535 93.2467 142.236 93.536C141.947 93.8253 141.587 93.97 141.158 93.97ZM145.696 96H148.608V110H145.696V96ZM147.18 93.97C146.732 93.97 146.358 93.8253 146.06 93.536C145.761 93.2467 145.612 92.8827 145.612 92.444C145.612 92.0147 145.761 91.6553 146.06 91.366C146.358 91.0673 146.727 90.918 147.166 90.918C147.595 90.918 147.959 91.0673 148.258 91.366C148.556 91.6553 148.706 92.0147 148.706 92.444C148.706 92.8827 148.556 93.2467 148.258 93.536C147.968 93.8253 147.609 93.97 147.18 93.97ZM33.028 144.364C31.8893 144.364 30.872 144.089 29.976 143.538C29.0893 142.987 28.3893 142.264 27.876 141.368C27.372 140.463 27.12 139.487 27.12 138.442C27.12 137.845 27.176 137.322 27.288 136.874C27.4093 136.426 27.61 135.987 27.89 135.558C28.1793 135.129 28.5713 134.648 29.066 134.116C29.57 133.584 30.2047 132.935 30.97 132.17C30.5407 131.731 30.1813 131.349 29.892 131.022C29.6027 130.695 29.374 130.392 29.206 130.112C29.038 129.823 28.9167 129.524 28.842 129.216C28.7767 128.908 28.744 128.558 28.744 128.166C28.744 127.345 28.94 126.612 29.332 125.968C29.724 125.315 30.2467 124.801 30.9 124.428C31.5533 124.045 32.2627 123.854 33.028 123.854C33.812 123.854 34.5307 124.05 35.184 124.442C35.8373 124.825 36.3553 125.343 36.738 125.996C37.13 126.64 37.326 127.363 37.326 128.166C37.326 128.567 37.2887 128.927 37.214 129.244C37.1393 129.552 37.0133 129.851 36.836 130.14C36.668 130.429 36.4393 130.737 36.15 131.064C35.8607 131.381 35.506 131.75 35.086 132.17L39.314 136.398L42.688 133.024V137.14L41.358 138.47L44.844 141.942L42.786 144L39.314 140.542C38.5393 141.317 37.8813 141.951 37.34 142.446C36.808 142.941 36.3273 143.328 35.898 143.608C35.4687 143.888 35.03 144.084 34.582 144.196C34.1433 144.308 33.6253 144.364 33.028 144.364ZM33.028 141.452C33.4013 141.452 33.7187 141.41 33.98 141.326C34.2507 141.233 34.526 141.079 34.806 140.864C35.086 140.64 35.4127 140.337 35.786 139.954C36.1687 139.562 36.6587 139.063 37.256 138.456L33.028 134.228C32.412 134.844 31.908 135.348 31.516 135.74C31.124 136.123 30.8207 136.449 30.606 136.72C30.4007 136.991 30.256 137.261 30.172 137.532C30.088 137.793 30.046 138.106 30.046 138.47C30.046 139.039 30.1813 139.548 30.452 139.996C30.732 140.444 31.096 140.799 31.544 141.06C32.0013 141.321 32.496 141.452 33.028 141.452ZM33.028 130.518C33.504 130.042 33.8633 129.687 34.106 129.454C34.358 129.211 34.526 129.001 34.61 128.824C34.7033 128.637 34.75 128.399 34.75 128.11C34.75 127.597 34.568 127.186 34.204 126.878C33.8493 126.561 33.4573 126.402 33.028 126.402C32.5613 126.402 32.16 126.57 31.824 126.906C31.488 127.242 31.32 127.643 31.32 128.11C31.32 128.399 31.3667 128.642 31.46 128.838C31.5627 129.025 31.7353 129.239 31.978 129.482C32.23 129.725 32.58 130.07 33.028 130.518ZM61.3535 144.364C60.2802 144.364 59.2488 144.196 58.2595 143.86C57.2702 143.524 56.4068 143.043 55.6695 142.418C54.9322 141.783 54.4048 141.032 54.0875 140.164L56.8175 139.142C56.9762 139.59 57.2795 139.991 57.7275 140.346C58.1848 140.691 58.7262 140.962 59.3515 141.158C59.9862 141.354 60.6535 141.452 61.3535 141.452C62.1002 141.452 62.8002 141.331 63.4535 141.088C64.1162 140.845 64.6482 140.509 65.0495 140.08C65.4602 139.651 65.6655 139.147 65.6655 138.568C65.6655 137.971 65.4508 137.481 65.0215 137.098C64.6015 136.715 64.0602 136.412 63.3975 136.188C62.7442 135.964 62.0628 135.796 61.3535 135.684C59.9815 135.46 58.7495 135.133 57.6575 134.704C56.5748 134.275 55.7162 133.673 55.0815 132.898C54.4562 132.123 54.1435 131.115 54.1435 129.874C54.1435 128.707 54.4748 127.69 55.1375 126.822C55.8095 125.954 56.6915 125.282 57.7835 124.806C58.8848 124.321 60.0748 124.078 61.3535 124.078C62.4082 124.078 63.4255 124.246 64.4055 124.582C65.3948 124.909 66.2628 125.389 67.0095 126.024C67.7655 126.649 68.3068 127.41 68.6335 128.306L65.8755 129.3C65.7168 128.843 65.4135 128.446 64.9655 128.11C64.5175 127.765 63.9762 127.494 63.3415 127.298C62.7162 127.102 62.0535 127.004 61.3535 127.004C60.6068 126.995 59.9068 127.116 59.2535 127.368C58.6095 127.611 58.0822 127.947 57.6715 128.376C57.2608 128.805 57.0555 129.305 57.0555 129.874C57.0555 130.574 57.2468 131.106 57.6295 131.47C58.0122 131.834 58.5255 132.105 59.1695 132.282C59.8228 132.45 60.5508 132.604 61.3535 132.744C62.6415 132.949 63.8315 133.29 64.9235 133.766C66.0248 134.242 66.9068 134.877 67.5695 135.67C68.2415 136.454 68.5775 137.42 68.5775 138.568C68.5775 139.725 68.2415 140.743 67.5695 141.62C66.9068 142.488 66.0248 143.165 64.9235 143.65C63.8315 144.126 62.6415 144.364 61.3535 144.364ZM78.8493 132.912H75.9093L75.8953 144H72.9833L72.9973 132.912H70.7713V130H72.9973L72.9833 125.604H75.8953L75.9093 130H78.8493V132.912ZM81.1644 130H84.0764V144H81.1644V130ZM82.6484 127.97C82.2004 127.97 81.827 127.825 81.5284 127.536C81.2297 127.247 81.0804 126.883 81.0804 126.444C81.0804 126.015 81.2297 125.655 81.5284 125.366C81.827 125.067 82.1957 124.918 82.6344 124.918C83.0637 124.918 83.4277 125.067 83.7264 125.366C84.025 125.655 84.1744 126.015 84.1744 126.444C84.1744 126.883 84.025 127.247 83.7264 127.536C83.437 127.825 83.0777 127.97 82.6484 127.97ZM96.322 140.024L98.926 141.438C98.2913 142.325 97.484 143.034 96.504 143.566C95.5333 144.098 94.4787 144.364 93.34 144.364C92.052 144.364 90.876 144.033 89.812 143.37C88.7573 142.707 87.9127 141.821 87.278 140.71C86.6527 139.59 86.34 138.353 86.34 137C86.34 135.973 86.522 135.017 86.886 134.13C87.25 133.234 87.7493 132.45 88.384 131.778C89.028 131.097 89.7747 130.565 90.624 130.182C91.4733 129.799 92.3787 129.608 93.34 129.608C94.4787 129.608 95.5333 129.874 96.504 130.406C97.484 130.938 98.2913 131.652 98.926 132.548L96.322 133.962C95.93 133.495 95.4727 133.141 94.95 132.898C94.4273 132.646 93.8907 132.52 93.34 132.52C92.5747 132.52 91.8793 132.73 91.254 133.15C90.638 133.561 90.148 134.107 89.784 134.788C89.4293 135.46 89.252 136.197 89.252 137C89.252 137.793 89.434 138.531 89.798 139.212C90.162 139.884 90.652 140.425 91.268 140.836C91.8933 141.247 92.584 141.452 93.34 141.452C93.9187 141.452 94.4693 141.321 94.992 141.06C95.5147 140.799 95.958 140.453 96.322 140.024ZM113.068 144H109.708L106.264 138.064L104.01 140.752V144H101.098V123H104.01V136.23L109.218 130H113.026L108.252 135.698L113.068 144ZM120.656 144.364C119.368 144.364 118.192 144.033 117.128 143.37C116.074 142.707 115.229 141.821 114.594 140.71C113.969 139.59 113.656 138.353 113.656 137C113.656 135.973 113.838 135.017 114.202 134.13C114.566 133.234 115.066 132.45 115.7 131.778C116.344 131.097 117.091 130.565 117.94 130.182C118.79 129.799 119.695 129.608 120.656 129.608C121.73 129.608 122.714 129.832 123.61 130.28C124.506 130.719 125.272 131.33 125.906 132.114C126.541 132.889 127.008 133.785 127.306 134.802C127.605 135.81 127.694 136.883 127.572 138.022H116.778C116.9 138.666 117.133 139.249 117.478 139.772C117.833 140.285 118.281 140.691 118.822 140.99C119.373 141.289 119.984 141.443 120.656 141.452C121.366 141.452 122.01 141.275 122.588 140.92C123.176 140.565 123.657 140.075 124.03 139.45L126.984 140.136C126.424 141.377 125.58 142.395 124.45 143.188C123.321 143.972 122.056 144.364 120.656 144.364ZM116.68 135.796H124.632C124.539 135.124 124.301 134.517 123.918 133.976C123.545 133.425 123.074 132.991 122.504 132.674C121.944 132.347 121.328 132.184 120.656 132.184C119.994 132.184 119.378 132.343 118.808 132.66C118.248 132.977 117.782 133.411 117.408 133.962C117.044 134.503 116.802 135.115 116.68 135.796ZM129.891 144V130H132.803V131.484C133.288 130.905 133.886 130.448 134.595 130.112C135.304 129.776 136.07 129.608 136.891 129.608C137.414 129.608 137.932 129.678 138.445 129.818L137.283 132.758C136.919 132.618 136.555 132.548 136.191 132.548C135.575 132.548 135.01 132.702 134.497 133.01C133.984 133.309 133.573 133.715 133.265 134.228C132.957 134.741 132.803 135.311 132.803 135.936V144H129.891Z" fill="white"/>
</g>
</svg>
