<svg width="241" height="220" viewBox="0 0 241 220" fill="none" xmlns="http://www.w3.org/2000/svg">
<mask id="mask0_2_1671" style="mask-type:alpha" maskUnits="userSpaceOnUse" x="0" y="0" width="241" height="220">
<rect width="241" height="220" rx="17" fill="#128FF8"/>
</mask>
<g mask="url(#mask0_2_1671)">
<rect width="241" height="220" rx="17" fill="#1E80F5"/>
<path d="M31.427 65.234C30.683 65.234 30.011 65.066 29.411 64.73C28.817 64.388 28.304 63.917 27.872 63.317C27.44 62.717 27.11 62.024 26.882 61.238C26.654 60.446 26.54 59.6 26.54 58.7C26.54 57.8 26.654 56.954 26.882 56.162C27.11 55.37 27.44 54.677 27.872 54.083C28.304 53.483 28.817 53.015 29.411 52.679C30.011 52.337 30.683 52.166 31.427 52.166C32.159 52.166 32.825 52.337 33.425 52.679C34.025 53.015 34.535 53.483 34.955 54.083C35.381 54.677 35.708 55.37 35.936 56.162C36.164 56.954 36.278 57.8 36.278 58.7C36.278 59.6 36.164 60.446 35.936 61.238C35.708 62.024 35.381 62.717 34.955 63.317C34.535 63.917 34.025 64.388 33.425 64.73C32.825 65.066 32.159 65.234 31.427 65.234ZM31.427 63.362C32.117 63.362 32.69 63.146 33.146 62.714C33.608 62.276 33.953 61.703 34.181 60.995C34.409 60.287 34.523 59.522 34.523 58.7C34.523 57.836 34.403 57.053 34.163 56.351C33.929 55.643 33.581 55.082 33.119 54.668C32.663 54.248 32.099 54.038 31.427 54.038C30.893 54.038 30.428 54.164 30.032 54.416C29.642 54.668 29.318 55.013 29.06 55.451C28.808 55.889 28.616 56.387 28.484 56.945C28.358 57.503 28.295 58.088 28.295 58.7C28.295 59.522 28.412 60.287 28.646 60.995C28.88 61.703 29.228 62.276 29.69 62.714C30.158 63.146 30.737 63.362 31.427 63.362ZM41.6615 65.234C40.8575 65.234 40.1225 65.036 39.4565 64.64C38.7905 64.238 38.2565 63.704 37.8545 63.038C37.4585 62.366 37.2605 61.625 37.2605 60.815C37.2605 60.383 37.3115 59.993 37.4135 59.645C37.5155 59.297 37.6715 58.931 37.8815 58.547L41.4275 52.4H43.6055L41.1485 56.648C41.6465 56.552 42.1325 56.549 42.6065 56.639C43.0865 56.723 43.5365 56.888 43.9565 57.134C44.3765 57.374 44.7455 57.68 45.0635 58.052C45.3875 58.418 45.6395 58.835 45.8195 59.303C45.9995 59.771 46.0895 60.275 46.0895 60.815C46.0895 61.421 45.9725 61.991 45.7385 62.525C45.5105 63.059 45.1925 63.53 44.7845 63.938C44.3825 64.34 43.9115 64.658 43.3715 64.892C42.8375 65.12 42.2675 65.234 41.6615 65.234ZM41.6615 63.362C42.1535 63.362 42.5915 63.242 42.9755 63.002C43.3595 62.762 43.6625 62.447 43.8845 62.057C44.1065 61.667 44.2175 61.253 44.2175 60.815C44.2175 60.353 44.1035 59.93 43.8755 59.546C43.6535 59.162 43.3505 58.856 42.9665 58.628C42.5825 58.394 42.1535 58.277 41.6795 58.277C41.1875 58.277 40.7495 58.397 40.3655 58.637C39.9815 58.877 39.6785 59.189 39.4565 59.573C39.2405 59.957 39.1325 60.371 39.1325 60.815C39.1325 61.301 39.2495 61.736 39.4835 62.12C39.7235 62.504 40.0355 62.807 40.4195 63.029C40.8035 63.251 41.2175 63.362 41.6615 63.362ZM48.3377 65.234C48.0617 65.234 47.8277 65.138 47.6357 64.946C47.4497 64.754 47.3567 64.52 47.3567 64.244C47.3567 63.974 47.4497 63.743 47.6357 63.551C47.8277 63.359 48.0617 63.263 48.3377 63.263C48.6137 63.263 48.8477 63.359 49.0397 63.551C49.2317 63.743 49.3277 63.974 49.3277 64.244C49.3277 64.52 49.2317 64.754 49.0397 64.946C48.8477 65.138 48.6137 65.234 48.3377 65.234Z" fill="white"/>
<path d="M36.752 110.364C35.4267 110.364 34.1807 110.103 33.014 109.58C31.8473 109.048 30.8207 108.32 29.934 107.396C29.0567 106.463 28.366 105.38 27.862 104.148C27.3673 102.916 27.12 101.6 27.12 100.2C27.12 98.8 27.3673 97.484 27.862 96.252C28.366 95.02 29.0567 93.942 29.934 93.018C30.8207 92.0847 31.8473 91.3567 33.014 90.834C34.1807 90.302 35.4267 90.036 36.752 90.036C38.3387 90.036 39.7993 90.4047 41.134 91.142C42.4687 91.8793 43.5747 92.8593 44.452 94.082L41.862 95.468C41.2553 94.7027 40.504 94.0913 39.608 93.634C38.712 93.1767 37.76 92.948 36.752 92.948C35.8187 92.948 34.946 93.1393 34.134 93.522C33.322 93.9047 32.608 94.4273 31.992 95.09C31.376 95.7527 30.8953 96.5227 30.55 97.4C30.2047 98.2773 30.032 99.2107 30.032 100.2C30.032 101.199 30.2047 102.137 30.55 103.014C30.8953 103.882 31.376 104.652 31.992 105.324C32.6173 105.987 33.336 106.509 34.148 106.892C34.96 107.265 35.828 107.452 36.752 107.452C37.7787 107.452 38.7353 107.223 39.622 106.766C40.518 106.299 41.2647 105.683 41.862 104.918L44.452 106.332C43.5747 107.555 42.4687 108.535 41.134 109.272C39.7993 110 38.3387 110.364 36.752 110.364ZM47.0941 110V96H50.0061V97.484C50.4914 96.9053 51.0887 96.448 51.7981 96.112C52.5074 95.776 53.2727 95.608 54.0941 95.608C54.6167 95.608 55.1347 95.678 55.6481 95.818L54.4861 98.758C54.1221 98.618 53.7581 98.548 53.3941 98.548C52.7781 98.548 52.2134 98.702 51.7001 99.01C51.1867 99.3087 50.7761 99.7147 50.4681 100.228C50.1601 100.741 50.0061 101.311 50.0061 101.936V110H47.0941ZM66.8559 96H69.9639L62.2919 117H59.1979L61.7319 110L56.7059 96H59.8839L63.1879 106.01L66.8559 96ZM75.0803 117H72.1683V96H75.0803V98.058C75.5469 97.3393 76.1443 96.756 76.8723 96.308C77.6003 95.86 78.4589 95.636 79.4483 95.636C80.4656 95.636 81.4176 95.8273 82.3043 96.21C83.2003 96.5927 83.9843 97.1247 84.6563 97.806C85.3283 98.478 85.8556 99.2573 86.2383 100.144C86.6209 101.031 86.8123 101.983 86.8123 103C86.8123 104.017 86.6209 104.974 86.2383 105.87C85.8556 106.766 85.3283 107.555 84.6563 108.236C83.9843 108.908 83.2003 109.435 82.3043 109.818C81.4176 110.201 80.4656 110.392 79.4483 110.392C78.4589 110.392 77.6003 110.168 76.8723 109.72C76.1443 109.263 75.5469 108.679 75.0803 107.97V117ZM79.4203 98.45C78.6083 98.45 77.8943 98.6553 77.2783 99.066C76.6623 99.4767 76.1816 100.027 75.8363 100.718C75.4909 101.399 75.3183 102.16 75.3183 103C75.3183 103.84 75.4909 104.605 75.8363 105.296C76.1816 105.987 76.6623 106.537 77.2783 106.948C77.8943 107.359 78.6083 107.564 79.4203 107.564C80.2229 107.564 80.9603 107.363 81.6323 106.962C82.3043 106.551 82.8409 106.001 83.2423 105.31C83.6436 104.619 83.8443 103.849 83.8443 103C83.8443 102.169 83.6436 101.409 83.2423 100.718C82.8503 100.027 82.3183 99.4767 81.6463 99.066C80.9743 98.6553 80.2323 98.45 79.4203 98.45ZM96.404 98.912H93.464L93.45 110H90.538L90.552 98.912H88.326V96H90.552L90.538 91.604H93.45L93.464 96H96.404V98.912ZM104.742 110.364C103.454 110.364 102.278 110.033 101.214 109.37C100.16 108.707 99.315 107.821 98.6803 106.71C98.055 105.59 97.7423 104.353 97.7423 103C97.7423 101.973 97.9243 101.017 98.2883 100.13C98.6523 99.234 99.1517 98.45 99.7863 97.778C100.43 97.0967 101.177 96.5647 102.026 96.182C102.876 95.7993 103.781 95.608 104.742 95.608C106.03 95.608 107.202 95.9393 108.256 96.602C109.32 97.2647 110.165 98.156 110.79 99.276C111.425 100.396 111.742 101.637 111.742 103C111.742 104.017 111.56 104.969 111.196 105.856C110.832 106.743 110.328 107.527 109.684 108.208C109.05 108.88 108.308 109.407 107.458 109.79C106.618 110.173 105.713 110.364 104.742 110.364ZM104.742 107.452C105.517 107.452 106.212 107.247 106.828 106.836C107.444 106.425 107.93 105.884 108.284 105.212C108.648 104.531 108.83 103.793 108.83 103C108.83 102.188 108.644 101.441 108.27 100.76C107.906 100.079 107.416 99.5373 106.8 99.136C106.184 98.7253 105.498 98.52 104.742 98.52C103.977 98.52 103.282 98.7253 102.656 99.136C102.04 99.5467 101.55 100.093 101.186 100.774C100.832 101.455 100.654 102.197 100.654 103C100.654 103.831 100.841 104.582 101.214 105.254C101.588 105.926 102.082 106.463 102.698 106.864C103.324 107.256 104.005 107.452 104.742 107.452ZM120.977 110V90.4H127.459C128.812 90.4 130.082 90.6567 131.267 91.17C132.452 91.674 133.493 92.3787 134.389 93.284C135.285 94.18 135.985 95.2207 136.489 96.406C137.002 97.582 137.259 98.8467 137.259 100.2C137.259 101.553 137.002 102.823 136.489 104.008C135.985 105.184 135.285 106.225 134.389 107.13C133.493 108.026 132.452 108.731 131.267 109.244C130.082 109.748 128.812 110 127.459 110H120.977ZM123.889 107.088H127.459C128.411 107.088 129.298 106.911 130.119 106.556C130.95 106.201 131.682 105.707 132.317 105.072C132.961 104.437 133.46 103.705 133.815 102.874C134.17 102.043 134.347 101.152 134.347 100.2C134.347 99.248 134.17 98.3567 133.815 97.526C133.46 96.6953 132.961 95.9627 132.317 95.328C131.682 94.6933 130.95 94.1987 130.119 93.844C129.298 93.4893 128.411 93.312 127.459 93.312H123.889V107.088ZM145.594 110.364C144.306 110.364 143.13 110.033 142.066 109.37C141.011 108.707 140.167 107.821 139.532 106.71C138.907 105.59 138.594 104.353 138.594 103C138.594 101.973 138.776 101.017 139.14 100.13C139.504 99.234 140.003 98.45 140.638 97.778C141.282 97.0967 142.029 96.5647 142.878 96.182C143.727 95.7993 144.633 95.608 145.594 95.608C146.667 95.608 147.652 95.832 148.548 96.28C149.444 96.7187 150.209 97.33 150.844 98.114C151.479 98.8887 151.945 99.7847 152.244 100.802C152.543 101.81 152.631 102.883 152.51 104.022H141.716C141.837 104.666 142.071 105.249 142.416 105.772C142.771 106.285 143.219 106.691 143.76 106.99C144.311 107.289 144.922 107.443 145.594 107.452C146.303 107.452 146.947 107.275 147.526 106.92C148.114 106.565 148.595 106.075 148.968 105.45L151.922 106.136C151.362 107.377 150.517 108.395 149.388 109.188C148.259 109.972 146.994 110.364 145.594 110.364ZM141.618 101.796H149.57C149.477 101.124 149.239 100.517 148.856 99.976C148.483 99.4253 148.011 98.9913 147.442 98.674C146.882 98.3473 146.266 98.184 145.594 98.184C144.931 98.184 144.315 98.3427 143.746 98.66C143.186 98.9773 142.719 99.4113 142.346 99.962C141.982 100.503 141.739 101.115 141.618 101.796ZM161.917 95.608C163.28 95.608 164.516 95.9393 165.627 96.602C166.747 97.2647 167.638 98.156 168.301 99.276C168.964 100.387 169.295 101.623 169.295 102.986C169.295 104.003 169.104 104.96 168.721 105.856C168.338 106.743 167.806 107.527 167.125 108.208C166.453 108.88 165.669 109.407 164.773 109.79C163.886 110.173 162.934 110.364 161.917 110.364C160.937 110.364 160.078 110.14 159.341 109.692C158.613 109.235 158.016 108.651 157.549 107.942V110H154.637V89H157.549V98.03C158.016 97.3113 158.613 96.728 159.341 96.28C160.078 95.832 160.937 95.608 161.917 95.608ZM161.889 107.536C162.701 107.536 163.443 107.331 164.115 106.92C164.787 106.509 165.319 105.959 165.711 105.268C166.112 104.577 166.313 103.817 166.313 102.986C166.313 102.137 166.112 101.367 165.711 100.676C165.31 99.9853 164.773 99.4393 164.101 99.038C163.429 98.6273 162.692 98.422 161.889 98.422C161.077 98.422 160.363 98.6273 159.747 99.038C159.131 99.4487 158.65 99.9993 158.305 100.69C157.96 101.381 157.787 102.146 157.787 102.986C157.787 103.826 157.96 104.591 158.305 105.282C158.65 105.973 159.131 106.523 159.747 106.934C160.363 107.335 161.077 107.536 161.889 107.536ZM171.289 96H174.201V110H171.289V96ZM172.773 93.97C172.325 93.97 171.952 93.8253 171.653 93.536C171.355 93.2467 171.205 92.8827 171.205 92.444C171.205 92.0147 171.355 91.6553 171.653 91.366C171.952 91.0673 172.321 90.918 172.759 90.918C173.189 90.918 173.553 91.0673 173.851 91.366C174.15 91.6553 174.299 92.0147 174.299 92.444C174.299 92.8827 174.15 93.2467 173.851 93.536C173.562 93.8253 173.203 93.97 172.773 93.97ZM184.943 98.912H182.003L181.989 110H179.077L179.091 98.912H176.865V96H179.091L179.077 91.604H181.989L182.003 96H184.943V98.912ZM199.524 110.364C198.385 110.364 197.368 110.089 196.472 109.538C195.585 108.987 194.885 108.264 194.372 107.368C193.868 106.463 193.616 105.487 193.616 104.442C193.616 103.845 193.672 103.322 193.784 102.874C193.905 102.426 194.106 101.987 194.386 101.558C194.675 101.129 195.067 100.648 195.562 100.116C196.066 99.584 196.701 98.9353 197.466 98.17C197.037 97.7313 196.677 97.3487 196.388 97.022C196.099 96.6953 195.87 96.392 195.702 96.112C195.534 95.8227 195.413 95.524 195.338 95.216C195.273 94.908 195.24 94.558 195.24 94.166C195.24 93.3447 195.436 92.612 195.828 91.968C196.22 91.3147 196.743 90.8013 197.396 90.428C198.049 90.0453 198.759 89.854 199.524 89.854C200.308 89.854 201.027 90.05 201.68 90.442C202.333 90.8247 202.851 91.3427 203.234 91.996C203.626 92.64 203.822 93.3633 203.822 94.166C203.822 94.5673 203.785 94.9267 203.71 95.244C203.635 95.552 203.509 95.8507 203.332 96.14C203.164 96.4293 202.935 96.7373 202.646 97.064C202.357 97.3813 202.002 97.75 201.582 98.17L205.81 102.398L209.184 99.024V103.14L207.854 104.47L211.34 107.942L209.282 110L205.81 106.542C205.035 107.317 204.377 107.951 203.836 108.446C203.304 108.941 202.823 109.328 202.394 109.608C201.965 109.888 201.526 110.084 201.078 110.196C200.639 110.308 200.121 110.364 199.524 110.364ZM199.524 107.452C199.897 107.452 200.215 107.41 200.476 107.326C200.747 107.233 201.022 107.079 201.302 106.864C201.582 106.64 201.909 106.337 202.282 105.954C202.665 105.562 203.155 105.063 203.752 104.456L199.524 100.228C198.908 100.844 198.404 101.348 198.012 101.74C197.62 102.123 197.317 102.449 197.102 102.72C196.897 102.991 196.752 103.261 196.668 103.532C196.584 103.793 196.542 104.106 196.542 104.47C196.542 105.039 196.677 105.548 196.948 105.996C197.228 106.444 197.592 106.799 198.04 107.06C198.497 107.321 198.992 107.452 199.524 107.452ZM199.524 96.518C200 96.042 200.359 95.6873 200.602 95.454C200.854 95.2113 201.022 95.0013 201.106 94.824C201.199 94.6373 201.246 94.3993 201.246 94.11C201.246 93.5967 201.064 93.186 200.7 92.878C200.345 92.5607 199.953 92.402 199.524 92.402C199.057 92.402 198.656 92.57 198.32 92.906C197.984 93.242 197.816 93.6433 197.816 94.11C197.816 94.3993 197.863 94.642 197.956 94.838C198.059 95.0247 198.231 95.2393 198.474 95.482C198.726 95.7247 199.076 96.07 199.524 96.518ZM27.68 144V124.4H34.428C35.4827 124.4 36.4347 124.661 37.284 125.184C38.1427 125.707 38.824 126.411 39.328 127.298C39.8413 128.185 40.098 129.165 40.098 130.238C40.098 131.33 39.8367 132.319 39.314 133.206C38.8007 134.083 38.1147 134.783 37.256 135.306C36.3973 135.829 35.4547 136.09 34.428 136.09H30.592V144H27.68ZM30.592 133.178H34.134C34.694 133.178 35.2027 133.038 35.66 132.758C36.1267 132.478 36.4953 132.105 36.766 131.638C37.046 131.171 37.186 130.644 37.186 130.056C37.186 129.468 37.046 128.941 36.766 128.474C36.4953 127.998 36.1267 127.625 35.66 127.354C35.2027 127.074 34.694 126.934 34.134 126.934H30.592V133.178ZM42.3909 144V130H45.3029V131.484C45.7883 130.905 46.3856 130.448 47.0949 130.112C47.8043 129.776 48.5696 129.608 49.3909 129.608C49.9136 129.608 50.4316 129.678 50.9449 129.818L49.7829 132.758C49.4189 132.618 49.0549 132.548 48.6909 132.548C48.0749 132.548 47.5103 132.702 46.9969 133.01C46.4836 133.309 46.0729 133.715 45.7649 134.228C45.4569 134.741 45.3029 135.311 45.3029 135.936V144H42.3909ZM58.0666 144.364C56.7786 144.364 55.6026 144.033 54.5386 143.37C53.4839 142.707 52.6392 141.821 52.0046 140.71C51.3792 139.59 51.0666 138.353 51.0666 137C51.0666 135.973 51.2486 135.017 51.6126 134.13C51.9766 133.234 52.4759 132.45 53.1106 131.778C53.7546 131.097 54.5012 130.565 55.3506 130.182C56.1999 129.799 57.1052 129.608 58.0666 129.608C59.1399 129.608 60.1246 129.832 61.0206 130.28C61.9166 130.719 62.6819 131.33 63.3166 132.114C63.9512 132.889 64.4179 133.785 64.7166 134.802C65.0152 135.81 65.1039 136.883 64.9826 138.022H54.1886C54.3099 138.666 54.5432 139.249 54.8886 139.772C55.2432 140.285 55.6912 140.691 56.2326 140.99C56.7832 141.289 57.3946 141.443 58.0666 141.452C58.7759 141.452 59.4199 141.275 59.9986 140.92C60.5866 140.565 61.0672 140.075 61.4406 139.45L64.3946 140.136C63.8346 141.377 62.9899 142.395 61.8606 143.188C60.7312 143.972 59.4666 144.364 58.0666 144.364ZM54.0906 135.796H62.0426C61.9492 135.124 61.7112 134.517 61.3286 133.976C60.9552 133.425 60.4839 132.991 59.9146 132.674C59.3546 132.347 58.7386 132.184 58.0666 132.184C57.4039 132.184 56.7879 132.343 56.2186 132.66C55.6586 132.977 55.1919 133.411 54.8186 133.962C54.4546 134.503 54.2119 135.115 54.0906 135.796ZM70.2131 151H67.3011V130H70.2131V132.058C70.6798 131.339 71.2771 130.756 72.0051 130.308C72.7331 129.86 73.5918 129.636 74.5811 129.636C75.5984 129.636 76.5504 129.827 77.4371 130.21C78.3331 130.593 79.1171 131.125 79.7891 131.806C80.4611 132.478 80.9884 133.257 81.3711 134.144C81.7538 135.031 81.9451 135.983 81.9451 137C81.9451 138.017 81.7538 138.974 81.3711 139.87C80.9884 140.766 80.4611 141.555 79.7891 142.236C79.1171 142.908 78.3331 143.435 77.4371 143.818C76.5504 144.201 75.5984 144.392 74.5811 144.392C73.5918 144.392 72.7331 144.168 72.0051 143.72C71.2771 143.263 70.6798 142.679 70.2131 141.97V151ZM74.5531 132.45C73.7411 132.45 73.0271 132.655 72.4111 133.066C71.7951 133.477 71.3144 134.027 70.9691 134.718C70.6238 135.399 70.4511 136.16 70.4511 137C70.4511 137.84 70.6238 138.605 70.9691 139.296C71.3144 139.987 71.7951 140.537 72.4111 140.948C73.0271 141.359 73.7411 141.564 74.5531 141.564C75.3558 141.564 76.0931 141.363 76.7651 140.962C77.4371 140.551 77.9738 140.001 78.3751 139.31C78.7764 138.619 78.9771 137.849 78.9771 137C78.9771 136.169 78.7764 135.409 78.3751 134.718C77.9831 134.027 77.4511 133.477 76.7791 133.066C76.1071 132.655 75.3651 132.45 74.5531 132.45ZM95.0915 130H98.0035V144H95.0775L94.9655 141.97C94.5549 142.689 93.9995 143.267 93.2995 143.706C92.5995 144.145 91.7735 144.364 90.8215 144.364C89.7949 144.364 88.8289 144.173 87.9235 143.79C87.0182 143.398 86.2202 142.857 85.5295 142.166C84.8482 141.475 84.3162 140.682 83.9335 139.786C83.5509 138.881 83.3595 137.91 83.3595 136.874C83.3595 135.875 83.5462 134.937 83.9195 134.06C84.2929 133.173 84.8109 132.399 85.4735 131.736C86.1362 131.073 86.9015 130.555 87.7695 130.182C88.6469 129.799 89.5849 129.608 90.5835 129.608C91.6009 129.608 92.4969 129.841 93.2715 130.308C94.0555 130.765 94.7042 131.353 95.2175 132.072L95.0915 130ZM90.7515 141.55C91.5729 141.55 92.2915 141.349 92.9075 140.948C93.5235 140.537 93.9995 139.987 94.3355 139.296C94.6809 138.605 94.8535 137.84 94.8535 137C94.8535 136.151 94.6809 135.381 94.3355 134.69C93.9902 133.999 93.5095 133.453 92.8935 133.052C92.2869 132.641 91.5729 132.436 90.7515 132.436C89.9395 132.436 89.1975 132.641 88.5255 133.052C87.8535 133.463 87.3215 134.013 86.9295 134.704C86.5375 135.395 86.3415 136.16 86.3415 137C86.3415 137.849 86.5422 138.619 86.9435 139.31C87.3542 139.991 87.8909 140.537 88.5535 140.948C89.2255 141.349 89.9582 141.55 90.7515 141.55ZM100.797 130H103.709V144H100.797V130ZM102.281 127.97C101.833 127.97 101.46 127.825 101.161 127.536C100.863 127.247 100.713 126.883 100.713 126.444C100.713 126.015 100.863 125.655 101.161 125.366C101.46 125.067 101.829 124.918 102.267 124.918C102.697 124.918 103.061 125.067 103.359 125.366C103.658 125.655 103.807 126.015 103.807 126.444C103.807 126.883 103.658 127.247 103.359 127.536C103.07 127.825 102.711 127.97 102.281 127.97ZM117.719 123H120.631V144H117.719V141.942C117.261 142.67 116.664 143.258 115.927 143.706C115.189 144.145 114.326 144.364 113.337 144.364C112.319 144.364 111.367 144.173 110.481 143.79C109.594 143.407 108.81 142.88 108.129 142.208C107.457 141.527 106.929 140.743 106.547 139.856C106.164 138.969 105.973 138.017 105.973 137C105.973 135.983 106.164 135.031 106.547 134.144C106.929 133.248 107.457 132.464 108.129 131.792C108.81 131.111 109.594 130.579 110.481 130.196C111.367 129.813 112.319 129.622 113.337 129.622C114.326 129.622 115.189 129.846 115.927 130.294C116.664 130.733 117.261 131.311 117.719 132.03V123ZM113.365 141.55C114.186 141.55 114.905 141.349 115.521 140.948C116.137 140.537 116.613 139.987 116.949 139.296C117.294 138.605 117.467 137.84 117.467 137C117.467 136.151 117.294 135.381 116.949 134.69C116.603 133.999 116.123 133.453 115.507 133.052C114.9 132.641 114.186 132.436 113.365 132.436C112.553 132.436 111.811 132.641 111.139 133.052C110.476 133.463 109.944 134.013 109.543 134.704C109.151 135.395 108.955 136.16 108.955 137C108.955 137.849 109.155 138.619 109.557 139.31C109.967 139.991 110.504 140.537 111.167 140.948C111.839 141.349 112.571 141.55 113.365 141.55ZM139.783 144.364C138.458 144.364 137.212 144.103 136.045 143.58C134.879 143.048 133.852 142.32 132.965 141.396C132.088 140.463 131.397 139.38 130.893 138.148C130.399 136.916 130.151 135.6 130.151 134.2C130.151 132.8 130.399 131.484 130.893 130.252C131.397 129.02 132.088 127.942 132.965 127.018C133.852 126.085 134.879 125.357 136.045 124.834C137.212 124.302 138.458 124.036 139.783 124.036C141.37 124.036 142.831 124.405 144.165 125.142C145.5 125.879 146.606 126.859 147.483 128.082L144.893 129.468C144.287 128.703 143.535 128.091 142.639 127.634C141.743 127.177 140.791 126.948 139.783 126.948C138.85 126.948 137.977 127.139 137.165 127.522C136.353 127.905 135.639 128.427 135.023 129.09C134.407 129.753 133.927 130.523 133.581 131.4C133.236 132.277 133.063 133.211 133.063 134.2C133.063 135.199 133.236 136.137 133.581 137.014C133.927 137.882 134.407 138.652 135.023 139.324C135.649 139.987 136.367 140.509 137.179 140.892C137.991 141.265 138.859 141.452 139.783 141.452C140.81 141.452 141.767 141.223 142.653 140.766C143.549 140.299 144.296 139.683 144.893 138.918L147.483 140.332C146.606 141.555 145.5 142.535 144.165 143.272C142.831 144 141.37 144.364 139.783 144.364ZM160.361 130H163.273V144H160.347L160.235 141.97C159.824 142.689 159.269 143.267 158.569 143.706C157.869 144.145 157.043 144.364 156.091 144.364C155.064 144.364 154.098 144.173 153.193 143.79C152.288 143.398 151.49 142.857 150.799 142.166C150.118 141.475 149.586 140.682 149.203 139.786C148.82 138.881 148.629 137.91 148.629 136.874C148.629 135.875 148.816 134.937 149.189 134.06C149.562 133.173 150.08 132.399 150.743 131.736C151.406 131.073 152.171 130.555 153.039 130.182C153.916 129.799 154.854 129.608 155.853 129.608C156.87 129.608 157.766 129.841 158.541 130.308C159.325 130.765 159.974 131.353 160.487 132.072L160.361 130ZM156.021 141.55C156.842 141.55 157.561 141.349 158.177 140.948C158.793 140.537 159.269 139.987 159.605 139.296C159.95 138.605 160.123 137.84 160.123 137C160.123 136.151 159.95 135.381 159.605 134.69C159.26 133.999 158.779 133.453 158.163 133.052C157.556 132.641 156.842 132.436 156.021 132.436C155.209 132.436 154.467 132.641 153.795 133.052C153.123 133.463 152.591 134.013 152.199 134.704C151.807 135.395 151.611 136.16 151.611 137C151.611 137.849 151.812 138.619 152.213 139.31C152.624 139.991 153.16 140.537 153.823 140.948C154.495 141.349 155.228 141.55 156.021 141.55ZM166.067 144V130H168.979V131.484C169.464 130.905 170.061 130.448 170.771 130.112C171.48 129.776 172.245 129.608 173.067 129.608C173.589 129.608 174.107 129.678 174.621 129.818L173.459 132.758C173.095 132.618 172.731 132.548 172.367 132.548C171.751 132.548 171.186 132.702 170.673 133.01C170.159 133.309 169.749 133.715 169.441 134.228C169.133 134.741 168.979 135.311 168.979 135.936V144H166.067ZM186.488 123H189.4V144H186.488V141.942C186.031 142.67 185.434 143.258 184.696 143.706C183.959 144.145 183.096 144.364 182.106 144.364C181.089 144.364 180.137 144.173 179.25 143.79C178.364 143.407 177.58 142.88 176.898 142.208C176.226 141.527 175.699 140.743 175.316 139.856C174.934 138.969 174.742 138.017 174.742 137C174.742 135.983 174.934 135.031 175.316 134.144C175.699 133.248 176.226 132.464 176.898 131.792C177.58 131.111 178.364 130.579 179.25 130.196C180.137 129.813 181.089 129.622 182.106 129.622C183.096 129.622 183.959 129.846 184.696 130.294C185.434 130.733 186.031 131.311 186.488 132.03V123ZM182.134 141.55C182.956 141.55 183.674 141.349 184.29 140.948C184.906 140.537 185.382 139.987 185.718 139.296C186.064 138.605 186.236 137.84 186.236 137C186.236 136.151 186.064 135.381 185.718 134.69C185.373 133.999 184.892 133.453 184.276 133.052C183.67 132.641 182.956 132.436 182.134 132.436C181.322 132.436 180.58 132.641 179.908 133.052C179.246 133.463 178.714 134.013 178.312 134.704C177.92 135.395 177.724 136.16 177.724 137C177.724 137.849 177.925 138.619 178.326 139.31C178.737 139.991 179.274 140.537 179.936 140.948C180.608 141.349 181.341 141.55 182.134 141.55Z" fill="white"/>
</g>
</svg>
