<svg width="241" height="220" viewBox="0 0 241 220" fill="none" xmlns="http://www.w3.org/2000/svg">
<mask id="mask0_2_1670" style="mask-type:alpha" maskUnits="userSpaceOnUse" x="0" y="0" width="241" height="220">
<rect width="241" height="220" rx="17" fill="#128FF8"/>
</mask>
<g mask="url(#mask0_2_1670)">
<rect width="241" height="220" rx="17" fill="url(#paint0_linear_2_1670)"/>
<path d="M31.427 65.234C30.683 65.234 30.011 65.066 29.411 64.73C28.817 64.388 28.304 63.917 27.872 63.317C27.44 62.717 27.11 62.024 26.882 61.238C26.654 60.446 26.54 59.6 26.54 58.7C26.54 57.8 26.654 56.954 26.882 56.162C27.11 55.37 27.44 54.677 27.872 54.083C28.304 53.483 28.817 53.015 29.411 52.679C30.011 52.337 30.683 52.166 31.427 52.166C32.159 52.166 32.825 52.337 33.425 52.679C34.025 53.015 34.535 53.483 34.955 54.083C35.381 54.677 35.708 55.37 35.936 56.162C36.164 56.954 36.278 57.8 36.278 58.7C36.278 59.6 36.164 60.446 35.936 61.238C35.708 62.024 35.381 62.717 34.955 63.317C34.535 63.917 34.025 64.388 33.425 64.73C32.825 65.066 32.159 65.234 31.427 65.234ZM31.427 63.362C32.117 63.362 32.69 63.146 33.146 62.714C33.608 62.276 33.953 61.703 34.181 60.995C34.409 60.287 34.523 59.522 34.523 58.7C34.523 57.836 34.403 57.053 34.163 56.351C33.929 55.643 33.581 55.082 33.119 54.668C32.663 54.248 32.099 54.038 31.427 54.038C30.893 54.038 30.428 54.164 30.032 54.416C29.642 54.668 29.318 55.013 29.06 55.451C28.808 55.889 28.616 56.387 28.484 56.945C28.358 57.503 28.295 58.088 28.295 58.7C28.295 59.522 28.412 60.287 28.646 60.995C28.88 61.703 29.228 62.276 29.69 62.714C30.158 63.146 30.737 63.362 31.427 63.362ZM41.6975 65.234C40.8995 65.234 40.1765 65.042 39.5285 64.658C38.8865 64.268 38.3765 63.752 37.9985 63.11C37.6265 62.462 37.4405 61.754 37.4405 60.986H39.3125C39.3125 61.424 39.4205 61.823 39.6365 62.183C39.8525 62.543 40.1405 62.831 40.5005 63.047C40.8605 63.257 41.2595 63.362 41.6975 63.362C42.1295 63.362 42.5255 63.257 42.8855 63.047C43.2455 62.831 43.5335 62.543 43.7495 62.183C43.9655 61.823 44.0735 61.424 44.0735 60.986C44.0735 60.548 43.9745 60.149 43.7765 59.789C43.5785 59.423 43.2815 59.132 42.8855 58.916C42.4895 58.694 41.9855 58.583 41.3735 58.583H38.1965L39.4745 52.4H45.5675V54.272H40.9955L40.5005 56.711L41.5895 56.729C42.4475 56.747 43.2005 56.945 43.8485 57.323C44.5025 57.695 45.0155 58.199 45.3875 58.835C45.7595 59.465 45.9455 60.182 45.9455 60.986C45.9455 61.568 45.8345 62.117 45.6125 62.633C45.3905 63.143 45.0845 63.593 44.6945 63.983C44.3105 64.373 43.8605 64.679 43.3445 64.901C42.8345 65.123 42.2855 65.234 41.6975 65.234ZM48.7244 65.234C48.4484 65.234 48.2144 65.138 48.0224 64.946C47.8364 64.754 47.7434 64.52 47.7434 64.244C47.7434 63.974 47.8364 63.743 48.0224 63.551C48.2144 63.359 48.4484 63.263 48.7244 63.263C49.0004 63.263 49.2344 63.359 49.4264 63.551C49.6184 63.743 49.7144 63.974 49.7144 64.244C49.7144 64.52 49.6184 64.754 49.4264 64.946C49.2344 65.138 49.0004 65.234 48.7244 65.234Z" fill="white"/>
<path d="M31.992 110L26.98 90.4H29.976L33.644 104.778L37.298 90.4H39.944L43.612 104.778L47.28 90.4H50.276L45.292 110H41.946L38.628 97.022L35.31 110H31.992ZM57.0548 110.364C55.7668 110.364 54.5908 110.033 53.5268 109.37C52.4722 108.707 51.6275 107.821 50.9928 106.71C50.3675 105.59 50.0548 104.353 50.0548 103C50.0548 101.973 50.2368 101.017 50.6008 100.13C50.9648 99.234 51.4642 98.45 52.0988 97.778C52.7428 97.0967 53.4895 96.5647 54.3388 96.182C55.1882 95.7993 56.0935 95.608 57.0548 95.608C58.1282 95.608 59.1128 95.832 60.0088 96.28C60.9048 96.7187 61.6702 97.33 62.3048 98.114C62.9395 98.8887 63.4062 99.7847 63.7048 100.802C64.0035 101.81 64.0922 102.883 63.9708 104.022H53.1768C53.2982 104.666 53.5315 105.249 53.8768 105.772C54.2315 106.285 54.6795 106.691 55.2208 106.99C55.7715 107.289 56.3828 107.443 57.0548 107.452C57.7642 107.452 58.4082 107.275 58.9868 106.92C59.5748 106.565 60.0555 106.075 60.4288 105.45L63.3828 106.136C62.8228 107.377 61.9782 108.395 60.8488 109.188C59.7195 109.972 58.4548 110.364 57.0548 110.364ZM53.0788 101.796H61.0308C60.9375 101.124 60.6995 100.517 60.3168 99.976C59.9435 99.4253 59.4722 98.9913 58.9028 98.674C58.3428 98.3473 57.7268 98.184 57.0548 98.184C56.3922 98.184 55.7762 98.3427 55.2068 98.66C54.6468 98.9773 54.1802 99.4113 53.8068 99.962C53.4428 100.503 53.2002 101.115 53.0788 101.796ZM73.378 95.608C74.7406 95.608 75.9773 95.9393 77.088 96.602C78.208 97.2647 79.0993 98.156 79.762 99.276C80.4246 100.387 80.756 101.623 80.756 102.986C80.756 104.003 80.5646 104.96 80.182 105.856C79.7993 106.743 79.2673 107.527 78.586 108.208C77.914 108.88 77.13 109.407 76.234 109.79C75.3473 110.173 74.3953 110.364 73.378 110.364C72.398 110.364 71.5393 110.14 70.802 109.692C70.074 109.235 69.4766 108.651 69.01 107.942V110H66.098V89H69.01V98.03C69.4766 97.3113 70.074 96.728 70.802 96.28C71.5393 95.832 72.398 95.608 73.378 95.608ZM73.35 107.536C74.162 107.536 74.904 107.331 75.576 106.92C76.248 106.509 76.78 105.959 77.172 105.268C77.5733 104.577 77.774 103.817 77.774 102.986C77.774 102.137 77.5733 101.367 77.172 100.676C76.7706 99.9853 76.234 99.4393 75.562 99.038C74.89 98.6273 74.1526 98.422 73.35 98.422C72.538 98.422 71.824 98.6273 71.208 99.038C70.592 99.4487 70.1113 99.9993 69.766 100.69C69.4206 101.381 69.248 102.146 69.248 102.986C69.248 103.826 69.4206 104.591 69.766 105.282C70.1113 105.973 70.592 106.523 71.208 106.934C71.824 107.335 72.538 107.536 73.35 107.536ZM88.6458 110.364C87.4605 110.364 86.3965 110.089 85.4538 109.538C84.5205 108.987 83.7832 108.25 83.2418 107.326C82.7005 106.402 82.4298 105.375 82.4298 104.246H85.3418C85.3418 104.834 85.4818 105.371 85.7618 105.856C86.0418 106.341 86.4292 106.729 86.9238 107.018C87.4185 107.307 87.9925 107.452 88.6458 107.452C89.2338 107.452 89.7798 107.307 90.2838 107.018C90.7878 106.729 91.1938 106.341 91.5018 105.856C91.8098 105.371 91.9638 104.834 91.9638 104.246C91.9638 103.499 91.7678 102.874 91.3758 102.37C90.9838 101.866 90.4378 101.493 89.7378 101.25C89.0472 100.998 88.2492 100.872 87.3438 100.872V98.576C88.5758 98.576 89.5605 98.3333 90.2978 97.848C91.0352 97.3627 91.4038 96.6393 91.4038 95.678C91.4038 95.174 91.2685 94.7167 90.9978 94.306C90.7365 93.886 90.3865 93.5547 89.9478 93.312C89.5185 93.06 89.0565 92.934 88.5618 92.934C88.0485 92.934 87.5538 93.06 87.0778 93.312C86.6112 93.5547 86.2285 93.886 85.9298 94.306C85.6312 94.7167 85.4818 95.174 85.4818 95.678H82.5698C82.5698 94.9033 82.7285 94.1753 83.0458 93.494C83.3725 92.8033 83.8112 92.2013 84.3618 91.688C84.9218 91.1653 85.5565 90.7593 86.2658 90.47C86.9845 90.1713 87.7358 90.022 88.5198 90.022C89.5465 90.022 90.4985 90.2787 91.3758 90.792C92.2625 91.296 92.9718 91.9773 93.5038 92.836C94.0452 93.6853 94.3158 94.6327 94.3158 95.678C94.3158 96.5087 94.1105 97.2973 93.6998 98.044C93.2985 98.7813 92.7385 99.304 92.0198 99.612C92.6452 99.836 93.1678 100.191 93.5878 100.676C94.0172 101.152 94.3392 101.703 94.5538 102.328C94.7685 102.944 94.8758 103.583 94.8758 104.246C94.8758 105.366 94.5912 106.393 94.0218 107.326C93.4525 108.25 92.6918 108.987 91.7398 109.538C90.7972 110.089 89.7658 110.364 88.6458 110.364ZM104.133 110L107.927 90.4H110.279L115.305 103.602L120.303 90.4H122.655L126.463 110H123.495L120.961 96.882L116.271 109.258H114.311L109.635 96.882L107.101 110H104.133ZM134.629 110.364C133.341 110.364 132.165 110.033 131.101 109.37C130.046 108.707 129.202 107.821 128.567 106.71C127.942 105.59 127.629 104.353 127.629 103C127.629 101.973 127.811 101.017 128.175 100.13C128.539 99.234 129.038 98.45 129.673 97.778C130.317 97.0967 131.064 96.5647 131.913 96.182C132.762 95.7993 133.668 95.608 134.629 95.608C135.917 95.608 137.088 95.9393 138.143 96.602C139.207 97.2647 140.052 98.156 140.677 99.276C141.312 100.396 141.629 101.637 141.629 103C141.629 104.017 141.447 104.969 141.083 105.856C140.719 106.743 140.215 107.527 139.571 108.208C138.936 108.88 138.194 109.407 137.345 109.79C136.505 110.173 135.6 110.364 134.629 110.364ZM134.629 107.452C135.404 107.452 136.099 107.247 136.715 106.836C137.331 106.425 137.816 105.884 138.171 105.212C138.535 104.531 138.717 103.793 138.717 103C138.717 102.188 138.53 101.441 138.157 100.76C137.793 100.079 137.303 99.5373 136.687 99.136C136.071 98.7253 135.385 98.52 134.629 98.52C133.864 98.52 133.168 98.7253 132.543 99.136C131.927 99.5467 131.437 100.093 131.073 100.774C130.718 101.455 130.541 102.197 130.541 103C130.541 103.831 130.728 104.582 131.101 105.254C131.474 105.926 131.969 106.463 132.585 106.864C133.21 107.256 133.892 107.452 134.629 107.452ZM150.98 95.608C152.342 95.608 153.579 95.9393 154.69 96.602C155.81 97.2647 156.701 98.156 157.364 99.276C158.026 100.387 158.358 101.623 158.358 102.986C158.358 104.003 158.166 104.96 157.784 105.856C157.401 106.743 156.869 107.527 156.188 108.208C155.516 108.88 154.732 109.407 153.836 109.79C152.949 110.173 151.997 110.364 150.98 110.364C150 110.364 149.141 110.14 148.404 109.692C147.676 109.235 147.078 108.651 146.612 107.942V110H143.7V89H146.612V98.03C147.078 97.3113 147.676 96.728 148.404 96.28C149.141 95.832 150 95.608 150.98 95.608ZM150.952 107.536C151.764 107.536 152.506 107.331 153.178 106.92C153.85 106.509 154.382 105.959 154.774 105.268C155.175 104.577 155.376 103.817 155.376 102.986C155.376 102.137 155.175 101.367 154.774 100.676C154.372 99.9853 153.836 99.4393 153.164 99.038C152.492 98.6273 151.754 98.422 150.952 98.422C150.14 98.422 149.426 98.6273 148.81 99.038C148.194 99.4487 147.713 99.9993 147.368 100.69C147.022 101.381 146.85 102.146 146.85 102.986C146.85 103.826 147.022 104.591 147.368 105.282C147.713 105.973 148.194 106.523 148.81 106.934C149.426 107.335 150.14 107.536 150.952 107.536ZM160.352 96H163.264V110H160.352V96ZM161.836 93.97C161.388 93.97 161.015 93.8253 160.716 93.536C160.417 93.2467 160.268 92.8827 160.268 92.444C160.268 92.0147 160.417 91.6553 160.716 91.366C161.015 91.0673 161.383 90.918 161.822 90.918C162.251 90.918 162.615 91.0673 162.914 91.366C163.213 91.6553 163.362 92.0147 163.362 92.444C163.362 92.8827 163.213 93.2467 162.914 93.536C162.625 93.8253 162.265 93.97 161.836 93.97ZM166.668 110V89H169.58V110H166.668ZM178.899 110.364C177.611 110.364 176.435 110.033 175.371 109.37C174.316 108.707 173.471 107.821 172.837 106.71C172.211 105.59 171.899 104.353 171.899 103C171.899 101.973 172.081 101.017 172.445 100.13C172.809 99.234 173.308 98.45 173.943 97.778C174.587 97.0967 175.333 96.5647 176.183 96.182C177.032 95.7993 177.937 95.608 178.899 95.608C179.972 95.608 180.957 95.832 181.853 96.28C182.749 96.7187 183.514 97.33 184.149 98.114C184.783 98.8887 185.25 99.7847 185.549 100.802C185.847 101.81 185.936 102.883 185.815 104.022H175.021C175.142 104.666 175.375 105.249 175.721 105.772C176.075 106.285 176.523 106.691 177.065 106.99C177.615 107.289 178.227 107.443 178.899 107.452C179.608 107.452 180.252 107.275 180.831 106.92C181.419 106.565 181.899 106.075 182.273 105.45L185.227 106.136C184.667 107.377 183.822 108.395 182.693 109.188C181.563 109.972 180.299 110.364 178.899 110.364ZM174.923 101.796H182.875C182.781 101.124 182.543 100.517 182.161 99.976C181.787 99.4253 181.316 98.9913 180.747 98.674C180.187 98.3473 179.571 98.184 178.899 98.184C178.236 98.184 177.62 98.3427 177.051 98.66C176.491 98.9773 176.024 99.4113 175.651 99.962C175.287 100.503 175.044 101.115 174.923 101.796ZM31.992 144L26.98 124.4H29.976L33.644 138.778L37.298 124.4H39.944L43.612 138.778L47.28 124.4H50.276L45.292 144H41.946L38.628 131.022L35.31 144H31.992ZM61.7868 130H64.6988V144H61.7728L61.6608 141.97C61.2502 142.689 60.6948 143.267 59.9948 143.706C59.2948 144.145 58.4688 144.364 57.5168 144.364C56.4902 144.364 55.5242 144.173 54.6188 143.79C53.7135 143.398 52.9155 142.857 52.2248 142.166C51.5435 141.475 51.0115 140.682 50.6288 139.786C50.2462 138.881 50.0548 137.91 50.0548 136.874C50.0548 135.875 50.2415 134.937 50.6148 134.06C50.9882 133.173 51.5062 132.399 52.1688 131.736C52.8315 131.073 53.5968 130.555 54.4648 130.182C55.3422 129.799 56.2802 129.608 57.2788 129.608C58.2962 129.608 59.1922 129.841 59.9668 130.308C60.7508 130.765 61.3995 131.353 61.9128 132.072L61.7868 130ZM57.4468 141.55C58.2682 141.55 58.9868 141.349 59.6028 140.948C60.2188 140.537 60.6948 139.987 61.0308 139.296C61.3762 138.605 61.5488 137.84 61.5488 137C61.5488 136.151 61.3762 135.381 61.0308 134.69C60.6855 133.999 60.2048 133.453 59.5888 133.052C58.9822 132.641 58.2682 132.436 57.4468 132.436C56.6348 132.436 55.8928 132.641 55.2208 133.052C54.5488 133.463 54.0168 134.013 53.6248 134.704C53.2328 135.395 53.0368 136.16 53.0368 137C53.0368 137.849 53.2375 138.619 53.6388 139.31C54.0495 139.991 54.5862 140.537 55.2488 140.948C55.9208 141.349 56.6535 141.55 57.4468 141.55ZM67.6019 144V123H70.5139V144H67.6019ZM73.8636 144V123H76.7756V144H73.8636ZM86.0939 144.364C84.8059 144.364 83.6299 144.033 82.5659 143.37C81.5112 142.707 80.6666 141.821 80.0319 140.71C79.4066 139.59 79.0939 138.353 79.0939 137C79.0939 135.973 79.2759 135.017 79.6399 134.13C80.0039 133.234 80.5032 132.45 81.1379 131.778C81.7819 131.097 82.5286 130.565 83.3779 130.182C84.2272 129.799 85.1326 129.608 86.0939 129.608C87.1672 129.608 88.1519 129.832 89.0479 130.28C89.9439 130.719 90.7092 131.33 91.3439 132.114C91.9786 132.889 92.4452 133.785 92.7439 134.802C93.0426 135.81 93.1312 136.883 93.0099 138.022H82.2159C82.3372 138.666 82.5706 139.249 82.9159 139.772C83.2706 140.285 83.7186 140.691 84.2599 140.99C84.8106 141.289 85.4219 141.443 86.0939 141.452C86.8032 141.452 87.4472 141.275 88.0259 140.92C88.6139 140.565 89.0946 140.075 89.4679 139.45L92.4219 140.136C91.8619 141.377 91.0172 142.395 89.8879 143.188C88.7586 143.972 87.4939 144.364 86.0939 144.364ZM82.1179 135.796H90.0699C89.9766 135.124 89.7386 134.517 89.3559 133.976C88.9826 133.425 88.5112 132.991 87.9419 132.674C87.3819 132.347 86.7659 132.184 86.0939 132.184C85.4312 132.184 84.8152 132.343 84.2459 132.66C83.6859 132.977 83.2192 133.411 82.8459 133.962C82.4819 134.503 82.2392 135.115 82.1179 135.796ZM102.638 132.912H99.6984L99.6844 144H96.7724L96.7864 132.912H94.5604V130H96.7864L96.7724 125.604H99.6844L99.6984 130H102.638V132.912Z" fill="white"/>
</g>
<defs>
<linearGradient id="paint0_linear_2_1670" x1="120.5" y1="0" x2="120.5" y2="220" gradientUnits="userSpaceOnUse">
<stop offset="0.270833" stop-color="#13B6FB"/>
<stop offset="0.833333" stop-color="#1E80F5"/>
</linearGradient>
</defs>
</svg>
