<svg width="241" height="220" viewBox="0 0 241 220" fill="none" xmlns="http://www.w3.org/2000/svg">
<mask id="mask0_2_1666" style="mask-type:alpha" maskUnits="userSpaceOnUse" x="0" y="0" width="241" height="220">
<rect width="241" height="220" rx="17" fill="#128FF8"/>
</mask>
<g mask="url(#mask0_2_1666)">
<rect width="241" height="220" rx="17" fill="url(#paint0_linear_2_1666)"/>
<path d="M31.427 65.234C30.683 65.234 30.011 65.066 29.411 64.73C28.817 64.388 28.304 63.917 27.872 63.317C27.44 62.717 27.11 62.024 26.882 61.238C26.654 60.446 26.54 59.6 26.54 58.7C26.54 57.8 26.654 56.954 26.882 56.162C27.11 55.37 27.44 54.677 27.872 54.083C28.304 53.483 28.817 53.015 29.411 52.679C30.011 52.337 30.683 52.166 31.427 52.166C32.159 52.166 32.825 52.337 33.425 52.679C34.025 53.015 34.535 53.483 34.955 54.083C35.381 54.677 35.708 55.37 35.936 56.162C36.164 56.954 36.278 57.8 36.278 58.7C36.278 59.6 36.164 60.446 35.936 61.238C35.708 62.024 35.381 62.717 34.955 63.317C34.535 63.917 34.025 64.388 33.425 64.73C32.825 65.066 32.159 65.234 31.427 65.234ZM31.427 63.362C32.117 63.362 32.69 63.146 33.146 62.714C33.608 62.276 33.953 61.703 34.181 60.995C34.409 60.287 34.523 59.522 34.523 58.7C34.523 57.836 34.403 57.053 34.163 56.351C33.929 55.643 33.581 55.082 33.119 54.668C32.663 54.248 32.099 54.038 31.427 54.038C30.893 54.038 30.428 54.164 30.032 54.416C29.642 54.668 29.318 55.013 29.06 55.451C28.808 55.889 28.616 56.387 28.484 56.945C28.358 57.503 28.295 58.088 28.295 58.7C28.295 59.522 28.412 60.287 28.646 60.995C28.88 61.703 29.228 62.276 29.69 62.714C30.158 63.146 30.737 63.362 31.427 63.362ZM37.5305 65V63.335C37.9565 62.981 38.4455 62.57 38.9975 62.102C39.5495 61.628 40.1105 61.127 40.6805 60.599C41.2505 60.065 41.7755 59.534 42.2555 59.006C42.7355 58.472 43.1225 57.968 43.4165 57.494C43.7165 57.014 43.8665 56.597 43.8665 56.243C43.8665 55.841 43.7675 55.475 43.5695 55.145C43.3775 54.809 43.1165 54.542 42.7865 54.344C42.4565 54.14 42.0905 54.038 41.6885 54.038C41.2865 54.038 40.9175 54.14 40.5815 54.344C40.2515 54.542 39.9845 54.809 39.7805 55.145C39.5825 55.475 39.4835 55.841 39.4835 56.243H37.6115C37.6115 55.481 37.7975 54.794 38.1695 54.182C38.5475 53.564 39.0425 53.075 39.6545 52.715C40.2725 52.349 40.9505 52.166 41.6885 52.166C42.4325 52.166 43.1105 52.349 43.7225 52.715C44.3345 53.081 44.8235 53.573 45.1895 54.191C45.5555 54.803 45.7385 55.487 45.7385 56.243C45.7385 56.663 45.6515 57.095 45.4775 57.539C45.3035 57.983 45.0605 58.436 44.7485 58.898C44.4425 59.36 44.0855 59.828 43.6775 60.302C43.2695 60.776 42.8315 61.25 42.3635 61.724C41.8955 62.198 41.4185 62.666 40.9325 63.128H45.8465V65H37.5305ZM48.619 65.234C48.343 65.234 48.109 65.138 47.917 64.946C47.731 64.754 47.638 64.52 47.638 64.244C47.638 63.974 47.731 63.743 47.917 63.551C48.109 63.359 48.343 63.263 48.619 63.263C48.895 63.263 49.129 63.359 49.321 63.551C49.513 63.743 49.609 63.974 49.609 64.244C49.609 64.52 49.513 64.754 49.321 64.946C49.129 65.138 48.895 65.234 48.619 65.234Z" fill="white"/>
<path d="M27.68 110V90.4H34.428C35.4827 90.4 36.4347 90.6613 37.284 91.184C38.1427 91.7067 38.824 92.4113 39.328 93.298C39.8413 94.1847 40.098 95.1647 40.098 96.238C40.098 97.33 39.8367 98.3193 39.314 99.206C38.8007 100.083 38.1147 100.783 37.256 101.306C36.3973 101.829 35.4547 102.09 34.428 102.09H30.592V110H27.68ZM30.592 99.178H34.134C34.694 99.178 35.2027 99.038 35.66 98.758C36.1267 98.478 36.4953 98.1047 36.766 97.638C37.046 97.1713 37.186 96.644 37.186 96.056C37.186 95.468 37.046 94.9407 36.766 94.474C36.4953 93.998 36.1267 93.6247 35.66 93.354C35.2027 93.074 34.694 92.934 34.134 92.934H30.592V99.178ZM42.3505 110V107.41C43.0131 106.859 43.7738 106.22 44.6325 105.492C45.4911 104.755 46.3638 103.975 47.2505 103.154C48.1371 102.323 48.9538 101.497 49.7005 100.676C50.4471 99.8453 51.0491 99.0613 51.5065 98.324C51.9731 97.5773 52.2065 96.9287 52.2065 96.378C52.2065 95.7527 52.0525 95.1833 51.7445 94.67C51.4458 94.1473 51.0398 93.732 50.5265 93.424C50.0131 93.1067 49.4438 92.948 48.8185 92.948C48.1931 92.948 47.6191 93.1067 47.0965 93.424C46.5831 93.732 46.1678 94.1473 45.8505 94.67C45.5425 95.1833 45.3885 95.7527 45.3885 96.378H42.4765C42.4765 95.1927 42.7658 94.124 43.3445 93.172C43.9325 92.2107 44.7025 91.45 45.6545 90.89C46.6158 90.3207 47.6705 90.036 48.8185 90.036C49.9758 90.036 51.0305 90.3207 51.9825 90.89C52.9345 91.4593 53.6951 92.2247 54.2645 93.186C54.8338 94.138 55.1185 95.202 55.1185 96.378C55.1185 97.0313 54.9831 97.7033 54.7125 98.394C54.4418 99.0847 54.0638 99.7893 53.5785 100.508C53.1025 101.227 52.5471 101.955 51.9125 102.692C51.2778 103.429 50.5965 104.167 49.8685 104.904C49.1405 105.641 48.3985 106.369 47.6425 107.088H55.2865V110H42.3505ZM58.6331 110V90.4H65.3811C66.4358 90.4 67.3878 90.6613 68.2371 91.184C69.0958 91.7067 69.7771 92.4113 70.2811 93.298C70.7945 94.1847 71.0511 95.1647 71.0511 96.238C71.0511 97.33 70.7898 98.3193 70.2671 99.206C69.7538 100.083 69.0678 100.783 68.2091 101.306C67.3505 101.829 66.4078 102.09 65.3811 102.09H61.5451V110H58.6331ZM61.5451 99.178H65.0871C65.6471 99.178 66.1558 99.038 66.6131 98.758C67.0798 98.478 67.4485 98.1047 67.7191 97.638C67.9991 97.1713 68.1391 96.644 68.1391 96.056C68.1391 95.468 67.9991 94.9407 67.7191 94.474C67.4485 93.998 67.0798 93.6247 66.6131 93.354C66.1558 93.074 65.6471 92.934 65.0871 92.934H61.5451V99.178ZM27.68 144V124.4H34.428C35.4827 124.4 36.4347 124.661 37.284 125.184C38.1427 125.707 38.824 126.411 39.328 127.298C39.8413 128.185 40.098 129.165 40.098 130.238C40.098 131.33 39.8367 132.319 39.314 133.206C38.8007 134.083 38.1147 134.783 37.256 135.306C36.3973 135.829 35.4547 136.09 34.428 136.09H30.592V144H27.68ZM30.592 133.178H34.134C34.694 133.178 35.2027 133.038 35.66 132.758C36.1267 132.478 36.4953 132.105 36.766 131.638C37.046 131.171 37.186 130.644 37.186 130.056C37.186 129.468 37.046 128.941 36.766 128.474C36.4953 127.998 36.1267 127.625 35.66 127.354C35.2027 127.074 34.694 126.934 34.134 126.934H30.592V133.178ZM52.5993 130H55.5113V144H52.5853L52.4733 141.97C52.0627 142.689 51.5073 143.267 50.8073 143.706C50.1073 144.145 49.2813 144.364 48.3293 144.364C47.3027 144.364 46.3367 144.173 45.4313 143.79C44.526 143.398 43.728 142.857 43.0373 142.166C42.356 141.475 41.824 140.682 41.4413 139.786C41.0587 138.881 40.8673 137.91 40.8673 136.874C40.8673 135.875 41.054 134.937 41.4273 134.06C41.8007 133.173 42.3187 132.399 42.9813 131.736C43.644 131.073 44.4093 130.555 45.2773 130.182C46.1547 129.799 47.0927 129.608 48.0913 129.608C49.1087 129.608 50.0047 129.841 50.7793 130.308C51.5633 130.765 52.212 131.353 52.7253 132.072L52.5993 130ZM48.2593 141.55C49.0807 141.55 49.7993 141.349 50.4153 140.948C51.0313 140.537 51.5073 139.987 51.8433 139.296C52.1887 138.605 52.3613 137.84 52.3613 137C52.3613 136.151 52.1887 135.381 51.8433 134.69C51.498 133.999 51.0173 133.453 50.4013 133.052C49.7947 132.641 49.0807 132.436 48.2593 132.436C47.4473 132.436 46.7053 132.641 46.0333 133.052C45.3613 133.463 44.8293 134.013 44.4373 134.704C44.0453 135.395 43.8493 136.16 43.8493 137C43.8493 137.849 44.05 138.619 44.4513 139.31C44.862 139.991 45.3987 140.537 46.0613 140.948C46.7333 141.349 47.466 141.55 48.2593 141.55ZM67.2934 130H70.4014L62.7294 151H59.6354L62.1694 144L57.1434 130H60.3214L63.6254 140.01L67.2934 130ZM72.7698 144V130H75.6818V131.484C76.1672 130.905 76.7598 130.448 77.4598 130.112C78.1692 129.776 78.9345 129.608 79.7558 129.608C80.7545 129.608 81.6738 129.851 82.5138 130.336C83.3538 130.812 84.0212 131.447 84.5158 132.24C85.0105 131.447 85.6685 130.812 86.4898 130.336C87.3205 129.851 88.2352 129.608 89.2338 129.608C90.2698 129.608 91.2125 129.86 92.0618 130.364C92.9112 130.868 93.5878 131.545 94.0918 132.394C94.5958 133.243 94.8478 134.186 94.8478 135.222V144H91.9358V135.964C91.9358 135.348 91.7865 134.783 91.4878 134.27C91.1892 133.757 90.7878 133.341 90.2838 133.024C89.7798 132.707 89.2198 132.548 88.6038 132.548C87.9878 132.548 87.4278 132.697 86.9238 132.996C86.4198 133.295 86.0185 133.701 85.7198 134.214C85.4212 134.727 85.2718 135.311 85.2718 135.964V144H82.3598V135.964C82.3598 135.311 82.2105 134.727 81.9118 134.214C81.6132 133.701 81.2072 133.295 80.6938 132.996C80.1898 132.697 79.6298 132.548 79.0138 132.548C78.4072 132.548 77.8472 132.707 77.3338 133.024C76.8298 133.341 76.4285 133.757 76.1298 134.27C75.8312 134.783 75.6818 135.348 75.6818 135.964V144H72.7698ZM103.539 144.364C102.251 144.364 101.075 144.033 100.011 143.37C98.9566 142.707 98.1119 141.821 97.4772 140.71C96.8519 139.59 96.5392 138.353 96.5392 137C96.5392 135.973 96.7212 135.017 97.0852 134.13C97.4492 133.234 97.9486 132.45 98.5832 131.778C99.2272 131.097 99.9739 130.565 100.823 130.182C101.673 129.799 102.578 129.608 103.539 129.608C104.613 129.608 105.597 129.832 106.493 130.28C107.389 130.719 108.155 131.33 108.789 132.114C109.424 132.889 109.891 133.785 110.189 134.802C110.488 135.81 110.577 136.883 110.455 138.022H99.6612C99.7826 138.666 100.016 139.249 100.361 139.772C100.716 140.285 101.164 140.691 101.705 140.99C102.256 141.289 102.867 141.443 103.539 141.452C104.249 141.452 104.893 141.275 105.471 140.92C106.059 140.565 106.54 140.075 106.913 139.45L109.867 140.136C109.307 141.377 108.463 142.395 107.333 143.188C106.204 143.972 104.939 144.364 103.539 144.364ZM99.5632 135.796H107.515C107.422 135.124 107.184 134.517 106.801 133.976C106.428 133.425 105.957 132.991 105.387 132.674C104.827 132.347 104.211 132.184 103.539 132.184C102.877 132.184 102.261 132.343 101.691 132.66C101.131 132.977 100.665 133.411 100.291 133.962C99.9272 134.503 99.6846 135.115 99.5632 135.796ZM125.374 135.222V144H122.462V135.936C122.462 135.311 122.308 134.741 122 134.228C121.701 133.715 121.295 133.309 120.782 133.01C120.278 132.702 119.708 132.548 119.074 132.548C118.458 132.548 117.893 132.702 117.38 133.01C116.866 133.309 116.456 133.715 116.148 134.228C115.84 134.741 115.686 135.311 115.686 135.936V144H112.774V130H115.686V131.484C116.171 130.905 116.768 130.448 117.478 130.112C118.187 129.776 118.952 129.608 119.774 129.608C120.81 129.608 121.752 129.86 122.602 130.364C123.451 130.868 124.123 131.545 124.618 132.394C125.122 133.243 125.374 134.186 125.374 135.222ZM135.56 132.912H132.62L132.606 144H129.694L129.708 132.912H127.482V130H129.708L129.694 125.604H132.606L132.62 130H135.56V132.912ZM142.075 144.266C141.338 144.219 140.619 144.07 139.919 143.818C139.219 143.566 138.603 143.225 138.071 142.796C137.549 142.357 137.157 141.844 136.895 141.256L139.373 140.192C139.495 140.444 139.705 140.691 140.003 140.934C140.311 141.177 140.671 141.377 141.081 141.536C141.492 141.685 141.921 141.76 142.369 141.76C142.808 141.76 143.214 141.699 143.587 141.578C143.97 141.447 144.283 141.251 144.525 140.99C144.768 140.729 144.889 140.416 144.889 140.052C144.889 139.641 144.749 139.324 144.469 139.1C144.199 138.867 143.858 138.689 143.447 138.568C143.037 138.447 142.626 138.33 142.215 138.218C141.301 138.013 140.461 137.733 139.695 137.378C138.939 137.014 138.337 136.552 137.889 135.992C137.441 135.423 137.217 134.727 137.217 133.906C137.217 133.01 137.46 132.235 137.945 131.582C138.431 130.919 139.065 130.411 139.849 130.056C140.643 129.701 141.487 129.524 142.383 129.524C143.503 129.524 144.53 129.762 145.463 130.238C146.397 130.714 147.111 131.367 147.605 132.198L145.295 133.57C145.155 133.29 144.945 133.038 144.665 132.814C144.385 132.59 144.068 132.413 143.713 132.282C143.359 132.142 142.99 132.063 142.607 132.044C142.131 132.025 141.688 132.081 141.277 132.212C140.876 132.333 140.554 132.529 140.311 132.8C140.069 133.071 139.947 133.416 139.947 133.836C139.947 134.247 140.092 134.555 140.381 134.76C140.671 134.956 141.035 135.115 141.473 135.236C141.921 135.357 142.379 135.493 142.845 135.642C143.676 135.903 144.455 136.225 145.183 136.608C145.911 136.981 146.499 137.443 146.947 137.994C147.395 138.545 147.61 139.217 147.591 140.01C147.591 140.887 147.325 141.657 146.793 142.32C146.271 142.983 145.589 143.487 144.749 143.832C143.909 144.177 143.018 144.322 142.075 144.266Z" fill="white"/>
</g>
<defs>
<linearGradient id="paint0_linear_2_1666" x1="120.5" y1="0" x2="120.5" y2="220" gradientUnits="userSpaceOnUse">
<stop offset="0.270833" stop-color="#13B6FB"/>
<stop offset="0.833333" stop-color="#1E80F5"/>
</linearGradient>
</defs>
</svg>
