<svg width="241" height="220" viewBox="0 0 241 220" fill="none" xmlns="http://www.w3.org/2000/svg">
<mask id="mask0_2_1672" style="mask-type:alpha" maskUnits="userSpaceOnUse" x="0" y="0" width="241" height="220">
<rect width="241" height="220" rx="17" fill="#128FF8"/>
</mask>
<g mask="url(#mask0_2_1672)">
<rect width="241" height="220" rx="17" fill="#1E80F5"/>
<path d="M31.427 65.234C30.683 65.234 30.011 65.066 29.411 64.73C28.817 64.388 28.304 63.917 27.872 63.317C27.44 62.717 27.11 62.024 26.882 61.238C26.654 60.446 26.54 59.6 26.54 58.7C26.54 57.8 26.654 56.954 26.882 56.162C27.11 55.37 27.44 54.677 27.872 54.083C28.304 53.483 28.817 53.015 29.411 52.679C30.011 52.337 30.683 52.166 31.427 52.166C32.159 52.166 32.825 52.337 33.425 52.679C34.025 53.015 34.535 53.483 34.955 54.083C35.381 54.677 35.708 55.37 35.936 56.162C36.164 56.954 36.278 57.8 36.278 58.7C36.278 59.6 36.164 60.446 35.936 61.238C35.708 62.024 35.381 62.717 34.955 63.317C34.535 63.917 34.025 64.388 33.425 64.73C32.825 65.066 32.159 65.234 31.427 65.234ZM31.427 63.362C32.117 63.362 32.69 63.146 33.146 62.714C33.608 62.276 33.953 61.703 34.181 60.995C34.409 60.287 34.523 59.522 34.523 58.7C34.523 57.836 34.403 57.053 34.163 56.351C33.929 55.643 33.581 55.082 33.119 54.668C32.663 54.248 32.099 54.038 31.427 54.038C30.893 54.038 30.428 54.164 30.032 54.416C29.642 54.668 29.318 55.013 29.06 55.451C28.808 55.889 28.616 56.387 28.484 56.945C28.358 57.503 28.295 58.088 28.295 58.7C28.295 59.522 28.412 60.287 28.646 60.995C28.88 61.703 29.228 62.276 29.69 62.714C30.158 63.146 30.737 63.362 31.427 63.362ZM37.8995 65L44.0825 54.272H37.1705V52.4H46.2515V54.272L40.0505 65H37.8995ZM48.3201 65.234C48.0441 65.234 47.8101 65.138 47.6181 64.946C47.4321 64.754 47.3391 64.52 47.3391 64.244C47.3391 63.974 47.4321 63.743 47.6181 63.551C47.8101 63.359 48.0441 63.263 48.3201 63.263C48.5961 63.263 48.8301 63.359 49.0221 63.551C49.2141 63.743 49.3101 63.974 49.3101 64.244C49.3101 64.52 49.2141 64.754 49.0221 64.946C48.8301 65.138 48.5961 65.234 48.3201 65.234Z" fill="white"/>
<path d="M34.246 90.4H37.648L44.774 110H41.694L40.336 106.276H31.558L30.214 110H27.12L34.246 90.4ZM32.636 103.364H39.258L35.94 94.264L32.636 103.364ZM47.6508 110V90.4H50.5628V110H47.6508ZM70.1387 110.364C68.8134 110.364 67.5674 110.103 66.4007 109.58C65.2341 109.048 64.2074 108.32 63.3207 107.396C62.4434 106.463 61.7527 105.38 61.2487 104.148C60.7541 102.916 60.5067 101.6 60.5067 100.2C60.5067 98.8 60.7541 97.484 61.2487 96.252C61.7527 95.02 62.4434 93.942 63.3207 93.018C64.2074 92.0847 65.2341 91.3567 66.4007 90.834C67.5674 90.302 68.8134 90.036 70.1387 90.036C71.7254 90.036 73.1861 90.4047 74.5207 91.142C75.8554 91.8793 76.9614 92.8593 77.8387 94.082L75.2487 95.468C74.6421 94.7027 73.8907 94.0913 72.9947 93.634C72.0987 93.1767 71.1467 92.948 70.1387 92.948C69.2054 92.948 68.3327 93.1393 67.5207 93.522C66.7087 93.9047 65.9947 94.4273 65.3787 95.09C64.7627 95.7527 64.2821 96.5227 63.9367 97.4C63.5914 98.2773 63.4187 99.2107 63.4187 100.2C63.4187 101.199 63.5914 102.137 63.9367 103.014C64.2821 103.882 64.7627 104.652 65.3787 105.324C66.0041 105.987 66.7227 106.509 67.5347 106.892C68.3467 107.265 69.2147 107.452 70.1387 107.452C71.1654 107.452 72.1221 107.223 73.0087 106.766C73.9047 106.299 74.6514 105.683 75.2487 104.918L77.8387 106.332C76.9614 107.555 75.8554 108.535 74.5207 109.272C73.1861 110 71.7254 110.364 70.1387 110.364ZM93.1628 101.222V110H90.2508V101.936C90.2508 101.311 90.0968 100.741 89.7888 100.228C89.4901 99.7147 89.0841 99.3087 88.5708 99.01C88.0668 98.702 87.4975 98.548 86.8628 98.548C86.2468 98.548 85.6821 98.702 85.1688 99.01C84.6555 99.3087 84.2448 99.7147 83.9368 100.228C83.6288 100.741 83.4748 101.311 83.4748 101.936V110H80.5628V89H83.4748V97.484C83.9601 96.9053 84.5575 96.448 85.2668 96.112C85.9761 95.776 86.7415 95.608 87.5628 95.608C88.5988 95.608 89.5415 95.86 90.3908 96.364C91.2401 96.868 91.9121 97.5447 92.4068 98.394C92.9108 99.2433 93.1628 100.186 93.1628 101.222ZM106.576 96H109.488V110H106.562L106.45 107.97C106.039 108.689 105.484 109.267 104.784 109.706C104.084 110.145 103.258 110.364 102.306 110.364C101.279 110.364 100.313 110.173 99.4079 109.79C98.5026 109.398 97.7046 108.857 97.0139 108.166C96.3326 107.475 95.8006 106.682 95.4179 105.786C95.0352 104.881 94.8439 103.91 94.8439 102.874C94.8439 101.875 95.0306 100.937 95.4039 100.06C95.7772 99.1733 96.2952 98.3987 96.9579 97.736C97.6206 97.0733 98.3859 96.5553 99.2539 96.182C100.131 95.7993 101.069 95.608 102.068 95.608C103.085 95.608 103.981 95.8413 104.756 96.308C105.54 96.7653 106.189 97.3533 106.702 98.072L106.576 96ZM102.236 107.55C103.057 107.55 103.776 107.349 104.392 106.948C105.008 106.537 105.484 105.987 105.82 105.296C106.165 104.605 106.338 103.84 106.338 103C106.338 102.151 106.165 101.381 105.82 100.69C105.475 99.9993 104.994 99.4533 104.378 99.052C103.771 98.6413 103.057 98.436 102.236 98.436C101.424 98.436 100.682 98.6413 100.01 99.052C99.3379 99.4627 98.8059 100.013 98.4139 100.704C98.0219 101.395 97.8259 102.16 97.8259 103C97.8259 103.849 98.0266 104.619 98.4279 105.31C98.8386 105.991 99.3752 106.537 100.038 106.948C100.71 107.349 101.443 107.55 102.236 107.55ZM119.674 98.912H116.734L116.72 110H113.808L113.822 98.912H111.596V96H113.822L113.808 91.604H116.72L116.734 96H119.674V98.912ZM129.46 95.608C130.823 95.608 132.059 95.9393 133.17 96.602C134.29 97.2647 135.181 98.156 135.844 99.276C136.507 100.387 136.838 101.623 136.838 102.986C136.838 104.003 136.647 104.96 136.264 105.856C135.881 106.743 135.349 107.527 134.668 108.208C133.996 108.88 133.212 109.407 132.316 109.79C131.429 110.173 130.477 110.364 129.46 110.364C128.48 110.364 127.621 110.14 126.884 109.692C126.156 109.235 125.559 108.651 125.092 107.942V110H122.18V89H125.092V98.03C125.559 97.3113 126.156 96.728 126.884 96.28C127.621 95.832 128.48 95.608 129.46 95.608ZM129.432 107.536C130.244 107.536 130.986 107.331 131.658 106.92C132.33 106.509 132.862 105.959 133.254 105.268C133.655 104.577 133.856 103.817 133.856 102.986C133.856 102.137 133.655 101.367 133.254 100.676C132.853 99.9853 132.316 99.4393 131.644 99.038C130.972 98.6273 130.235 98.422 129.432 98.422C128.62 98.422 127.906 98.6273 127.29 99.038C126.674 99.4487 126.193 99.9993 125.848 100.69C125.503 101.381 125.33 102.146 125.33 102.986C125.33 103.826 125.503 104.591 125.848 105.282C126.193 105.973 126.674 106.523 127.29 106.934C127.906 107.335 128.62 107.536 129.432 107.536ZM145.238 110.364C143.95 110.364 142.774 110.033 141.71 109.37C140.656 108.707 139.811 107.821 139.176 106.71C138.551 105.59 138.238 104.353 138.238 103C138.238 101.973 138.42 101.017 138.784 100.13C139.148 99.234 139.648 98.45 140.282 97.778C140.926 97.0967 141.673 96.5647 142.522 96.182C143.372 95.7993 144.277 95.608 145.238 95.608C146.526 95.608 147.698 95.9393 148.752 96.602C149.816 97.2647 150.661 98.156 151.286 99.276C151.921 100.396 152.238 101.637 152.238 103C152.238 104.017 152.056 104.969 151.692 105.856C151.328 106.743 150.824 107.527 150.18 108.208C149.546 108.88 148.804 109.407 147.954 109.79C147.114 110.173 146.209 110.364 145.238 110.364ZM145.238 107.452C146.013 107.452 146.708 107.247 147.324 106.836C147.94 106.425 148.426 105.884 148.78 105.212C149.144 104.531 149.326 103.793 149.326 103C149.326 102.188 149.14 101.441 148.766 100.76C148.402 100.079 147.912 99.5373 147.296 99.136C146.68 98.7253 145.994 98.52 145.238 98.52C144.473 98.52 143.778 98.7253 143.152 99.136C142.536 99.5467 142.046 100.093 141.682 100.774C141.328 101.455 141.15 102.197 141.15 103C141.15 103.831 141.337 104.582 141.71 105.254C142.084 105.926 142.578 106.463 143.194 106.864C143.82 107.256 144.501 107.452 145.238 107.452ZM161.81 98.912H158.87L158.856 110H155.944L155.958 98.912H153.732V96H155.958L155.944 91.604H158.856L158.87 96H161.81V98.912ZM28.1 144V124.4H31.012V144H28.1ZM34.7894 144V130H37.7014V131.484C38.1867 130.905 38.7794 130.448 39.4794 130.112C40.1887 129.776 40.954 129.608 41.7754 129.608C42.774 129.608 43.6934 129.851 44.5334 130.336C45.3734 130.812 46.0407 131.447 46.5354 132.24C47.03 131.447 47.688 130.812 48.5094 130.336C49.34 129.851 50.2547 129.608 51.2534 129.608C52.2894 129.608 53.232 129.86 54.0814 130.364C54.9307 130.868 55.6074 131.545 56.1114 132.394C56.6154 133.243 56.8674 134.186 56.8674 135.222V144H53.9554V135.964C53.9554 135.348 53.806 134.783 53.5074 134.27C53.2087 133.757 52.8074 133.341 52.3034 133.024C51.7994 132.707 51.2394 132.548 50.6234 132.548C50.0074 132.548 49.4474 132.697 48.9434 132.996C48.4394 133.295 48.038 133.701 47.7394 134.214C47.4407 134.727 47.2914 135.311 47.2914 135.964V144H44.3794V135.964C44.3794 135.311 44.23 134.727 43.9314 134.214C43.6327 133.701 43.2267 133.295 42.7134 132.996C42.2094 132.697 41.6494 132.548 41.0334 132.548C40.4267 132.548 39.8667 132.707 39.3534 133.024C38.8494 133.341 38.448 133.757 38.1494 134.27C37.8507 134.783 37.7014 135.348 37.7014 135.964V144H34.7894ZM62.5842 151H59.6722V130H62.5842V132.058C63.0509 131.339 63.6482 130.756 64.3762 130.308C65.1042 129.86 65.9629 129.636 66.9522 129.636C67.9695 129.636 68.9215 129.827 69.8082 130.21C70.7042 130.593 71.4882 131.125 72.1602 131.806C72.8322 132.478 73.3595 133.257 73.7422 134.144C74.1249 135.031 74.3162 135.983 74.3162 137C74.3162 138.017 74.1249 138.974 73.7422 139.87C73.3595 140.766 72.8322 141.555 72.1602 142.236C71.4882 142.908 70.7042 143.435 69.8082 143.818C68.9215 144.201 67.9695 144.392 66.9522 144.392C65.9629 144.392 65.1042 144.168 64.3762 143.72C63.6482 143.263 63.0509 142.679 62.5842 141.97V151ZM66.9242 132.45C66.1122 132.45 65.3982 132.655 64.7822 133.066C64.1662 133.477 63.6855 134.027 63.3402 134.718C62.9949 135.399 62.8222 136.16 62.8222 137C62.8222 137.84 62.9949 138.605 63.3402 139.296C63.6855 139.987 64.1662 140.537 64.7822 140.948C65.3982 141.359 66.1122 141.564 66.9242 141.564C67.7269 141.564 68.4642 141.363 69.1362 140.962C69.8082 140.551 70.3449 140.001 70.7462 139.31C71.1475 138.619 71.3482 137.849 71.3482 137C71.3482 136.169 71.1475 135.409 70.7462 134.718C70.3542 134.027 69.8222 133.477 69.1502 133.066C68.4782 132.655 67.7362 132.45 66.9242 132.45ZM76.4066 144V123H79.3186V144H76.4066ZM88.6369 144.364C87.3489 144.364 86.1729 144.033 85.1089 143.37C84.0542 142.707 83.2095 141.821 82.5749 140.71C81.9495 139.59 81.6369 138.353 81.6369 137C81.6369 135.973 81.8189 135.017 82.1829 134.13C82.5469 133.234 83.0462 132.45 83.6809 131.778C84.3249 131.097 85.0715 130.565 85.9209 130.182C86.7702 129.799 87.6755 129.608 88.6369 129.608C89.7102 129.608 90.6949 129.832 91.5909 130.28C92.4869 130.719 93.2522 131.33 93.8869 132.114C94.5215 132.889 94.9882 133.785 95.2869 134.802C95.5855 135.81 95.6742 136.883 95.5529 138.022H84.7589C84.8802 138.666 85.1135 139.249 85.4589 139.772C85.8135 140.285 86.2615 140.691 86.8029 140.99C87.3535 141.289 87.9649 141.443 88.6369 141.452C89.3462 141.452 89.9902 141.275 90.5689 140.92C91.1569 140.565 91.6375 140.075 92.0109 139.45L94.9649 140.136C94.4049 141.377 93.5602 142.395 92.4309 143.188C91.3015 143.972 90.0369 144.364 88.6369 144.364ZM84.6609 135.796H92.6129C92.5195 135.124 92.2815 134.517 91.8989 133.976C91.5255 133.425 91.0542 132.991 90.4849 132.674C89.9249 132.347 89.3089 132.184 88.6369 132.184C87.9742 132.184 87.3582 132.343 86.7889 132.66C86.2289 132.977 85.7622 133.411 85.3889 133.962C85.0249 134.503 84.7822 135.115 84.6609 135.796ZM97.8714 144V130H100.783V131.484C101.269 130.905 101.861 130.448 102.561 130.112C103.271 129.776 104.036 129.608 104.857 129.608C105.856 129.608 106.775 129.851 107.615 130.336C108.455 130.812 109.123 131.447 109.617 132.24C110.112 131.447 110.77 130.812 111.591 130.336C112.422 129.851 113.337 129.608 114.335 129.608C115.371 129.608 116.314 129.86 117.163 130.364C118.013 130.868 118.689 131.545 119.193 132.394C119.697 133.243 119.949 134.186 119.949 135.222V144H117.037V135.964C117.037 135.348 116.888 134.783 116.589 134.27C116.291 133.757 115.889 133.341 115.385 133.024C114.881 132.707 114.321 132.548 113.705 132.548C113.089 132.548 112.529 132.697 112.025 132.996C111.521 133.295 111.12 133.701 110.821 134.214C110.523 134.727 110.373 135.311 110.373 135.964V144H107.461V135.964C107.461 135.311 107.312 134.727 107.013 134.214C106.715 133.701 106.309 133.295 105.795 132.996C105.291 132.697 104.731 132.548 104.115 132.548C103.509 132.548 102.949 132.707 102.435 133.024C101.931 133.341 101.53 133.757 101.231 134.27C100.933 134.783 100.783 135.348 100.783 135.964V144H97.8714ZM128.641 144.364C127.353 144.364 126.177 144.033 125.113 143.37C124.058 142.707 123.213 141.821 122.579 140.71C121.953 139.59 121.641 138.353 121.641 137C121.641 135.973 121.823 135.017 122.187 134.13C122.551 133.234 123.05 132.45 123.685 131.778C124.329 131.097 125.075 130.565 125.925 130.182C126.774 129.799 127.679 129.608 128.641 129.608C129.714 129.608 130.699 129.832 131.595 130.28C132.491 130.719 133.256 131.33 133.891 132.114C134.525 132.889 134.992 133.785 135.291 134.802C135.589 135.81 135.678 136.883 135.557 138.022H124.763C124.884 138.666 125.117 139.249 125.463 139.772C125.817 140.285 126.265 140.691 126.807 140.99C127.357 141.289 127.969 141.443 128.641 141.452C129.35 141.452 129.994 141.275 130.573 140.92C131.161 140.565 131.641 140.075 132.015 139.45L134.969 140.136C134.409 141.377 133.564 142.395 132.435 143.188C131.305 143.972 130.041 144.364 128.641 144.364ZM124.665 135.796H132.617C132.523 135.124 132.285 134.517 131.903 133.976C131.529 133.425 131.058 132.991 130.489 132.674C129.929 132.347 129.313 132.184 128.641 132.184C127.978 132.184 127.362 132.343 126.793 132.66C126.233 132.977 125.766 133.411 125.393 133.962C125.029 134.503 124.786 135.115 124.665 135.796ZM150.475 135.222V144H147.563V135.936C147.563 135.311 147.409 134.741 147.101 134.228C146.803 133.715 146.397 133.309 145.883 133.01C145.379 132.702 144.81 132.548 144.175 132.548C143.559 132.548 142.995 132.702 142.481 133.01C141.968 133.309 141.557 133.715 141.249 134.228C140.941 134.741 140.787 135.311 140.787 135.936V144H137.875V130H140.787V131.484C141.273 130.905 141.87 130.448 142.579 130.112C143.289 129.776 144.054 129.608 144.875 129.608C145.911 129.608 146.854 129.86 147.703 130.364C148.553 130.868 149.225 131.545 149.719 132.394C150.223 133.243 150.475 134.186 150.475 135.222ZM160.662 132.912H157.722L157.708 144H154.796L154.81 132.912H152.584V130H154.81L154.796 125.604H157.708L157.722 130H160.662V132.912ZM173.732 130H176.644V144H173.718L173.606 141.97C173.195 142.689 172.64 143.267 171.94 143.706C171.24 144.145 170.414 144.364 169.462 144.364C168.435 144.364 167.469 144.173 166.564 143.79C165.659 143.398 164.861 142.857 164.17 142.166C163.489 141.475 162.957 140.682 162.574 139.786C162.191 138.881 162 137.91 162 136.874C162 135.875 162.187 134.937 162.56 134.06C162.933 133.173 163.451 132.399 164.114 131.736C164.777 131.073 165.542 130.555 166.41 130.182C167.287 129.799 168.225 129.608 169.224 129.608C170.241 129.608 171.137 129.841 171.912 130.308C172.696 130.765 173.345 131.353 173.858 132.072L173.732 130ZM169.392 141.55C170.213 141.55 170.932 141.349 171.548 140.948C172.164 140.537 172.64 139.987 172.976 139.296C173.321 138.605 173.494 137.84 173.494 137C173.494 136.151 173.321 135.381 172.976 134.69C172.631 133.999 172.15 133.453 171.534 133.052C170.927 132.641 170.213 132.436 169.392 132.436C168.58 132.436 167.838 132.641 167.166 133.052C166.494 133.463 165.962 134.013 165.57 134.704C165.178 135.395 164.982 136.16 164.982 137C164.982 137.849 165.183 138.619 165.584 139.31C165.995 139.991 166.531 140.537 167.194 140.948C167.866 141.349 168.599 141.55 169.392 141.55ZM186.83 132.912H183.89L183.876 144H180.964L180.978 132.912H178.752V130H180.978L180.964 125.604H183.876L183.89 130H186.83V132.912ZM189.145 130H192.057V144H189.145V130ZM190.629 127.97C190.181 127.97 189.808 127.825 189.509 127.536C189.21 127.247 189.061 126.883 189.061 126.444C189.061 126.015 189.21 125.655 189.509 125.366C189.808 125.067 190.176 124.918 190.615 124.918C191.044 124.918 191.408 125.067 191.707 125.366C192.006 125.655 192.155 126.015 192.155 126.444C192.155 126.883 192.006 127.247 191.707 127.536C191.418 127.825 191.058 127.97 190.629 127.97ZM201.32 144.364C200.032 144.364 198.856 144.033 197.792 143.37C196.738 142.707 195.893 141.821 195.258 140.71C194.633 139.59 194.32 138.353 194.32 137C194.32 135.973 194.502 135.017 194.866 134.13C195.23 133.234 195.73 132.45 196.364 131.778C197.008 131.097 197.755 130.565 198.604 130.182C199.454 129.799 200.359 129.608 201.32 129.608C202.608 129.608 203.78 129.939 204.834 130.602C205.898 131.265 206.743 132.156 207.368 133.276C208.003 134.396 208.32 135.637 208.32 137C208.32 138.017 208.138 138.969 207.774 139.856C207.41 140.743 206.906 141.527 206.262 142.208C205.628 142.88 204.886 143.407 204.036 143.79C203.196 144.173 202.291 144.364 201.32 144.364ZM201.32 141.452C202.095 141.452 202.79 141.247 203.406 140.836C204.022 140.425 204.508 139.884 204.862 139.212C205.226 138.531 205.408 137.793 205.408 137C205.408 136.188 205.222 135.441 204.848 134.76C204.484 134.079 203.994 133.537 203.378 133.136C202.762 132.725 202.076 132.52 201.32 132.52C200.555 132.52 199.86 132.725 199.234 133.136C198.618 133.547 198.128 134.093 197.764 134.774C197.41 135.455 197.232 136.197 197.232 137C197.232 137.831 197.419 138.582 197.792 139.254C198.166 139.926 198.66 140.463 199.276 140.864C199.902 141.256 200.583 141.452 201.32 141.452ZM223.182 135.222V144H220.27V135.936C220.27 135.311 220.116 134.741 219.808 134.228C219.51 133.715 219.104 133.309 218.59 133.01C218.086 132.702 217.517 132.548 216.882 132.548C216.266 132.548 215.702 132.702 215.188 133.01C214.675 133.309 214.264 133.715 213.956 134.228C213.648 134.741 213.494 135.311 213.494 135.936V144H210.582V130H213.494V131.484C213.98 130.905 214.577 130.448 215.286 130.112C215.996 129.776 216.761 129.608 217.582 129.608C218.618 129.608 219.561 129.86 220.41 130.364C221.26 130.868 221.932 131.545 222.426 132.394C222.93 133.243 223.182 134.186 223.182 135.222Z" fill="white"/>
</g>
</svg>
