<svg width="241" height="220" viewBox="0 0 241 220" fill="none" xmlns="http://www.w3.org/2000/svg">
<mask id="mask0_2_1673" style="mask-type:alpha" maskUnits="userSpaceOnUse" x="0" y="0" width="241" height="220">
<rect width="241" height="220" rx="17" fill="#128FF8"/>
</mask>
<g mask="url(#mask0_2_1673)">
<rect width="241" height="220" rx="17" fill="#1E80F5"/>
<path d="M31.427 65.234C30.683 65.234 30.011 65.066 29.411 64.73C28.817 64.388 28.304 63.917 27.872 63.317C27.44 62.717 27.11 62.024 26.882 61.238C26.654 60.446 26.54 59.6 26.54 58.7C26.54 57.8 26.654 56.954 26.882 56.162C27.11 55.37 27.44 54.677 27.872 54.083C28.304 53.483 28.817 53.015 29.411 52.679C30.011 52.337 30.683 52.166 31.427 52.166C32.159 52.166 32.825 52.337 33.425 52.679C34.025 53.015 34.535 53.483 34.955 54.083C35.381 54.677 35.708 55.37 35.936 56.162C36.164 56.954 36.278 57.8 36.278 58.7C36.278 59.6 36.164 60.446 35.936 61.238C35.708 62.024 35.381 62.717 34.955 63.317C34.535 63.917 34.025 64.388 33.425 64.73C32.825 65.066 32.159 65.234 31.427 65.234ZM31.427 63.362C32.117 63.362 32.69 63.146 33.146 62.714C33.608 62.276 33.953 61.703 34.181 60.995C34.409 60.287 34.523 59.522 34.523 58.7C34.523 57.836 34.403 57.053 34.163 56.351C33.929 55.643 33.581 55.082 33.119 54.668C32.663 54.248 32.099 54.038 31.427 54.038C30.893 54.038 30.428 54.164 30.032 54.416C29.642 54.668 29.318 55.013 29.06 55.451C28.808 55.889 28.616 56.387 28.484 56.945C28.358 57.503 28.295 58.088 28.295 58.7C28.295 59.522 28.412 60.287 28.646 60.995C28.88 61.703 29.228 62.276 29.69 62.714C30.158 63.146 30.737 63.362 31.427 63.362ZM41.6525 65.234C40.8905 65.234 40.1975 65.06 39.5735 64.712C38.9495 64.364 38.4515 63.899 38.0795 63.317C37.7135 62.729 37.5305 62.075 37.5305 61.355C37.5305 60.749 37.6805 60.185 37.9805 59.663C38.2805 59.141 38.6795 58.709 39.1775 58.367C38.7755 58.067 38.4485 57.689 38.1965 57.233C37.9445 56.777 37.8185 56.285 37.8185 55.757C37.8185 55.097 37.9895 54.497 38.3315 53.957C38.6795 53.411 39.1445 52.976 39.7265 52.652C40.3085 52.328 40.9505 52.166 41.6525 52.166C42.3545 52.166 42.9965 52.328 43.5785 52.652C44.1605 52.976 44.6225 53.411 44.9645 53.957C45.3125 54.497 45.4865 55.097 45.4865 55.757C45.4865 56.285 45.3605 56.777 45.1085 57.233C44.8625 57.689 44.5355 58.067 44.1275 58.367C44.6375 58.709 45.0395 59.141 45.3335 59.663C45.6335 60.185 45.7835 60.749 45.7835 61.355C45.7835 62.069 45.5975 62.72 45.2255 63.308C44.8535 63.896 44.3555 64.364 43.7315 64.712C43.1075 65.06 42.4145 65.234 41.6525 65.234ZM41.6525 63.362C42.0485 63.362 42.4085 63.272 42.7325 63.092C43.0565 62.912 43.3145 62.672 43.5065 62.372C43.7045 62.066 43.8035 61.727 43.8035 61.355C43.8035 60.989 43.7045 60.656 43.5065 60.356C43.3145 60.05 43.0565 59.807 42.7325 59.627C42.4085 59.447 42.0485 59.357 41.6525 59.357C41.2625 59.357 40.9025 59.447 40.5725 59.627C40.2485 59.807 39.9875 60.05 39.7895 60.356C39.5975 60.656 39.5015 60.989 39.5015 61.355C39.5015 61.727 39.5975 62.066 39.7895 62.372C39.9875 62.672 40.2485 62.912 40.5725 63.092C40.9025 63.272 41.2625 63.362 41.6525 63.362ZM41.6525 57.485C41.9945 57.485 42.3035 57.407 42.5795 57.251C42.8615 57.095 43.0865 56.888 43.2545 56.63C43.4225 56.366 43.5065 56.075 43.5065 55.757C43.5065 55.439 43.4225 55.151 43.2545 54.893C43.0865 54.635 42.8615 54.428 42.5795 54.272C42.3035 54.116 41.9945 54.038 41.6525 54.038C41.3105 54.038 40.9985 54.116 40.7165 54.272C40.4405 54.428 40.2185 54.635 40.0505 54.893C39.8825 55.151 39.7985 55.439 39.7985 55.757C39.7985 56.075 39.8825 56.366 40.0505 56.63C40.2185 56.888 40.4405 57.095 40.7165 57.251C40.9985 57.407 41.3105 57.485 41.6525 57.485ZM48.1971 65.234C47.9211 65.234 47.6871 65.138 47.4951 64.946C47.3091 64.754 47.2161 64.52 47.2161 64.244C47.2161 63.974 47.3091 63.743 47.4951 63.551C47.6871 63.359 47.9211 63.263 48.1971 63.263C48.4731 63.263 48.7071 63.359 48.8991 63.551C49.0911 63.743 49.1871 63.974 49.1871 64.244C49.1871 64.52 49.0911 64.754 48.8991 64.946C48.7071 65.138 48.4731 65.234 48.1971 65.234Z" fill="white"/>
<path d="M31.992 110L26.98 90.4H29.976L33.644 104.778L37.298 90.4H39.944L43.612 104.778L47.28 90.4H50.276L45.292 110H41.946L38.628 97.022L35.31 110H31.992ZM57.0548 110.364C55.7668 110.364 54.5908 110.033 53.5268 109.37C52.4722 108.707 51.6275 107.821 50.9928 106.71C50.3675 105.59 50.0548 104.353 50.0548 103C50.0548 101.973 50.2368 101.017 50.6008 100.13C50.9648 99.234 51.4642 98.45 52.0988 97.778C52.7428 97.0967 53.4895 96.5647 54.3388 96.182C55.1882 95.7993 56.0935 95.608 57.0548 95.608C58.1282 95.608 59.1128 95.832 60.0088 96.28C60.9048 96.7187 61.6702 97.33 62.3048 98.114C62.9395 98.8887 63.4062 99.7847 63.7048 100.802C64.0035 101.81 64.0922 102.883 63.9708 104.022H53.1768C53.2982 104.666 53.5315 105.249 53.8768 105.772C54.2315 106.285 54.6795 106.691 55.2208 106.99C55.7715 107.289 56.3828 107.443 57.0548 107.452C57.7642 107.452 58.4082 107.275 58.9868 106.92C59.5748 106.565 60.0555 106.075 60.4288 105.45L63.3828 106.136C62.8228 107.377 61.9782 108.395 60.8488 109.188C59.7195 109.972 58.4548 110.364 57.0548 110.364ZM53.0788 101.796H61.0308C60.9375 101.124 60.6995 100.517 60.3168 99.976C59.9435 99.4253 59.4722 98.9913 58.9028 98.674C58.3428 98.3473 57.7268 98.184 57.0548 98.184C56.3922 98.184 55.7762 98.3427 55.2068 98.66C54.6468 98.9773 54.1802 99.4113 53.8068 99.962C53.4428 100.503 53.2002 101.115 53.0788 101.796ZM73.378 95.608C74.7406 95.608 75.9773 95.9393 77.088 96.602C78.208 97.2647 79.0993 98.156 79.762 99.276C80.4246 100.387 80.756 101.623 80.756 102.986C80.756 104.003 80.5646 104.96 80.182 105.856C79.7993 106.743 79.2673 107.527 78.586 108.208C77.914 108.88 77.13 109.407 76.234 109.79C75.3473 110.173 74.3953 110.364 73.378 110.364C72.398 110.364 71.5393 110.14 70.802 109.692C70.074 109.235 69.4766 108.651 69.01 107.942V110H66.098V89H69.01V98.03C69.4766 97.3113 70.074 96.728 70.802 96.28C71.5393 95.832 72.398 95.608 73.378 95.608ZM73.35 107.536C74.162 107.536 74.904 107.331 75.576 106.92C76.248 106.509 76.78 105.959 77.172 105.268C77.5733 104.577 77.774 103.817 77.774 102.986C77.774 102.137 77.5733 101.367 77.172 100.676C76.7706 99.9853 76.234 99.4393 75.562 99.038C74.89 98.6273 74.1526 98.422 73.35 98.422C72.538 98.422 71.824 98.6273 71.208 99.038C70.592 99.4487 70.1113 99.9993 69.766 100.69C69.4206 101.381 69.248 102.146 69.248 102.986C69.248 103.826 69.4206 104.591 69.766 105.282C70.1113 105.973 70.592 106.523 71.208 106.934C71.824 107.335 72.538 107.536 73.35 107.536ZM88.6458 110.364C87.4605 110.364 86.3965 110.089 85.4538 109.538C84.5205 108.987 83.7832 108.25 83.2418 107.326C82.7005 106.402 82.4298 105.375 82.4298 104.246H85.3418C85.3418 104.834 85.4818 105.371 85.7618 105.856C86.0418 106.341 86.4292 106.729 86.9238 107.018C87.4185 107.307 87.9925 107.452 88.6458 107.452C89.2338 107.452 89.7798 107.307 90.2838 107.018C90.7878 106.729 91.1938 106.341 91.5018 105.856C91.8098 105.371 91.9638 104.834 91.9638 104.246C91.9638 103.499 91.7678 102.874 91.3758 102.37C90.9838 101.866 90.4378 101.493 89.7378 101.25C89.0472 100.998 88.2492 100.872 87.3438 100.872V98.576C88.5758 98.576 89.5605 98.3333 90.2978 97.848C91.0352 97.3627 91.4038 96.6393 91.4038 95.678C91.4038 95.174 91.2685 94.7167 90.9978 94.306C90.7365 93.886 90.3865 93.5547 89.9478 93.312C89.5185 93.06 89.0565 92.934 88.5618 92.934C88.0485 92.934 87.5538 93.06 87.0778 93.312C86.6112 93.5547 86.2285 93.886 85.9298 94.306C85.6312 94.7167 85.4818 95.174 85.4818 95.678H82.5698C82.5698 94.9033 82.7285 94.1753 83.0458 93.494C83.3725 92.8033 83.8112 92.2013 84.3618 91.688C84.9218 91.1653 85.5565 90.7593 86.2658 90.47C86.9845 90.1713 87.7358 90.022 88.5198 90.022C89.5465 90.022 90.4985 90.2787 91.3758 90.792C92.2625 91.296 92.9718 91.9773 93.5038 92.836C94.0452 93.6853 94.3158 94.6327 94.3158 95.678C94.3158 96.5087 94.1105 97.2973 93.6998 98.044C93.2985 98.7813 92.7385 99.304 92.0198 99.612C92.6452 99.836 93.1678 100.191 93.5878 100.676C94.0172 101.152 94.3392 101.703 94.5538 102.328C94.7685 102.944 94.8758 103.583 94.8758 104.246C94.8758 105.366 94.5912 106.393 94.0218 107.326C93.4525 108.25 92.6918 108.987 91.7398 109.538C90.7972 110.089 89.7658 110.364 88.6458 110.364ZM104.133 110V90.4H110.615C111.968 90.4 113.238 90.6567 114.423 91.17C115.608 91.674 116.649 92.3787 117.545 93.284C118.441 94.18 119.141 95.2207 119.645 96.406C120.158 97.582 120.415 98.8467 120.415 100.2C120.415 101.553 120.158 102.823 119.645 104.008C119.141 105.184 118.441 106.225 117.545 107.13C116.649 108.026 115.608 108.731 114.423 109.244C113.238 109.748 111.968 110 110.615 110H104.133ZM107.045 107.088H110.615C111.567 107.088 112.454 106.911 113.275 106.556C114.106 106.201 114.838 105.707 115.473 105.072C116.117 104.437 116.616 103.705 116.971 102.874C117.326 102.043 117.503 101.152 117.503 100.2C117.503 99.248 117.326 98.3567 116.971 97.526C116.616 96.6953 116.117 95.9627 115.473 95.328C114.838 94.6933 114.106 94.1987 113.275 93.844C112.454 93.4893 111.567 93.312 110.615 93.312H107.045V107.088ZM128.75 110.364C127.462 110.364 126.286 110.033 125.222 109.37C124.167 108.707 123.323 107.821 122.688 106.71C122.063 105.59 121.75 104.353 121.75 103C121.75 101.973 121.932 101.017 122.296 100.13C122.66 99.234 123.159 98.45 123.794 97.778C124.438 97.0967 125.185 96.5647 126.034 96.182C126.883 95.7993 127.789 95.608 128.75 95.608C129.823 95.608 130.808 95.832 131.704 96.28C132.6 96.7187 133.365 97.33 134 98.114C134.635 98.8887 135.101 99.7847 135.4 100.802C135.699 101.81 135.787 102.883 135.666 104.022H124.872C124.993 104.666 125.227 105.249 125.572 105.772C125.927 106.285 126.375 106.691 126.916 106.99C127.467 107.289 128.078 107.443 128.75 107.452C129.459 107.452 130.103 107.275 130.682 106.92C131.27 106.565 131.751 106.075 132.124 105.45L135.078 106.136C134.518 107.377 133.673 108.395 132.544 109.188C131.415 109.972 130.15 110.364 128.75 110.364ZM124.774 101.796H132.726C132.633 101.124 132.395 100.517 132.012 99.976C131.639 99.4253 131.167 98.9913 130.598 98.674C130.038 98.3473 129.422 98.184 128.75 98.184C128.087 98.184 127.471 98.3427 126.902 98.66C126.342 98.9773 125.875 99.4113 125.502 99.962C125.138 100.503 124.895 101.115 124.774 101.796ZM137.793 110V90.4H149.343V93.312H140.705V98.044H147.999V100.956H140.705V110H137.793ZM150.563 96H153.475V110H150.563V96ZM152.047 93.97C151.599 93.97 151.225 93.8253 150.927 93.536C150.628 93.2467 150.479 92.8827 150.479 92.444C150.479 92.0147 150.628 91.6553 150.927 91.366C151.225 91.0673 151.594 90.918 152.033 90.918C152.462 90.918 152.826 91.0673 153.125 91.366C153.423 91.6553 153.573 92.0147 153.573 92.444C153.573 92.8827 153.423 93.2467 153.125 93.536C152.835 93.8253 152.476 93.97 152.047 93.97ZM27.68 144L31.474 124.4H33.826L38.852 137.602L43.85 124.4H46.202L50.01 144H47.042L44.508 130.882L39.818 143.258H37.858L33.182 130.882L30.648 144H27.68ZM58.1759 144.364C56.8879 144.364 55.7119 144.033 54.6479 143.37C53.5933 142.707 52.7486 141.821 52.1139 140.71C51.4886 139.59 51.1759 138.353 51.1759 137C51.1759 135.973 51.3579 135.017 51.7219 134.13C52.0859 133.234 52.5853 132.45 53.2199 131.778C53.8639 131.097 54.6106 130.565 55.4599 130.182C56.3093 129.799 57.2146 129.608 58.1759 129.608C59.4639 129.608 60.6353 129.939 61.6899 130.602C62.7539 131.265 63.5986 132.156 64.2239 133.276C64.8586 134.396 65.1759 135.637 65.1759 137C65.1759 138.017 64.9939 138.969 64.6299 139.856C64.2659 140.743 63.7619 141.527 63.1179 142.208C62.4833 142.88 61.7413 143.407 60.8919 143.79C60.0519 144.173 59.1466 144.364 58.1759 144.364ZM58.1759 141.452C58.9506 141.452 59.6459 141.247 60.2619 140.836C60.8779 140.425 61.3633 139.884 61.7179 139.212C62.0819 138.531 62.2639 137.793 62.2639 137C62.2639 136.188 62.0773 135.441 61.7039 134.76C61.3399 134.079 60.8499 133.537 60.2339 133.136C59.6179 132.725 58.9319 132.52 58.1759 132.52C57.4106 132.52 56.7153 132.725 56.0899 133.136C55.4739 133.547 54.9839 134.093 54.6199 134.774C54.2653 135.455 54.0879 136.197 54.0879 137C54.0879 137.831 54.2746 138.582 54.6479 139.254C55.0213 139.926 55.5159 140.463 56.1319 140.864C56.7573 141.256 57.4386 141.452 58.1759 141.452ZM74.5264 129.608C75.8891 129.608 77.1257 129.939 78.2364 130.602C79.3564 131.265 80.2477 132.156 80.9104 133.276C81.5731 134.387 81.9044 135.623 81.9044 136.986C81.9044 138.003 81.7131 138.96 81.3304 139.856C80.9477 140.743 80.4157 141.527 79.7344 142.208C79.0624 142.88 78.2784 143.407 77.3824 143.79C76.4957 144.173 75.5437 144.364 74.5264 144.364C73.5464 144.364 72.6877 144.14 71.9504 143.692C71.2224 143.235 70.6251 142.651 70.1584 141.942V144H67.2464V123H70.1584V132.03C70.6251 131.311 71.2224 130.728 71.9504 130.28C72.6877 129.832 73.5464 129.608 74.5264 129.608ZM74.4984 141.536C75.3104 141.536 76.0524 141.331 76.7244 140.92C77.3964 140.509 77.9284 139.959 78.3204 139.268C78.7217 138.577 78.9224 137.817 78.9224 136.986C78.9224 136.137 78.7217 135.367 78.3204 134.676C77.9191 133.985 77.3824 133.439 76.7104 133.038C76.0384 132.627 75.3011 132.422 74.4984 132.422C73.6864 132.422 72.9724 132.627 72.3564 133.038C71.7404 133.449 71.2597 133.999 70.9144 134.69C70.5691 135.381 70.3964 136.146 70.3964 136.986C70.3964 137.826 70.5691 138.591 70.9144 139.282C71.2597 139.973 71.7404 140.523 72.3564 140.934C72.9724 141.335 73.6864 141.536 74.4984 141.536ZM83.8988 130H86.8108V144H83.8988V130ZM85.3828 127.97C84.9348 127.97 84.5614 127.825 84.2628 127.536C83.9641 127.247 83.8148 126.883 83.8148 126.444C83.8148 126.015 83.9641 125.655 84.2628 125.366C84.5614 125.067 84.9301 124.918 85.3688 124.918C85.7981 124.918 86.1621 125.067 86.4608 125.366C86.7594 125.655 86.9088 126.015 86.9088 126.444C86.9088 126.883 86.7594 127.247 86.4608 127.536C86.1714 127.825 85.8121 127.97 85.3828 127.97ZM90.2152 144V123H93.1272V144H90.2152ZM102.445 144.364C101.157 144.364 99.9815 144.033 98.9175 143.37C97.8628 142.707 97.0181 141.821 96.3835 140.71C95.7581 139.59 95.4455 138.353 95.4455 137C95.4455 135.973 95.6275 135.017 95.9915 134.13C96.3555 133.234 96.8548 132.45 97.4895 131.778C98.1335 131.097 98.8801 130.565 99.7295 130.182C100.579 129.799 101.484 129.608 102.445 129.608C103.519 129.608 104.503 129.832 105.399 130.28C106.295 130.719 107.061 131.33 107.695 132.114C108.33 132.889 108.797 133.785 109.095 134.802C109.394 135.81 109.483 136.883 109.361 138.022H98.5675C98.6888 138.666 98.9221 139.249 99.2675 139.772C99.6221 140.285 100.07 140.691 100.611 140.99C101.162 141.289 101.773 141.443 102.445 141.452C103.155 141.452 103.799 141.275 104.377 140.92C104.965 140.565 105.446 140.075 105.819 139.45L108.773 140.136C108.213 141.377 107.369 142.395 106.239 143.188C105.11 143.972 103.845 144.364 102.445 144.364ZM98.4695 135.796H106.421C106.328 135.124 106.09 134.517 105.707 133.976C105.334 133.425 104.863 132.991 104.293 132.674C103.733 132.347 103.117 132.184 102.445 132.184C101.783 132.184 101.167 132.343 100.597 132.66C100.037 132.977 99.5708 133.411 99.1975 133.962C98.8335 134.503 98.5908 135.115 98.4695 135.796ZM27.68 178V158.4H34.638C35.646 158.4 36.556 158.605 37.368 159.016C38.1893 159.427 38.838 160.019 39.314 160.794C39.7993 161.559 40.042 162.479 40.042 163.552C40.042 164.075 39.958 164.588 39.79 165.092C39.622 165.596 39.384 166.039 39.076 166.422C38.768 166.805 38.3947 167.075 37.956 167.234C38.5533 167.383 39.048 167.654 39.44 168.046C39.8413 168.429 40.1587 168.877 40.392 169.39C40.6253 169.903 40.7887 170.435 40.882 170.986C40.9847 171.537 41.036 172.059 41.036 172.554C41.036 173.599 40.784 174.533 40.28 175.354C39.776 176.175 39.0993 176.824 38.25 177.3C37.41 177.767 36.4813 178 35.464 178H27.68ZM30.592 175.48H35.184C35.7813 175.48 36.3227 175.331 36.808 175.032C37.3027 174.733 37.6947 174.323 37.984 173.8C38.2733 173.268 38.418 172.671 38.418 172.008C38.418 171.429 38.2733 170.883 37.984 170.37C37.6947 169.847 37.3027 169.427 36.808 169.11C36.3227 168.793 35.7813 168.634 35.184 168.634H30.592V175.48ZM30.592 166.156H34.33C35.0953 166.156 35.7533 165.923 36.304 165.456C36.8547 164.989 37.13 164.35 37.13 163.538C37.13 162.67 36.8547 162.021 36.304 161.592C35.7533 161.153 35.0953 160.934 34.33 160.934H30.592V166.156ZM54.0759 164H56.9879V178H54.0619L53.9499 175.97C53.5392 176.689 52.9839 177.267 52.2839 177.706C51.5839 178.145 50.7579 178.364 49.8059 178.364C48.7792 178.364 47.8132 178.173 46.9079 177.79C46.0026 177.398 45.2046 176.857 44.5139 176.166C43.8326 175.475 43.3006 174.682 42.9179 173.786C42.5352 172.881 42.3439 171.91 42.3439 170.874C42.3439 169.875 42.5306 168.937 42.9039 168.06C43.2772 167.173 43.7952 166.399 44.4579 165.736C45.1206 165.073 45.8859 164.555 46.7539 164.182C47.6312 163.799 48.5692 163.608 49.5679 163.608C50.5852 163.608 51.4812 163.841 52.2559 164.308C53.0399 164.765 53.6886 165.353 54.2019 166.072L54.0759 164ZM49.7359 175.55C50.5572 175.55 51.2759 175.349 51.8919 174.948C52.5079 174.537 52.9839 173.987 53.3199 173.296C53.6652 172.605 53.8379 171.84 53.8379 171C53.8379 170.151 53.6652 169.381 53.3199 168.69C52.9746 167.999 52.4939 167.453 51.8779 167.052C51.2712 166.641 50.5572 166.436 49.7359 166.436C48.9239 166.436 48.1819 166.641 47.5099 167.052C46.8379 167.463 46.3059 168.013 45.9139 168.704C45.5219 169.395 45.3259 170.16 45.3259 171C45.3259 171.849 45.5266 172.619 45.9279 173.31C46.3386 173.991 46.8752 174.537 47.5379 174.948C48.2099 175.349 48.9426 175.55 49.7359 175.55ZM72.3816 169.222V178H69.4696V169.936C69.4696 169.311 69.3156 168.741 69.0076 168.228C68.7089 167.715 68.3029 167.309 67.7896 167.01C67.2856 166.702 66.7162 166.548 66.0816 166.548C65.4656 166.548 64.9009 166.702 64.3876 167.01C63.8742 167.309 63.4636 167.715 63.1556 168.228C62.8476 168.741 62.6936 169.311 62.6936 169.936V178H59.7816V164H62.6936V165.484C63.1789 164.905 63.7762 164.448 64.4856 164.112C65.1949 163.776 65.9602 163.608 66.7816 163.608C67.8176 163.608 68.7602 163.86 69.6096 164.364C70.4589 164.868 71.1309 165.545 71.6256 166.394C72.1296 167.243 72.3816 168.186 72.3816 169.222ZM87.2555 178H83.8955L80.4515 172.064L78.1975 174.752V178H75.2855V157H78.1975V170.23L83.4055 164H87.2135L82.4395 169.698L87.2555 178ZM89.4769 164H92.3889V178H89.4769V164ZM90.9609 161.97C90.5129 161.97 90.1395 161.825 89.8409 161.536C89.5422 161.247 89.3929 160.883 89.3929 160.444C89.3929 160.015 89.5422 159.655 89.8409 159.366C90.1395 159.067 90.5082 158.918 90.9469 158.918C91.3762 158.918 91.7402 159.067 92.0389 159.366C92.3375 159.655 92.4869 160.015 92.4869 160.444C92.4869 160.883 92.3375 161.247 92.0389 161.536C91.7495 161.825 91.3902 161.97 90.9609 161.97ZM108.229 169.222V178H105.317V169.936C105.317 169.311 105.163 168.741 104.855 168.228C104.557 167.715 104.151 167.309 103.637 167.01C103.133 166.702 102.564 166.548 101.929 166.548C101.313 166.548 100.749 166.702 100.235 167.01C99.7219 167.309 99.3112 167.715 99.0032 168.228C98.6952 168.741 98.5412 169.311 98.5412 169.936V178H95.6292V164H98.5412V165.484C99.0266 164.905 99.6239 164.448 100.333 164.112C101.043 163.776 101.808 163.608 102.629 163.608C103.665 163.608 104.608 163.86 105.457 164.364C106.307 164.868 106.979 165.545 107.473 166.394C107.977 167.243 108.229 168.186 108.229 169.222ZM121.404 164H124.316V178.364C124.316 179.325 124.111 180.212 123.7 181.024C123.299 181.836 122.753 182.536 122.062 183.124C121.372 183.721 120.578 184.183 119.682 184.51C118.796 184.837 117.867 185 116.896 185C115.916 185 114.974 184.79 114.068 184.37C113.163 183.959 112.365 183.399 111.674 182.69C110.993 181.981 110.484 181.178 110.148 180.282L112.822 179.078C113.009 179.657 113.308 180.17 113.718 180.618C114.138 181.066 114.624 181.421 115.174 181.682C115.734 181.943 116.308 182.074 116.896 182.074C117.475 182.074 118.03 181.981 118.562 181.794C119.104 181.617 119.584 181.365 120.004 181.038C120.434 180.711 120.774 180.319 121.026 179.862C121.278 179.405 121.404 178.905 121.404 178.364V175.998C120.947 176.707 120.359 177.281 119.64 177.72C118.922 178.149 118.086 178.364 117.134 178.364C116.145 178.364 115.212 178.173 114.334 177.79C113.457 177.407 112.687 176.88 112.024 176.208C111.362 175.527 110.844 174.743 110.47 173.856C110.097 172.969 109.91 172.017 109.91 171C109.91 169.983 110.097 169.031 110.47 168.144C110.844 167.248 111.362 166.464 112.024 165.792C112.687 165.111 113.457 164.579 114.334 164.196C115.212 163.813 116.145 163.622 117.134 163.622C118.086 163.622 118.922 163.841 119.64 164.28C120.359 164.709 120.947 165.283 121.404 166.002V164ZM117.162 175.55C117.974 175.55 118.684 175.345 119.29 174.934C119.897 174.514 120.368 173.959 120.704 173.268C121.04 172.577 121.208 171.821 121.208 171C121.208 170.16 121.036 169.399 120.69 168.718C120.354 168.027 119.883 167.477 119.276 167.066C118.67 166.646 117.965 166.436 117.162 166.436C116.378 166.436 115.66 166.641 115.006 167.052C114.362 167.463 113.849 168.013 113.466 168.704C113.084 169.395 112.892 170.16 112.892 171C112.892 171.84 113.084 172.605 113.466 173.296C113.858 173.987 114.376 174.537 115.02 174.948C115.674 175.349 116.388 175.55 117.162 175.55Z" fill="white"/>
</g>
</svg>
