<svg width="81" height="50" viewBox="0 0 81 50" fill="none" xmlns="http://www.w3.org/2000/svg">
<path d="M3.362 8.286C3.362 2.013 7.708 0.987998 10.537 0.987998C11.644 0.987998 13.161 1.111 14.35 1.808V6.113C13.325 5.621 12.341 5.662 11.972 5.662C9.881 5.662 8.856 6.81 8.856 8.901V9.68H14.35V14.067H8.856V31H3.362V14.067H0.656V9.68H3.362V8.286ZM25.8902 31.41C20.9292 31.41 15.6402 27.72 15.6402 20.34C15.6402 12.96 20.9292 9.27 25.8902 9.27C29.7032 9.27 32.1632 11.361 32.6962 12.55H32.8192V9.68H38.3132V31H32.8192V28.13H32.6962C32.1632 29.319 29.7032 31.41 25.8902 31.41ZM21.0522 20.34C21.0522 24.317 23.9222 26.49 26.9972 26.49C30.0722 26.49 32.9422 24.358 32.9422 20.34C32.9422 16.322 30.0722 14.19 26.9972 14.19C23.9222 14.19 21.0522 16.363 21.0522 20.34ZM52.6994 31.41C47.0824 31.41 41.4654 27.556 41.4654 20.34C41.4654 13.124 47.0824 9.27 52.6994 9.27C56.4714 9.27 59.8334 11.033 61.8834 14.518L57.8654 17.101C56.7584 15.42 54.9544 14.231 52.7404 14.231C49.6654 14.231 46.8774 16.527 46.8774 20.34C46.8774 24.153 49.6654 26.449 52.7404 26.449C54.9544 26.449 56.7584 25.26 57.8654 23.579L61.8834 26.162C59.8334 29.606 56.4714 31.41 52.6994 31.41ZM65.0324 31V9.68H70.5264V31H65.0324ZM65.0324 6.728V1.89H70.5264V6.728H65.0324ZM74.7219 31V1.89H80.2159V31H74.7219Z" fill="url(#paint0_linear_0_1)"/>
<path d="M19.51 50V42.9H22.02C23.56 42.9 24.56 43.86 24.56 45.31C24.56 46.76 23.56 47.72 22.02 47.72H20.88V50H19.51ZM20.88 46.46H21.9C22.64 46.46 23.17 46.14 23.17 45.31C23.17 44.49 22.64 44.16 21.9 44.16H20.88V46.46ZM40.1056 42.9H41.5556L44.2956 50H42.8156L42.3456 48.72H39.3256L38.8556 50H37.3756L40.1056 42.9ZM39.7856 47.46H41.8856L40.8356 44.61L39.7856 47.46ZM59.239 50V47.16L56.669 42.9H58.219L59.919 45.87L61.629 42.9H63.179L60.609 47.16V50H59.239Z" fill="url(#paint1_linear_0_1)"/>
<defs>
<linearGradient id="paint0_linear_0_1" x1="41.5" y1="-17" x2="41.5" y2="47" gradientUnits="userSpaceOnUse">
<stop stop-color="#19A1FC"/>
<stop offset="1" stop-color="#046CF1"/>
</linearGradient>
<linearGradient id="paint1_linear_0_1" x1="41.5" y1="38" x2="41.5" y2="54" gradientUnits="userSpaceOnUse">
<stop stop-color="#19A1FC"/>
<stop offset="1" stop-color="#046CF1"/>
</linearGradient>
</defs>
</svg>

