<svg width="147" height="27" viewBox="0 0 147 27" fill="none" xmlns="http://www.w3.org/2000/svg">
<path d="M30.2744 7.94403C24.9686 7.94403 20.8229 11.9718 20.8229 17.3637C20.8229 22.7557 24.8639 26.749 30.2744 26.749C35.685 26.749 39.7962 22.6868 39.7962 17.3293C39.7962 12.0062 35.7552 7.94403 30.2744 7.94403ZM30.3102 22.8631C27.2888 22.8631 25.0747 20.5165 25.0747 17.3651C25.0747 14.1779 27.253 11.8326 30.2744 11.8326C33.3317 11.8326 35.5444 14.2137 35.5444 17.3651C35.5444 20.5165 33.3317 22.8631 30.3102 22.8631ZM40.955 12.042H43.5906V26.4003H47.8066V8.29404H40.955V12.042ZM10.2126 11.8312C12.4267 11.8312 14.1833 13.1968 14.8502 15.2279H19.3128C18.5041 10.886 14.9205 7.94403 10.2484 7.94403C4.94261 7.94403 0.796875 11.9718 0.796875 17.3651C0.796875 22.7584 4.83787 26.7503 10.2484 26.7503C14.8157 26.7503 18.4696 23.8084 19.2783 19.4306H14.8502C14.2178 21.4618 12.4612 22.8631 10.2471 22.8631C7.18982 22.8631 5.04735 20.5165 5.04735 17.3651C5.04867 14.1779 7.15668 11.8312 10.2126 11.8312ZM121.062 15.6137L117.97 15.159C116.494 14.9495 115.44 14.4589 115.44 13.3029C115.44 12.042 116.811 11.4123 118.673 11.4123C120.71 11.4123 122.011 12.2873 122.292 13.7231H126.367C125.91 10.0812 123.099 7.94536 118.779 7.94536C114.316 7.94536 111.365 10.2217 111.365 13.4434C111.365 16.5245 113.298 18.3117 117.197 18.8712L120.289 19.3259C121.8 19.5354 122.643 20.132 122.643 21.2523C122.643 22.6881 121.168 23.2834 119.13 23.2834C116.635 23.2834 115.23 22.2678 115.019 20.7273H110.873C111.26 24.2645 114.035 26.7503 119.094 26.7503C123.697 26.7503 126.753 24.6489 126.753 21.0415C126.753 17.8198 124.541 16.1387 121.062 15.6137ZM45.6986 0.83516C44.1528 0.83516 42.9927 1.95545 42.9927 3.49601C42.9927 5.03658 44.1514 6.15687 45.6986 6.15687C47.2445 6.15687 48.4046 5.03658 48.4046 3.49601C48.4046 1.95545 47.2445 0.83516 45.6986 0.83516ZM107.57 14.4934C107.57 10.5717 105.181 7.94536 100.122 7.94536C95.3441 7.94536 92.6739 10.3623 92.1463 14.0745H96.3278C96.5386 12.6386 97.6629 11.4481 100.052 11.4481C102.196 11.4481 103.25 12.3934 103.25 13.5495C103.25 15.0556 101.317 15.44 98.9277 15.6853C95.6954 16.0353 91.6902 17.1556 91.6902 21.3583C91.6902 24.6158 94.1151 26.7158 97.9797 26.7158C101.001 26.7158 102.898 25.455 103.848 23.4584C103.988 25.2442 105.323 26.4003 107.186 26.4003H109.645V22.6536H107.572V14.4934H107.57ZM103.425 19.0462C103.425 21.4631 101.317 23.2489 98.7513 23.2489C97.1697 23.2489 95.8346 22.5834 95.8346 21.1833C95.8346 19.3975 97.9784 18.907 99.9459 18.6975C101.843 18.5225 102.897 18.1022 103.425 17.2961V19.0462ZM81.0441 7.94403C78.6895 7.94403 76.7221 8.92511 75.3167 10.5704V0.660156H71.1007V26.4003H75.2465V24.0192C76.6518 25.7348 78.6551 26.7503 81.0441 26.7503C86.1033 26.7503 89.9335 22.7584 89.9335 17.3651C89.9335 11.9718 86.0331 7.94403 81.0441 7.94403ZM80.4117 22.8631C77.3903 22.8631 75.1762 20.5165 75.1762 17.3651C75.1762 14.2137 77.4247 11.8326 80.4462 11.8326C83.5035 11.8326 85.6459 14.1792 85.6459 17.3651C85.6459 20.5165 83.4332 22.8631 80.4117 22.8631ZM61.0168 7.94403C58.2764 7.94403 56.4839 9.06432 55.4299 10.6407V8.29404H51.2484V26.399H55.4644V16.559C55.4644 13.7921 57.2211 11.8312 59.8209 11.8312C62.2458 11.8312 63.7559 13.5468 63.7559 16.034V26.4003H67.9719V15.7198C67.9732 11.1657 65.6199 7.94403 61.0168 7.94403ZM146.851 16.7698C146.851 11.5873 143.056 7.94536 137.961 7.94536C132.551 7.94536 128.58 12.0076 128.58 17.3651C128.58 23.0036 132.832 26.7503 138.032 26.7503C142.424 26.7503 145.867 24.1584 146.745 20.482H142.352C141.72 22.0928 140.174 23.0036 138.101 23.0036C135.395 23.0036 133.357 21.3225 132.901 18.3806H146.85V16.7698H146.851ZM133.148 15.3684C133.816 12.8468 135.713 11.6218 137.891 11.6218C140.28 11.6218 142.107 12.9873 142.529 15.3684H133.148Z" fill="#0052FF"/>
</svg>
