<svg width="99" height="33" viewBox="0 0 99 33" fill="none" xmlns="http://www.w3.org/2000/svg">
<path d="M37.5344 0.962739L24.592 31.8419H16.148L9.77902 7.19891C9.39235 5.68106 9.05614 5.12499 7.88016 4.48552C5.9602 3.44393 2.78959 2.46669 0 1.86017L0.189474 0.962742H13.7817C15.5142 0.962742 17.0717 2.11606 17.4651 4.1112L20.8288 21.9794L29.1419 0.962229H37.5344V0.962739ZM70.6193 21.7601C70.6532 13.6101 59.3497 13.1612 59.4274 9.52048C59.4516 8.41247 60.5066 7.23443 62.8158 6.93375C63.9604 6.78392 67.114 6.66962 70.6908 8.31567L72.0939 1.76749C70.1718 1.06984 67.6989 0.398438 64.622 0.398438C56.7264 0.398438 51.1698 4.5957 51.123 10.6058C51.072 15.0513 55.0891 17.5319 58.1155 19.0091C61.229 20.5218 62.2736 21.4939 62.2618 22.847C62.2397 24.9183 59.7786 25.8328 57.4786 25.8688C53.4636 25.9306 51.1338 24.7824 49.2766 23.919L47.8288 30.6839C49.6952 31.5402 53.1403 32.2872 56.712 32.3248C65.1039 32.3248 70.5935 28.1796 70.6193 21.7601ZM91.4686 31.8419H98.8566L92.4077 0.962736H85.5887C84.0554 0.962736 82.7621 1.85553 82.1895 3.22819L70.2027 31.8419H78.5905L80.2557 27.2296H90.5043L91.4686 31.8419ZM82.5556 20.9008L86.7601 9.3068L89.18 20.9008H82.5556ZM48.9476 0.962739L42.3423 31.8419H34.3545L40.9624 0.962742L48.9476 0.962739Z" fill="#1434CB"/>
</svg>
