<svg width="189" height="39" viewBox="0 0 189 39" fill="none" xmlns="http://www.w3.org/2000/svg">
<path d="M62.8057 8.97656H61.7959C60.8101 8.97656 60.3773 9.26509 59.7281 10.3471L54.3423 19.0749L52.1063 10.4432C51.8418 9.40935 51.5533 9.00061 50.4232 9.00061H49.5817C48.4757 9.00061 47.7784 9.64979 47.562 10.8039L45.0615 24.8454C44.8691 25.9033 45.35 26.4563 46.2637 26.4563H46.6484C47.6101 26.4563 48.0429 25.9755 48.2112 24.9416L50.2309 13.593L52.1784 21.1908C52.3467 21.9602 52.491 22.4651 53.9576 22.4651C55.1839 22.4651 55.4724 22.0323 55.9052 21.335L60.6658 13.5208L58.6462 24.8694C58.4538 25.9514 58.9347 26.4804 59.8243 26.4804H60.233C61.1948 26.4804 61.6276 25.9755 61.7959 24.9656L64.2724 10.8279C64.4888 9.69787 63.9358 8.97656 62.8057 8.97656Z" fill="black"/>
<path d="M77.8331 19.028C77.7128 15.6138 75.4046 13.1133 71.5096 13.1133C67.0615 13.1133 64.3446 16.7439 64.4648 20.7111C64.609 24.3417 67.1096 26.6739 70.7883 26.6739C75.3566 26.6499 77.9533 22.9952 77.8331 19.028ZM70.8123 24.1734C68.7205 24.1734 67.3981 22.6586 67.326 20.5909C67.2298 17.922 68.985 15.5657 71.4855 15.5657C73.409 15.5657 74.9238 17.0805 74.9959 19.1723C75.068 21.9854 73.3128 24.1734 70.8123 24.1734Z" fill="black"/>
<path d="M87.7632 13.1133C85.9119 13.1133 84.4452 14.0269 83.4594 15.5657C83.5556 13.8105 82.5939 13.3056 81.6081 13.3056C81.1512 13.3056 80.7906 13.4258 80.7665 13.4739L78.7469 24.8947C78.5545 26.0728 79.2037 26.4094 80.0693 26.4094H80.4299C81.3676 26.4094 81.7523 26.0247 81.9447 24.8947L83.1469 18.0422C84.0124 16.5275 84.9742 15.8062 86.4649 15.8062C87.9556 15.8062 88.8452 16.6958 88.8693 18.1625C88.8933 18.5472 88.7971 19.028 88.725 19.6051L87.7873 24.8947C87.5949 26.0728 88.2682 26.4094 89.1097 26.4094H89.4704C90.4081 26.4094 90.7928 26.0247 90.9851 24.8947L92.019 19.0521C92.1392 18.4029 92.2113 17.8258 92.1873 17.2969C92.1152 14.8444 90.4802 13.1133 87.7632 13.1133Z" fill="black"/>
<path d="M144.65 13.1133C143.135 13.1133 142.005 13.9789 141.236 15.5657C141.356 13.8105 140.394 13.3056 139.408 13.3056C138.927 13.3056 138.591 13.4258 138.567 13.4739L136.523 24.8947C136.331 26.0728 137.1 26.4094 137.966 26.4094H138.326C139.144 26.4094 139.528 26.0247 139.745 24.8947L140.418 21.0717C140.923 18.0903 142.029 16.0226 143.808 16.0226C144.674 16.0226 145.227 16.3832 145.587 16.792C145.636 16.8401 146.982 16.3111 146.934 14.7242C146.862 13.7384 145.876 13.1133 144.65 13.1133Z" fill="black"/>
<path d="M160.182 13.3062C158.932 13.3062 158.235 13.9073 157.826 15.4942C157.032 14.0035 155.397 13.0898 153.498 13.0898C149.459 13.0898 146.646 16.6964 146.646 20.7838C146.646 24.1499 148.713 26.6505 151.983 26.6505C153.979 26.6505 155.518 25.833 156.503 24.174C156.359 25.9051 156.696 26.4341 157.946 26.4341C159.052 26.4341 159.413 26.0253 159.533 24.7991C159.677 22.539 160.447 18.8603 161.336 13.6909C161.336 13.5948 160.831 13.3062 160.182 13.3062ZM152.68 24.174C150.709 24.174 149.579 22.9237 149.579 20.7117C149.579 18.115 151.094 15.5183 153.907 15.5183C156.191 15.5183 157.153 17.2013 157.153 19.0527C157.153 21.3849 155.566 24.174 152.68 24.174Z" fill="black"/>
<path d="M179.369 13.1133C177.157 13.1133 175.691 14.2433 174.657 15.9023C174.152 14.1472 172.637 13.1133 170.714 13.1133C169.031 13.1133 167.564 13.9067 166.554 15.4215C166.602 13.8105 165.665 13.3297 164.703 13.3297C164.222 13.3297 163.885 13.4499 163.861 13.498L161.842 24.9187C161.649 26.0969 162.298 26.4335 163.164 26.4335H163.525C164.342 26.4335 164.847 26.0969 165.039 24.9187L166.29 17.8258C167.203 16.4073 168.069 15.8062 169.415 15.8062C170.738 15.8062 171.555 16.792 171.555 18.2827C171.555 18.5231 171.531 18.7876 171.483 19.0761L170.473 24.9187C170.281 26.0969 170.954 26.4335 171.796 26.4335H172.132C172.95 26.4335 173.479 26.0728 173.671 24.9187L174.921 17.8258C175.835 16.4073 176.701 15.8062 178.047 15.8062C179.321 15.8062 180.259 16.5756 180.259 18.1625C180.259 18.5472 180.187 19.028 180.091 19.6051L179.153 24.8947C178.961 26.0728 179.61 26.4094 180.475 26.4094H180.836C181.774 26.4094 182.159 26.0247 182.351 24.8947L183.385 19.0521C183.505 18.4029 183.553 17.8258 183.553 17.2969C183.577 14.7242 181.846 13.1133 179.369 13.1133Z" fill="black"/>
<path d="M106.782 18.8369C106.782 17.0577 106.421 15.8795 105.628 14.8456C104.762 13.7396 103.151 13.0664 101.276 13.0664C95.6013 13.0664 93.5576 17.25 93.5576 20.8806C93.5576 24.3429 96.0582 26.6511 99.9052 26.6511C103.752 26.6511 105.916 24.944 105.916 23.5735C105.916 22.6598 105.267 22.3473 104.522 22.2751C103.512 23.5735 102.117 24.1986 100.218 24.1986C98.5347 24.1986 96.539 23.5495 96.3948 20.544H105.123C106.06 20.568 106.782 20.0391 106.782 18.8369ZM103.969 18.4282H96.6833C97.3806 16.5768 98.9915 15.4227 101.035 15.4227C102.069 15.4227 102.863 15.7112 103.391 16.2883C103.848 16.8172 104.017 17.5385 103.969 18.4282Z" fill="black"/>
<path d="M133.879 17.0814H128.685C128.06 17.0814 127.771 17.2257 127.579 17.4181C127.267 17.7547 127.098 18.5241 127.098 18.8607C127.122 19.3896 127.579 19.7022 128.421 19.7022H132.099C131.594 22.2749 129.959 24.0541 127.146 24.0541C124.189 24.0541 122.217 22.1787 122.097 18.9809C121.953 14.9656 124.622 11.6476 128.397 11.6476C130.609 11.6476 132.34 12.8257 133.037 14.3885C133.133 14.5088 135.177 14.5088 135.105 12.7536C135.081 12.1284 134.72 11.3831 134.047 10.758C132.965 9.67599 130.921 8.73828 128.204 8.73828C124.405 8.73828 121.4 10.8301 119.837 13.8596C119.837 13.8355 119.813 13.8355 119.813 13.8355C119.5 13.4268 118.996 13.2345 118.491 13.2345C117.649 13.2345 117.096 13.4989 116.279 14.9416L112.239 22.0344L110.725 14.9656C110.436 13.6432 109.955 13.2345 109.114 13.2345C108.128 13.2345 107.334 13.9558 107.358 14.1241L110.244 25.5448L107.262 30.4497C106.95 30.9787 106.926 31.676 108.056 31.676H108.681C109.859 31.676 110.244 30.9547 110.821 29.9689L118.947 16.2159C118.707 17.1776 118.587 18.2115 118.635 19.2694C118.779 23.8858 121.905 26.6749 126.473 26.6749C128.637 26.6749 130.368 25.8574 131.33 24.6071C131.258 25.9536 131.979 26.4825 132.941 26.4825C133.47 26.4825 133.855 26.3142 133.855 26.218L135.177 18.8126C135.393 17.6585 134.961 17.0814 133.879 17.0814Z" fill="black"/>
<path d="M186.991 25.0217C187.088 25.19 187.16 25.2621 187.28 25.2621C187.28 25.2621 187.304 25.4545 187.064 25.4545C186.919 25.4545 186.823 25.3823 186.679 25.1179L186.414 24.637H186.174L186.054 25.3102C186.03 25.4064 185.982 25.4545 185.885 25.4545H185.837C185.741 25.4545 185.693 25.4064 185.717 25.2862L186.054 23.555C186.078 23.4348 186.15 23.3867 186.27 23.3867H186.775C187.232 23.3867 187.496 23.5791 187.496 23.9157C187.496 24.3244 187.232 24.5889 186.775 24.6129L186.991 25.0217ZM186.679 24.3725C186.991 24.3725 187.16 24.2042 187.136 23.9397C187.136 23.7474 186.991 23.6272 186.727 23.6272H186.366L186.222 24.3485H186.679V24.3725Z" fill="black"/>
<path d="M186.606 22.8315C187.544 22.8315 188.289 23.6009 188.289 24.5146C188.289 25.4523 187.52 26.1976 186.606 26.1976C185.669 26.1976 184.923 25.4282 184.923 24.5146C184.899 23.6009 185.669 22.8315 186.606 22.8315ZM186.606 22.543C185.524 22.543 184.635 23.4326 184.635 24.5146C184.635 25.5965 185.524 26.4861 186.606 26.4861C187.688 26.4861 188.578 25.5965 188.578 24.5146C188.578 23.4326 187.688 22.543 186.606 22.543Z" fill="black"/>
<path d="M19.2385 38.3599C29.7687 38.3599 38.3052 29.8234 38.3052 19.2932C38.3052 8.76299 29.7687 0.226562 19.2385 0.226562C8.7083 0.226562 0.171875 8.76299 0.171875 19.2932C0.171875 29.8234 8.7083 38.3599 19.2385 38.3599Z" fill="white"/>
<path d="M38.3052 19.2932C38.3052 29.8243 29.7697 38.3599 19.2385 38.3599C8.70739 38.3599 0.171875 29.8243 0.171875 19.2932C0.171875 16.3839 0.821055 13.6429 1.97515 11.1905C1.20575 13.138 0.845098 15.0856 0.845098 16.8888C0.845098 25.5205 7.81777 26.7708 10.7751 26.7468C15.2954 26.6987 20.5609 24.4867 25.009 20.3992C25.009 20.3992 24.432 23.6211 24.2637 24.6069C24.0953 25.5686 24.7205 26.4101 25.6822 26.4101H26.0669C27.0527 26.4101 27.774 25.5927 27.9423 24.6069L29.5533 15.6145C29.7456 14.6047 29.0964 13.8112 28.0866 13.8112H19.0943C18.0844 13.8112 17.1708 14.3402 17.0025 15.35C17.0025 15.3981 16.9303 15.6867 16.9303 15.7588C16.7861 16.7205 17.4593 17.4418 18.421 17.4418H23.1096C23.0374 17.514 22.9653 17.5861 22.8932 17.6582C19.6473 20.7118 15.632 22.3948 12.3139 22.3948C9.01995 22.3948 5.31722 20.303 5.31722 15.6145C5.31722 5.87683 14.4538 0.226562 19.2385 0.226562C29.7456 0.226562 38.3052 8.76207 38.3052 19.2932Z" fill="#DF2127"/>
</svg>
