<svg width="602" height="425" viewBox="0 0 602 425" fill="none" xmlns="http://www.w3.org/2000/svg">
<path d="M600.483 20.2059L562.086 130.756C559.833 137.215 553.266 141.579 545.835 141.579H258.647C252.08 141.579 246.376 145.42 244.314 151.007C244.266 151.05 244.219 151.137 244.219 151.181V151.225L241.342 159.518V159.561C241.342 159.604 241.294 159.692 241.247 159.736L198.343 283.203L152.947 413.961C150.695 420.42 144.127 424.828 136.649 424.828H17.0949C5.54206 424.828 -2.65504 414.616 0.796311 404.577L42.9806 283.204L88.3767 152.447C90.6295 145.988 97.2449 141.58 104.675 141.58H236.453C243.068 141.58 248.916 137.696 250.882 131.979L256.251 116.528C256.251 116.485 256.298 116.397 256.346 116.354L292.97 10.8234C295.223 4.36413 301.79 1.76477e-08 309.268 1.76477e-08H584.185C595.737 -0.000490197 603.982 10.2119 600.483 20.2059Z" fill="white" fill-opacity="0.08"/>
</svg>
