<svg width="419" height="412" viewBox="0 0 419 412" fill="none" xmlns="http://www.w3.org/2000/svg">
<path d="M-181.985 20.2694L-143.588 130.819C-141.335 137.279 -134.768 141.643 -127.337 141.643H159.853C166.42 141.643 172.125 145.483 174.186 151.07C174.234 151.114 174.282 151.201 174.282 151.244V151.288L177.158 159.581V159.624C177.158 159.668 177.206 159.755 177.254 159.799L220.157 283.267L265.554 414.024C267.807 420.483 274.374 424.891 281.852 424.891H401.407C412.96 424.891 421.157 414.679 417.706 404.641L375.521 283.267L330.125 152.511C327.872 146.052 321.257 141.643 313.826 141.643H182.048C175.433 141.643 169.584 137.76 167.619 132.042L162.25 116.592C162.25 116.548 162.202 116.461 162.154 116.417L125.53 10.8869C123.277 4.4276 116.71 0.0634766 109.232 0.0634766H-165.687C-177.24 0.0629864 -185.485 10.2754 -181.985 20.2694Z" fill="white" fill-opacity="0.08"/>
</svg>
