<svg width="602" height="425" viewBox="0 0 602 425" fill="none" xmlns="http://www.w3.org/2000/svg">
<path d="M152.294 232.62L190.691 343.169C192.944 349.629 199.511 354.037 206.942 354.037H326.544C338.049 354.037 346.295 343.824 342.795 333.786L304.397 223.28C302.193 216.777 295.577 212.413 288.147 212.413H168.544C157.039 212.413 148.794 222.626 152.294 232.62Z" fill="white" fill-opacity="0.08"/>
<path d="M0.812516 20.2059L39.2098 130.756C41.4629 137.215 48.0302 141.579 55.4603 141.579H342.651C349.218 141.579 354.922 145.42 356.984 151.007C357.032 151.05 357.079 151.137 357.079 151.181V151.225L359.956 159.518V159.561C359.956 159.604 360.004 159.692 360.051 159.736L402.955 283.203L448.351 413.961C450.604 420.42 457.172 424.828 464.65 424.828H584.205C595.758 424.828 603.955 414.616 600.504 404.577L558.319 283.204L512.923 152.447C510.67 145.988 504.054 141.58 496.624 141.58H364.845C358.23 141.58 352.382 137.696 350.417 131.979L345.048 116.528C345.048 116.485 345 116.397 344.952 116.354L308.328 10.8234C306.075 4.36413 299.508 1.76477e-08 292.029 1.76477e-08H17.1107C5.55798 -0.000490197 -2.68705 10.2119 0.812516 20.2059Z" fill="white" fill-opacity="0.08"/>
</svg>

